%TF.GenerationSoftware,KiCad,Pcbnew,7.0.6-7.0.6~ubuntu22.04.1*%
%TF.CreationDate,2023-09-01T17:28:15+01:00*%
%TF.ProjectId,tec-controller,7465632d-636f-46e7-9472-6f6c6c65722e,rev?*%
%TF.SameCoordinates,Original*%
%TF.FileFunction,Legend,Top*%
%TF.FilePolarity,Positive*%
%FSLAX46Y46*%
G04 Gerber Fmt 4.6, Leading zero omitted, Abs format (unit mm)*
G04 Created by KiCad (PCBNEW 7.0.6-7.0.6~ubuntu22.04.1) date 2023-09-01 17:28:15*
%MOMM*%
%LPD*%
G01*
G04 APERTURE LIST*
%ADD10C,0.150000*%
%ADD11C,0.100000*%
%ADD12C,0.120000*%
G04 APERTURE END LIST*
D10*
X118674874Y-106749819D02*
X119132017Y-106749819D01*
X118903445Y-107749819D02*
X118903445Y-106749819D01*
X119398684Y-107226009D02*
X119665350Y-107226009D01*
X119779636Y-107749819D02*
X119398684Y-107749819D01*
X119398684Y-107749819D02*
X119398684Y-106749819D01*
X119398684Y-106749819D02*
X119779636Y-106749819D01*
X120579637Y-107654580D02*
X120541541Y-107702200D01*
X120541541Y-107702200D02*
X120427256Y-107749819D01*
X120427256Y-107749819D02*
X120351065Y-107749819D01*
X120351065Y-107749819D02*
X120236779Y-107702200D01*
X120236779Y-107702200D02*
X120160589Y-107606961D01*
X120160589Y-107606961D02*
X120122494Y-107511723D01*
X120122494Y-107511723D02*
X120084398Y-107321247D01*
X120084398Y-107321247D02*
X120084398Y-107178390D01*
X120084398Y-107178390D02*
X120122494Y-106987914D01*
X120122494Y-106987914D02*
X120160589Y-106892676D01*
X120160589Y-106892676D02*
X120236779Y-106797438D01*
X120236779Y-106797438D02*
X120351065Y-106749819D01*
X120351065Y-106749819D02*
X120427256Y-106749819D01*
X120427256Y-106749819D02*
X120541541Y-106797438D01*
X120541541Y-106797438D02*
X120579637Y-106845057D01*
X121989161Y-107654580D02*
X121951065Y-107702200D01*
X121951065Y-107702200D02*
X121836780Y-107749819D01*
X121836780Y-107749819D02*
X121760589Y-107749819D01*
X121760589Y-107749819D02*
X121646303Y-107702200D01*
X121646303Y-107702200D02*
X121570113Y-107606961D01*
X121570113Y-107606961D02*
X121532018Y-107511723D01*
X121532018Y-107511723D02*
X121493922Y-107321247D01*
X121493922Y-107321247D02*
X121493922Y-107178390D01*
X121493922Y-107178390D02*
X121532018Y-106987914D01*
X121532018Y-106987914D02*
X121570113Y-106892676D01*
X121570113Y-106892676D02*
X121646303Y-106797438D01*
X121646303Y-106797438D02*
X121760589Y-106749819D01*
X121760589Y-106749819D02*
X121836780Y-106749819D01*
X121836780Y-106749819D02*
X121951065Y-106797438D01*
X121951065Y-106797438D02*
X121989161Y-106845057D01*
X122446303Y-107749819D02*
X122370113Y-107702200D01*
X122370113Y-107702200D02*
X122332018Y-107654580D01*
X122332018Y-107654580D02*
X122293922Y-107559342D01*
X122293922Y-107559342D02*
X122293922Y-107273628D01*
X122293922Y-107273628D02*
X122332018Y-107178390D01*
X122332018Y-107178390D02*
X122370113Y-107130771D01*
X122370113Y-107130771D02*
X122446303Y-107083152D01*
X122446303Y-107083152D02*
X122560589Y-107083152D01*
X122560589Y-107083152D02*
X122636780Y-107130771D01*
X122636780Y-107130771D02*
X122674875Y-107178390D01*
X122674875Y-107178390D02*
X122712970Y-107273628D01*
X122712970Y-107273628D02*
X122712970Y-107559342D01*
X122712970Y-107559342D02*
X122674875Y-107654580D01*
X122674875Y-107654580D02*
X122636780Y-107702200D01*
X122636780Y-107702200D02*
X122560589Y-107749819D01*
X122560589Y-107749819D02*
X122446303Y-107749819D01*
X123055828Y-107083152D02*
X123055828Y-107749819D01*
X123055828Y-107178390D02*
X123093923Y-107130771D01*
X123093923Y-107130771D02*
X123170113Y-107083152D01*
X123170113Y-107083152D02*
X123284399Y-107083152D01*
X123284399Y-107083152D02*
X123360590Y-107130771D01*
X123360590Y-107130771D02*
X123398685Y-107226009D01*
X123398685Y-107226009D02*
X123398685Y-107749819D01*
X123665352Y-107083152D02*
X123970114Y-107083152D01*
X123779638Y-106749819D02*
X123779638Y-107606961D01*
X123779638Y-107606961D02*
X123817733Y-107702200D01*
X123817733Y-107702200D02*
X123893923Y-107749819D01*
X123893923Y-107749819D02*
X123970114Y-107749819D01*
X124236781Y-107749819D02*
X124236781Y-107083152D01*
X124236781Y-107273628D02*
X124274876Y-107178390D01*
X124274876Y-107178390D02*
X124312971Y-107130771D01*
X124312971Y-107130771D02*
X124389162Y-107083152D01*
X124389162Y-107083152D02*
X124465352Y-107083152D01*
X124846304Y-107749819D02*
X124770114Y-107702200D01*
X124770114Y-107702200D02*
X124732019Y-107654580D01*
X124732019Y-107654580D02*
X124693923Y-107559342D01*
X124693923Y-107559342D02*
X124693923Y-107273628D01*
X124693923Y-107273628D02*
X124732019Y-107178390D01*
X124732019Y-107178390D02*
X124770114Y-107130771D01*
X124770114Y-107130771D02*
X124846304Y-107083152D01*
X124846304Y-107083152D02*
X124960590Y-107083152D01*
X124960590Y-107083152D02*
X125036781Y-107130771D01*
X125036781Y-107130771D02*
X125074876Y-107178390D01*
X125074876Y-107178390D02*
X125112971Y-107273628D01*
X125112971Y-107273628D02*
X125112971Y-107559342D01*
X125112971Y-107559342D02*
X125074876Y-107654580D01*
X125074876Y-107654580D02*
X125036781Y-107702200D01*
X125036781Y-107702200D02*
X124960590Y-107749819D01*
X124960590Y-107749819D02*
X124846304Y-107749819D01*
X125570114Y-107749819D02*
X125493924Y-107702200D01*
X125493924Y-107702200D02*
X125455829Y-107606961D01*
X125455829Y-107606961D02*
X125455829Y-106749819D01*
X125989162Y-107749819D02*
X125912972Y-107702200D01*
X125912972Y-107702200D02*
X125874877Y-107606961D01*
X125874877Y-107606961D02*
X125874877Y-106749819D01*
X126598687Y-107702200D02*
X126522496Y-107749819D01*
X126522496Y-107749819D02*
X126370115Y-107749819D01*
X126370115Y-107749819D02*
X126293925Y-107702200D01*
X126293925Y-107702200D02*
X126255829Y-107606961D01*
X126255829Y-107606961D02*
X126255829Y-107226009D01*
X126255829Y-107226009D02*
X126293925Y-107130771D01*
X126293925Y-107130771D02*
X126370115Y-107083152D01*
X126370115Y-107083152D02*
X126522496Y-107083152D01*
X126522496Y-107083152D02*
X126598687Y-107130771D01*
X126598687Y-107130771D02*
X126636782Y-107226009D01*
X126636782Y-107226009D02*
X126636782Y-107321247D01*
X126636782Y-107321247D02*
X126255829Y-107416485D01*
X126979639Y-107749819D02*
X126979639Y-107083152D01*
X126979639Y-107273628D02*
X127017734Y-107178390D01*
X127017734Y-107178390D02*
X127055829Y-107130771D01*
X127055829Y-107130771D02*
X127132020Y-107083152D01*
X127132020Y-107083152D02*
X127208210Y-107083152D01*
X128732020Y-107749819D02*
X128693925Y-107749819D01*
X128693925Y-107749819D02*
X128617734Y-107702200D01*
X128617734Y-107702200D02*
X128503448Y-107559342D01*
X128503448Y-107559342D02*
X128312972Y-107273628D01*
X128312972Y-107273628D02*
X128236782Y-107130771D01*
X128236782Y-107130771D02*
X128198686Y-106987914D01*
X128198686Y-106987914D02*
X128198686Y-106892676D01*
X128198686Y-106892676D02*
X128236782Y-106797438D01*
X128236782Y-106797438D02*
X128312972Y-106749819D01*
X128312972Y-106749819D02*
X128351067Y-106749819D01*
X128351067Y-106749819D02*
X128427258Y-106797438D01*
X128427258Y-106797438D02*
X128465353Y-106892676D01*
X128465353Y-106892676D02*
X128465353Y-106940295D01*
X128465353Y-106940295D02*
X128427258Y-107035533D01*
X128427258Y-107035533D02*
X128389163Y-107083152D01*
X128389163Y-107083152D02*
X128160591Y-107273628D01*
X128160591Y-107273628D02*
X128122496Y-107321247D01*
X128122496Y-107321247D02*
X128084401Y-107416485D01*
X128084401Y-107416485D02*
X128084401Y-107559342D01*
X128084401Y-107559342D02*
X128122496Y-107654580D01*
X128122496Y-107654580D02*
X128160591Y-107702200D01*
X128160591Y-107702200D02*
X128236782Y-107749819D01*
X128236782Y-107749819D02*
X128351067Y-107749819D01*
X128351067Y-107749819D02*
X128427258Y-107702200D01*
X128427258Y-107702200D02*
X128465353Y-107654580D01*
X128465353Y-107654580D02*
X128579639Y-107464104D01*
X128579639Y-107464104D02*
X128617734Y-107321247D01*
X128617734Y-107321247D02*
X128617734Y-107226009D01*
X129684401Y-106749819D02*
X129684401Y-107559342D01*
X129684401Y-107559342D02*
X129722496Y-107654580D01*
X129722496Y-107654580D02*
X129760591Y-107702200D01*
X129760591Y-107702200D02*
X129836782Y-107749819D01*
X129836782Y-107749819D02*
X129989163Y-107749819D01*
X129989163Y-107749819D02*
X130065353Y-107702200D01*
X130065353Y-107702200D02*
X130103448Y-107654580D01*
X130103448Y-107654580D02*
X130141544Y-107559342D01*
X130141544Y-107559342D02*
X130141544Y-106749819D01*
X130484400Y-107702200D02*
X130598686Y-107749819D01*
X130598686Y-107749819D02*
X130789162Y-107749819D01*
X130789162Y-107749819D02*
X130865353Y-107702200D01*
X130865353Y-107702200D02*
X130903448Y-107654580D01*
X130903448Y-107654580D02*
X130941543Y-107559342D01*
X130941543Y-107559342D02*
X130941543Y-107464104D01*
X130941543Y-107464104D02*
X130903448Y-107368866D01*
X130903448Y-107368866D02*
X130865353Y-107321247D01*
X130865353Y-107321247D02*
X130789162Y-107273628D01*
X130789162Y-107273628D02*
X130636781Y-107226009D01*
X130636781Y-107226009D02*
X130560591Y-107178390D01*
X130560591Y-107178390D02*
X130522496Y-107130771D01*
X130522496Y-107130771D02*
X130484400Y-107035533D01*
X130484400Y-107035533D02*
X130484400Y-106940295D01*
X130484400Y-106940295D02*
X130522496Y-106845057D01*
X130522496Y-106845057D02*
X130560591Y-106797438D01*
X130560591Y-106797438D02*
X130636781Y-106749819D01*
X130636781Y-106749819D02*
X130827258Y-106749819D01*
X130827258Y-106749819D02*
X130941543Y-106797438D01*
X131551067Y-107226009D02*
X131665353Y-107273628D01*
X131665353Y-107273628D02*
X131703448Y-107321247D01*
X131703448Y-107321247D02*
X131741544Y-107416485D01*
X131741544Y-107416485D02*
X131741544Y-107559342D01*
X131741544Y-107559342D02*
X131703448Y-107654580D01*
X131703448Y-107654580D02*
X131665353Y-107702200D01*
X131665353Y-107702200D02*
X131589163Y-107749819D01*
X131589163Y-107749819D02*
X131284401Y-107749819D01*
X131284401Y-107749819D02*
X131284401Y-106749819D01*
X131284401Y-106749819D02*
X131551067Y-106749819D01*
X131551067Y-106749819D02*
X131627258Y-106797438D01*
X131627258Y-106797438D02*
X131665353Y-106845057D01*
X131665353Y-106845057D02*
X131703448Y-106940295D01*
X131703448Y-106940295D02*
X131703448Y-107035533D01*
X131703448Y-107035533D02*
X131665353Y-107130771D01*
X131665353Y-107130771D02*
X131627258Y-107178390D01*
X131627258Y-107178390D02*
X131551067Y-107226009D01*
X131551067Y-107226009D02*
X131284401Y-107226009D01*
X119436779Y-108597914D02*
X119360588Y-108550295D01*
X119360588Y-108550295D02*
X119208207Y-108550295D01*
X119208207Y-108550295D02*
X119132017Y-108597914D01*
X119132017Y-108597914D02*
X119055826Y-108693152D01*
X119055826Y-108693152D02*
X119017731Y-108788390D01*
X119017731Y-108788390D02*
X119017731Y-108978866D01*
X119017731Y-108978866D02*
X119055826Y-109074104D01*
X119055826Y-109074104D02*
X119132017Y-109169342D01*
X119132017Y-109169342D02*
X119208207Y-109216961D01*
X119208207Y-109216961D02*
X119360588Y-109216961D01*
X119360588Y-109216961D02*
X119436779Y-109169342D01*
X119284398Y-108216961D02*
X119093922Y-108264580D01*
X119093922Y-108264580D02*
X118903445Y-108407438D01*
X118903445Y-108407438D02*
X118789160Y-108645533D01*
X118789160Y-108645533D02*
X118751064Y-108883628D01*
X118751064Y-108883628D02*
X118789160Y-109121723D01*
X118789160Y-109121723D02*
X118903445Y-109359819D01*
X118903445Y-109359819D02*
X119093922Y-109502676D01*
X119093922Y-109502676D02*
X119284398Y-109550295D01*
X119284398Y-109550295D02*
X119474874Y-109502676D01*
X119474874Y-109502676D02*
X119665350Y-109359819D01*
X119665350Y-109359819D02*
X119779636Y-109121723D01*
X119779636Y-109121723D02*
X119817731Y-108883628D01*
X119817731Y-108883628D02*
X119779636Y-108645533D01*
X119779636Y-108645533D02*
X119665350Y-108407438D01*
X119665350Y-108407438D02*
X119474874Y-108264580D01*
X119474874Y-108264580D02*
X119284398Y-108216961D01*
X120770113Y-109359819D02*
X120770113Y-108359819D01*
X120770113Y-108359819D02*
X121074875Y-108359819D01*
X121074875Y-108359819D02*
X121151065Y-108407438D01*
X121151065Y-108407438D02*
X121189160Y-108455057D01*
X121189160Y-108455057D02*
X121227256Y-108550295D01*
X121227256Y-108550295D02*
X121227256Y-108693152D01*
X121227256Y-108693152D02*
X121189160Y-108788390D01*
X121189160Y-108788390D02*
X121151065Y-108836009D01*
X121151065Y-108836009D02*
X121074875Y-108883628D01*
X121074875Y-108883628D02*
X120770113Y-108883628D01*
X121912970Y-109359819D02*
X121912970Y-108836009D01*
X121912970Y-108836009D02*
X121874875Y-108740771D01*
X121874875Y-108740771D02*
X121798684Y-108693152D01*
X121798684Y-108693152D02*
X121646303Y-108693152D01*
X121646303Y-108693152D02*
X121570113Y-108740771D01*
X121912970Y-109312200D02*
X121836779Y-109359819D01*
X121836779Y-109359819D02*
X121646303Y-109359819D01*
X121646303Y-109359819D02*
X121570113Y-109312200D01*
X121570113Y-109312200D02*
X121532017Y-109216961D01*
X121532017Y-109216961D02*
X121532017Y-109121723D01*
X121532017Y-109121723D02*
X121570113Y-109026485D01*
X121570113Y-109026485D02*
X121646303Y-108978866D01*
X121646303Y-108978866D02*
X121836779Y-108978866D01*
X121836779Y-108978866D02*
X121912970Y-108931247D01*
X122293923Y-109359819D02*
X122293923Y-108693152D01*
X122293923Y-108883628D02*
X122332018Y-108788390D01*
X122332018Y-108788390D02*
X122370113Y-108740771D01*
X122370113Y-108740771D02*
X122446304Y-108693152D01*
X122446304Y-108693152D02*
X122522494Y-108693152D01*
X123132018Y-109359819D02*
X123132018Y-108836009D01*
X123132018Y-108836009D02*
X123093923Y-108740771D01*
X123093923Y-108740771D02*
X123017732Y-108693152D01*
X123017732Y-108693152D02*
X122865351Y-108693152D01*
X122865351Y-108693152D02*
X122789161Y-108740771D01*
X123132018Y-109312200D02*
X123055827Y-109359819D01*
X123055827Y-109359819D02*
X122865351Y-109359819D01*
X122865351Y-109359819D02*
X122789161Y-109312200D01*
X122789161Y-109312200D02*
X122751065Y-109216961D01*
X122751065Y-109216961D02*
X122751065Y-109121723D01*
X122751065Y-109121723D02*
X122789161Y-109026485D01*
X122789161Y-109026485D02*
X122865351Y-108978866D01*
X122865351Y-108978866D02*
X123055827Y-108978866D01*
X123055827Y-108978866D02*
X123132018Y-108931247D01*
X123512971Y-109359819D02*
X123512971Y-108693152D01*
X123512971Y-108788390D02*
X123551066Y-108740771D01*
X123551066Y-108740771D02*
X123627256Y-108693152D01*
X123627256Y-108693152D02*
X123741542Y-108693152D01*
X123741542Y-108693152D02*
X123817733Y-108740771D01*
X123817733Y-108740771D02*
X123855828Y-108836009D01*
X123855828Y-108836009D02*
X123855828Y-109359819D01*
X123855828Y-108836009D02*
X123893923Y-108740771D01*
X123893923Y-108740771D02*
X123970114Y-108693152D01*
X123970114Y-108693152D02*
X124084399Y-108693152D01*
X124084399Y-108693152D02*
X124160590Y-108740771D01*
X124160590Y-108740771D02*
X124198685Y-108836009D01*
X124198685Y-108836009D02*
X124198685Y-109359819D01*
X124579638Y-109359819D02*
X124579638Y-108693152D01*
X124579638Y-108359819D02*
X124541542Y-108407438D01*
X124541542Y-108407438D02*
X124579638Y-108455057D01*
X124579638Y-108455057D02*
X124617733Y-108407438D01*
X124617733Y-108407438D02*
X124579638Y-108359819D01*
X124579638Y-108359819D02*
X124579638Y-108455057D01*
X124846304Y-108693152D02*
X125151066Y-108693152D01*
X124960590Y-108359819D02*
X124960590Y-109216961D01*
X124960590Y-109216961D02*
X124998685Y-109312200D01*
X124998685Y-109312200D02*
X125074875Y-109359819D01*
X125074875Y-109359819D02*
X125151066Y-109359819D01*
X125760590Y-109359819D02*
X125760590Y-108836009D01*
X125760590Y-108836009D02*
X125722495Y-108740771D01*
X125722495Y-108740771D02*
X125646304Y-108693152D01*
X125646304Y-108693152D02*
X125493923Y-108693152D01*
X125493923Y-108693152D02*
X125417733Y-108740771D01*
X125760590Y-109312200D02*
X125684399Y-109359819D01*
X125684399Y-109359819D02*
X125493923Y-109359819D01*
X125493923Y-109359819D02*
X125417733Y-109312200D01*
X125417733Y-109312200D02*
X125379637Y-109216961D01*
X125379637Y-109216961D02*
X125379637Y-109121723D01*
X125379637Y-109121723D02*
X125417733Y-109026485D01*
X125417733Y-109026485D02*
X125493923Y-108978866D01*
X125493923Y-108978866D02*
X125684399Y-108978866D01*
X125684399Y-108978866D02*
X125760590Y-108931247D01*
X126865352Y-109359819D02*
X126789162Y-109312200D01*
X126789162Y-109312200D02*
X126751067Y-109216961D01*
X126751067Y-109216961D02*
X126751067Y-108359819D01*
X127055829Y-108693152D02*
X127360591Y-108693152D01*
X127170115Y-108359819D02*
X127170115Y-109216961D01*
X127170115Y-109216961D02*
X127208210Y-109312200D01*
X127208210Y-109312200D02*
X127284400Y-109359819D01*
X127284400Y-109359819D02*
X127360591Y-109359819D01*
X127970115Y-109359819D02*
X127970115Y-108359819D01*
X127970115Y-109312200D02*
X127893924Y-109359819D01*
X127893924Y-109359819D02*
X127741543Y-109359819D01*
X127741543Y-109359819D02*
X127665353Y-109312200D01*
X127665353Y-109312200D02*
X127627258Y-109264580D01*
X127627258Y-109264580D02*
X127589162Y-109169342D01*
X127589162Y-109169342D02*
X127589162Y-108883628D01*
X127589162Y-108883628D02*
X127627258Y-108788390D01*
X127627258Y-108788390D02*
X127665353Y-108740771D01*
X127665353Y-108740771D02*
X127741543Y-108693152D01*
X127741543Y-108693152D02*
X127893924Y-108693152D01*
X127893924Y-108693152D02*
X127970115Y-108740771D01*
X128922496Y-108455057D02*
X128960592Y-108407438D01*
X128960592Y-108407438D02*
X129036782Y-108359819D01*
X129036782Y-108359819D02*
X129227258Y-108359819D01*
X129227258Y-108359819D02*
X129303449Y-108407438D01*
X129303449Y-108407438D02*
X129341544Y-108455057D01*
X129341544Y-108455057D02*
X129379639Y-108550295D01*
X129379639Y-108550295D02*
X129379639Y-108645533D01*
X129379639Y-108645533D02*
X129341544Y-108788390D01*
X129341544Y-108788390D02*
X128884401Y-109359819D01*
X128884401Y-109359819D02*
X129379639Y-109359819D01*
X129874878Y-108359819D02*
X129951068Y-108359819D01*
X129951068Y-108359819D02*
X130027259Y-108407438D01*
X130027259Y-108407438D02*
X130065354Y-108455057D01*
X130065354Y-108455057D02*
X130103449Y-108550295D01*
X130103449Y-108550295D02*
X130141544Y-108740771D01*
X130141544Y-108740771D02*
X130141544Y-108978866D01*
X130141544Y-108978866D02*
X130103449Y-109169342D01*
X130103449Y-109169342D02*
X130065354Y-109264580D01*
X130065354Y-109264580D02*
X130027259Y-109312200D01*
X130027259Y-109312200D02*
X129951068Y-109359819D01*
X129951068Y-109359819D02*
X129874878Y-109359819D01*
X129874878Y-109359819D02*
X129798687Y-109312200D01*
X129798687Y-109312200D02*
X129760592Y-109264580D01*
X129760592Y-109264580D02*
X129722497Y-109169342D01*
X129722497Y-109169342D02*
X129684401Y-108978866D01*
X129684401Y-108978866D02*
X129684401Y-108740771D01*
X129684401Y-108740771D02*
X129722497Y-108550295D01*
X129722497Y-108550295D02*
X129760592Y-108455057D01*
X129760592Y-108455057D02*
X129798687Y-108407438D01*
X129798687Y-108407438D02*
X129874878Y-108359819D01*
X130446306Y-108455057D02*
X130484402Y-108407438D01*
X130484402Y-108407438D02*
X130560592Y-108359819D01*
X130560592Y-108359819D02*
X130751068Y-108359819D01*
X130751068Y-108359819D02*
X130827259Y-108407438D01*
X130827259Y-108407438D02*
X130865354Y-108455057D01*
X130865354Y-108455057D02*
X130903449Y-108550295D01*
X130903449Y-108550295D02*
X130903449Y-108645533D01*
X130903449Y-108645533D02*
X130865354Y-108788390D01*
X130865354Y-108788390D02*
X130408211Y-109359819D01*
X130408211Y-109359819D02*
X130903449Y-109359819D01*
X131170116Y-108359819D02*
X131665354Y-108359819D01*
X131665354Y-108359819D02*
X131398688Y-108740771D01*
X131398688Y-108740771D02*
X131512973Y-108740771D01*
X131512973Y-108740771D02*
X131589164Y-108788390D01*
X131589164Y-108788390D02*
X131627259Y-108836009D01*
X131627259Y-108836009D02*
X131665354Y-108931247D01*
X131665354Y-108931247D02*
X131665354Y-109169342D01*
X131665354Y-109169342D02*
X131627259Y-109264580D01*
X131627259Y-109264580D02*
X131589164Y-109312200D01*
X131589164Y-109312200D02*
X131512973Y-109359819D01*
X131512973Y-109359819D02*
X131284402Y-109359819D01*
X131284402Y-109359819D02*
X131208211Y-109312200D01*
X131208211Y-109312200D02*
X131170116Y-109264580D01*
X118712969Y-110303152D02*
X118903445Y-110969819D01*
X118903445Y-110969819D02*
X119093922Y-110303152D01*
X119703446Y-110922200D02*
X119627255Y-110969819D01*
X119627255Y-110969819D02*
X119474874Y-110969819D01*
X119474874Y-110969819D02*
X119398684Y-110922200D01*
X119398684Y-110922200D02*
X119360588Y-110826961D01*
X119360588Y-110826961D02*
X119360588Y-110446009D01*
X119360588Y-110446009D02*
X119398684Y-110350771D01*
X119398684Y-110350771D02*
X119474874Y-110303152D01*
X119474874Y-110303152D02*
X119627255Y-110303152D01*
X119627255Y-110303152D02*
X119703446Y-110350771D01*
X119703446Y-110350771D02*
X119741541Y-110446009D01*
X119741541Y-110446009D02*
X119741541Y-110541247D01*
X119741541Y-110541247D02*
X119360588Y-110636485D01*
X120084398Y-110969819D02*
X120084398Y-110303152D01*
X120084398Y-110493628D02*
X120122493Y-110398390D01*
X120122493Y-110398390D02*
X120160588Y-110350771D01*
X120160588Y-110350771D02*
X120236779Y-110303152D01*
X120236779Y-110303152D02*
X120312969Y-110303152D01*
X120541540Y-110922200D02*
X120617731Y-110969819D01*
X120617731Y-110969819D02*
X120770112Y-110969819D01*
X120770112Y-110969819D02*
X120846302Y-110922200D01*
X120846302Y-110922200D02*
X120884398Y-110826961D01*
X120884398Y-110826961D02*
X120884398Y-110779342D01*
X120884398Y-110779342D02*
X120846302Y-110684104D01*
X120846302Y-110684104D02*
X120770112Y-110636485D01*
X120770112Y-110636485D02*
X120655826Y-110636485D01*
X120655826Y-110636485D02*
X120579636Y-110588866D01*
X120579636Y-110588866D02*
X120541540Y-110493628D01*
X120541540Y-110493628D02*
X120541540Y-110446009D01*
X120541540Y-110446009D02*
X120579636Y-110350771D01*
X120579636Y-110350771D02*
X120655826Y-110303152D01*
X120655826Y-110303152D02*
X120770112Y-110303152D01*
X120770112Y-110303152D02*
X120846302Y-110350771D01*
X121227255Y-110969819D02*
X121227255Y-110303152D01*
X121227255Y-109969819D02*
X121189159Y-110017438D01*
X121189159Y-110017438D02*
X121227255Y-110065057D01*
X121227255Y-110065057D02*
X121265350Y-110017438D01*
X121265350Y-110017438D02*
X121227255Y-109969819D01*
X121227255Y-109969819D02*
X121227255Y-110065057D01*
X121722492Y-110969819D02*
X121646302Y-110922200D01*
X121646302Y-110922200D02*
X121608207Y-110874580D01*
X121608207Y-110874580D02*
X121570111Y-110779342D01*
X121570111Y-110779342D02*
X121570111Y-110493628D01*
X121570111Y-110493628D02*
X121608207Y-110398390D01*
X121608207Y-110398390D02*
X121646302Y-110350771D01*
X121646302Y-110350771D02*
X121722492Y-110303152D01*
X121722492Y-110303152D02*
X121836778Y-110303152D01*
X121836778Y-110303152D02*
X121912969Y-110350771D01*
X121912969Y-110350771D02*
X121951064Y-110398390D01*
X121951064Y-110398390D02*
X121989159Y-110493628D01*
X121989159Y-110493628D02*
X121989159Y-110779342D01*
X121989159Y-110779342D02*
X121951064Y-110874580D01*
X121951064Y-110874580D02*
X121912969Y-110922200D01*
X121912969Y-110922200D02*
X121836778Y-110969819D01*
X121836778Y-110969819D02*
X121722492Y-110969819D01*
X122332017Y-110303152D02*
X122332017Y-110969819D01*
X122332017Y-110398390D02*
X122370112Y-110350771D01*
X122370112Y-110350771D02*
X122446302Y-110303152D01*
X122446302Y-110303152D02*
X122560588Y-110303152D01*
X122560588Y-110303152D02*
X122636779Y-110350771D01*
X122636779Y-110350771D02*
X122674874Y-110446009D01*
X122674874Y-110446009D02*
X122674874Y-110969819D01*
X124084398Y-110969819D02*
X123627255Y-110969819D01*
X123855827Y-110969819D02*
X123855827Y-109969819D01*
X123855827Y-109969819D02*
X123779636Y-110112676D01*
X123779636Y-110112676D02*
X123703446Y-110207914D01*
X123703446Y-110207914D02*
X123627255Y-110255533D01*
X124427256Y-110874580D02*
X124465351Y-110922200D01*
X124465351Y-110922200D02*
X124427256Y-110969819D01*
X124427256Y-110969819D02*
X124389160Y-110922200D01*
X124389160Y-110922200D02*
X124427256Y-110874580D01*
X124427256Y-110874580D02*
X124427256Y-110969819D01*
X124960589Y-109969819D02*
X125036779Y-109969819D01*
X125036779Y-109969819D02*
X125112970Y-110017438D01*
X125112970Y-110017438D02*
X125151065Y-110065057D01*
X125151065Y-110065057D02*
X125189160Y-110160295D01*
X125189160Y-110160295D02*
X125227255Y-110350771D01*
X125227255Y-110350771D02*
X125227255Y-110588866D01*
X125227255Y-110588866D02*
X125189160Y-110779342D01*
X125189160Y-110779342D02*
X125151065Y-110874580D01*
X125151065Y-110874580D02*
X125112970Y-110922200D01*
X125112970Y-110922200D02*
X125036779Y-110969819D01*
X125036779Y-110969819D02*
X124960589Y-110969819D01*
X124960589Y-110969819D02*
X124884398Y-110922200D01*
X124884398Y-110922200D02*
X124846303Y-110874580D01*
X124846303Y-110874580D02*
X124808208Y-110779342D01*
X124808208Y-110779342D02*
X124770112Y-110588866D01*
X124770112Y-110588866D02*
X124770112Y-110350771D01*
X124770112Y-110350771D02*
X124808208Y-110160295D01*
X124808208Y-110160295D02*
X124846303Y-110065057D01*
X124846303Y-110065057D02*
X124884398Y-110017438D01*
X124884398Y-110017438D02*
X124960589Y-109969819D01*
D11*
X156828571Y-109364895D02*
X156628571Y-108983942D01*
X156485714Y-109364895D02*
X156485714Y-108564895D01*
X156485714Y-108564895D02*
X156714285Y-108564895D01*
X156714285Y-108564895D02*
X156771428Y-108602990D01*
X156771428Y-108602990D02*
X156799999Y-108641085D01*
X156799999Y-108641085D02*
X156828571Y-108717276D01*
X156828571Y-108717276D02*
X156828571Y-108831561D01*
X156828571Y-108831561D02*
X156799999Y-108907752D01*
X156799999Y-108907752D02*
X156771428Y-108945847D01*
X156771428Y-108945847D02*
X156714285Y-108983942D01*
X156714285Y-108983942D02*
X156485714Y-108983942D01*
X157399999Y-109364895D02*
X157057142Y-109364895D01*
X157228571Y-109364895D02*
X157228571Y-108564895D01*
X157228571Y-108564895D02*
X157171428Y-108679180D01*
X157171428Y-108679180D02*
X157114285Y-108755371D01*
X157114285Y-108755371D02*
X157057142Y-108793466D01*
X157771428Y-108564895D02*
X157828571Y-108564895D01*
X157828571Y-108564895D02*
X157885714Y-108602990D01*
X157885714Y-108602990D02*
X157914286Y-108641085D01*
X157914286Y-108641085D02*
X157942857Y-108717276D01*
X157942857Y-108717276D02*
X157971428Y-108869657D01*
X157971428Y-108869657D02*
X157971428Y-109060133D01*
X157971428Y-109060133D02*
X157942857Y-109212514D01*
X157942857Y-109212514D02*
X157914286Y-109288704D01*
X157914286Y-109288704D02*
X157885714Y-109326800D01*
X157885714Y-109326800D02*
X157828571Y-109364895D01*
X157828571Y-109364895D02*
X157771428Y-109364895D01*
X157771428Y-109364895D02*
X157714286Y-109326800D01*
X157714286Y-109326800D02*
X157685714Y-109288704D01*
X157685714Y-109288704D02*
X157657143Y-109212514D01*
X157657143Y-109212514D02*
X157628571Y-109060133D01*
X157628571Y-109060133D02*
X157628571Y-108869657D01*
X157628571Y-108869657D02*
X157657143Y-108717276D01*
X157657143Y-108717276D02*
X157685714Y-108641085D01*
X157685714Y-108641085D02*
X157714286Y-108602990D01*
X157714286Y-108602990D02*
X157771428Y-108564895D01*
X158514286Y-108564895D02*
X158228572Y-108564895D01*
X158228572Y-108564895D02*
X158200000Y-108945847D01*
X158200000Y-108945847D02*
X158228572Y-108907752D01*
X158228572Y-108907752D02*
X158285715Y-108869657D01*
X158285715Y-108869657D02*
X158428572Y-108869657D01*
X158428572Y-108869657D02*
X158485715Y-108907752D01*
X158485715Y-108907752D02*
X158514286Y-108945847D01*
X158514286Y-108945847D02*
X158542857Y-109022038D01*
X158542857Y-109022038D02*
X158542857Y-109212514D01*
X158542857Y-109212514D02*
X158514286Y-109288704D01*
X158514286Y-109288704D02*
X158485715Y-109326800D01*
X158485715Y-109326800D02*
X158428572Y-109364895D01*
X158428572Y-109364895D02*
X158285715Y-109364895D01*
X158285715Y-109364895D02*
X158228572Y-109326800D01*
X158228572Y-109326800D02*
X158200000Y-109288704D01*
X113971428Y-89614895D02*
X113971428Y-88814895D01*
X113971428Y-89195847D02*
X114314285Y-89195847D01*
X114314285Y-89614895D02*
X114314285Y-88814895D01*
X114914284Y-89614895D02*
X114571427Y-89614895D01*
X114742856Y-89614895D02*
X114742856Y-88814895D01*
X114742856Y-88814895D02*
X114685713Y-88929180D01*
X114685713Y-88929180D02*
X114628570Y-89005371D01*
X114628570Y-89005371D02*
X114571427Y-89043466D01*
X115285713Y-88814895D02*
X115342856Y-88814895D01*
X115342856Y-88814895D02*
X115399999Y-88852990D01*
X115399999Y-88852990D02*
X115428571Y-88891085D01*
X115428571Y-88891085D02*
X115457142Y-88967276D01*
X115457142Y-88967276D02*
X115485713Y-89119657D01*
X115485713Y-89119657D02*
X115485713Y-89310133D01*
X115485713Y-89310133D02*
X115457142Y-89462514D01*
X115457142Y-89462514D02*
X115428571Y-89538704D01*
X115428571Y-89538704D02*
X115399999Y-89576800D01*
X115399999Y-89576800D02*
X115342856Y-89614895D01*
X115342856Y-89614895D02*
X115285713Y-89614895D01*
X115285713Y-89614895D02*
X115228571Y-89576800D01*
X115228571Y-89576800D02*
X115199999Y-89538704D01*
X115199999Y-89538704D02*
X115171428Y-89462514D01*
X115171428Y-89462514D02*
X115142856Y-89310133D01*
X115142856Y-89310133D02*
X115142856Y-89119657D01*
X115142856Y-89119657D02*
X115171428Y-88967276D01*
X115171428Y-88967276D02*
X115199999Y-88891085D01*
X115199999Y-88891085D02*
X115228571Y-88852990D01*
X115228571Y-88852990D02*
X115285713Y-88814895D01*
X115714285Y-88891085D02*
X115742857Y-88852990D01*
X115742857Y-88852990D02*
X115800000Y-88814895D01*
X115800000Y-88814895D02*
X115942857Y-88814895D01*
X115942857Y-88814895D02*
X116000000Y-88852990D01*
X116000000Y-88852990D02*
X116028571Y-88891085D01*
X116028571Y-88891085D02*
X116057142Y-88967276D01*
X116057142Y-88967276D02*
X116057142Y-89043466D01*
X116057142Y-89043466D02*
X116028571Y-89157752D01*
X116028571Y-89157752D02*
X115685714Y-89614895D01*
X115685714Y-89614895D02*
X116057142Y-89614895D01*
X152728570Y-94004895D02*
X152728570Y-94576323D01*
X152728570Y-94576323D02*
X152699999Y-94690609D01*
X152699999Y-94690609D02*
X152642856Y-94766800D01*
X152642856Y-94766800D02*
X152557142Y-94804895D01*
X152557142Y-94804895D02*
X152499999Y-94804895D01*
X153328570Y-94804895D02*
X152985713Y-94804895D01*
X153157142Y-94804895D02*
X153157142Y-94004895D01*
X153157142Y-94004895D02*
X153099999Y-94119180D01*
X153099999Y-94119180D02*
X153042856Y-94195371D01*
X153042856Y-94195371D02*
X152985713Y-94233466D01*
X153699999Y-94004895D02*
X153757142Y-94004895D01*
X153757142Y-94004895D02*
X153814285Y-94042990D01*
X153814285Y-94042990D02*
X153842857Y-94081085D01*
X153842857Y-94081085D02*
X153871428Y-94157276D01*
X153871428Y-94157276D02*
X153899999Y-94309657D01*
X153899999Y-94309657D02*
X153899999Y-94500133D01*
X153899999Y-94500133D02*
X153871428Y-94652514D01*
X153871428Y-94652514D02*
X153842857Y-94728704D01*
X153842857Y-94728704D02*
X153814285Y-94766800D01*
X153814285Y-94766800D02*
X153757142Y-94804895D01*
X153757142Y-94804895D02*
X153699999Y-94804895D01*
X153699999Y-94804895D02*
X153642857Y-94766800D01*
X153642857Y-94766800D02*
X153614285Y-94728704D01*
X153614285Y-94728704D02*
X153585714Y-94652514D01*
X153585714Y-94652514D02*
X153557142Y-94500133D01*
X153557142Y-94500133D02*
X153557142Y-94309657D01*
X153557142Y-94309657D02*
X153585714Y-94157276D01*
X153585714Y-94157276D02*
X153614285Y-94081085D01*
X153614285Y-94081085D02*
X153642857Y-94042990D01*
X153642857Y-94042990D02*
X153699999Y-94004895D01*
X154471428Y-94804895D02*
X154128571Y-94804895D01*
X154300000Y-94804895D02*
X154300000Y-94004895D01*
X154300000Y-94004895D02*
X154242857Y-94119180D01*
X154242857Y-94119180D02*
X154185714Y-94195371D01*
X154185714Y-94195371D02*
X154128571Y-94233466D01*
X171828571Y-104288704D02*
X171799999Y-104326800D01*
X171799999Y-104326800D02*
X171714285Y-104364895D01*
X171714285Y-104364895D02*
X171657142Y-104364895D01*
X171657142Y-104364895D02*
X171571428Y-104326800D01*
X171571428Y-104326800D02*
X171514285Y-104250609D01*
X171514285Y-104250609D02*
X171485714Y-104174419D01*
X171485714Y-104174419D02*
X171457142Y-104022038D01*
X171457142Y-104022038D02*
X171457142Y-103907752D01*
X171457142Y-103907752D02*
X171485714Y-103755371D01*
X171485714Y-103755371D02*
X171514285Y-103679180D01*
X171514285Y-103679180D02*
X171571428Y-103602990D01*
X171571428Y-103602990D02*
X171657142Y-103564895D01*
X171657142Y-103564895D02*
X171714285Y-103564895D01*
X171714285Y-103564895D02*
X171799999Y-103602990D01*
X171799999Y-103602990D02*
X171828571Y-103641085D01*
X172399999Y-104364895D02*
X172057142Y-104364895D01*
X172228571Y-104364895D02*
X172228571Y-103564895D01*
X172228571Y-103564895D02*
X172171428Y-103679180D01*
X172171428Y-103679180D02*
X172114285Y-103755371D01*
X172114285Y-103755371D02*
X172057142Y-103793466D01*
X172771428Y-103564895D02*
X172828571Y-103564895D01*
X172828571Y-103564895D02*
X172885714Y-103602990D01*
X172885714Y-103602990D02*
X172914286Y-103641085D01*
X172914286Y-103641085D02*
X172942857Y-103717276D01*
X172942857Y-103717276D02*
X172971428Y-103869657D01*
X172971428Y-103869657D02*
X172971428Y-104060133D01*
X172971428Y-104060133D02*
X172942857Y-104212514D01*
X172942857Y-104212514D02*
X172914286Y-104288704D01*
X172914286Y-104288704D02*
X172885714Y-104326800D01*
X172885714Y-104326800D02*
X172828571Y-104364895D01*
X172828571Y-104364895D02*
X172771428Y-104364895D01*
X172771428Y-104364895D02*
X172714286Y-104326800D01*
X172714286Y-104326800D02*
X172685714Y-104288704D01*
X172685714Y-104288704D02*
X172657143Y-104212514D01*
X172657143Y-104212514D02*
X172628571Y-104060133D01*
X172628571Y-104060133D02*
X172628571Y-103869657D01*
X172628571Y-103869657D02*
X172657143Y-103717276D01*
X172657143Y-103717276D02*
X172685714Y-103641085D01*
X172685714Y-103641085D02*
X172714286Y-103602990D01*
X172714286Y-103602990D02*
X172771428Y-103564895D01*
X173514286Y-103564895D02*
X173228572Y-103564895D01*
X173228572Y-103564895D02*
X173200000Y-103945847D01*
X173200000Y-103945847D02*
X173228572Y-103907752D01*
X173228572Y-103907752D02*
X173285715Y-103869657D01*
X173285715Y-103869657D02*
X173428572Y-103869657D01*
X173428572Y-103869657D02*
X173485715Y-103907752D01*
X173485715Y-103907752D02*
X173514286Y-103945847D01*
X173514286Y-103945847D02*
X173542857Y-104022038D01*
X173542857Y-104022038D02*
X173542857Y-104212514D01*
X173542857Y-104212514D02*
X173514286Y-104288704D01*
X173514286Y-104288704D02*
X173485715Y-104326800D01*
X173485715Y-104326800D02*
X173428572Y-104364895D01*
X173428572Y-104364895D02*
X173285715Y-104364895D01*
X173285715Y-104364895D02*
X173228572Y-104326800D01*
X173228572Y-104326800D02*
X173200000Y-104288704D01*
X125964895Y-97628571D02*
X126612514Y-97628571D01*
X126612514Y-97628571D02*
X126688704Y-97600000D01*
X126688704Y-97600000D02*
X126726800Y-97571429D01*
X126726800Y-97571429D02*
X126764895Y-97514286D01*
X126764895Y-97514286D02*
X126764895Y-97400000D01*
X126764895Y-97400000D02*
X126726800Y-97342857D01*
X126726800Y-97342857D02*
X126688704Y-97314286D01*
X126688704Y-97314286D02*
X126612514Y-97285714D01*
X126612514Y-97285714D02*
X125964895Y-97285714D01*
X126764895Y-96685715D02*
X126764895Y-97028572D01*
X126764895Y-96857143D02*
X125964895Y-96857143D01*
X125964895Y-96857143D02*
X126079180Y-96914286D01*
X126079180Y-96914286D02*
X126155371Y-96971429D01*
X126155371Y-96971429D02*
X126193466Y-97028572D01*
X125964895Y-96314286D02*
X125964895Y-96257143D01*
X125964895Y-96257143D02*
X126002990Y-96200000D01*
X126002990Y-96200000D02*
X126041085Y-96171429D01*
X126041085Y-96171429D02*
X126117276Y-96142857D01*
X126117276Y-96142857D02*
X126269657Y-96114286D01*
X126269657Y-96114286D02*
X126460133Y-96114286D01*
X126460133Y-96114286D02*
X126612514Y-96142857D01*
X126612514Y-96142857D02*
X126688704Y-96171429D01*
X126688704Y-96171429D02*
X126726800Y-96200000D01*
X126726800Y-96200000D02*
X126764895Y-96257143D01*
X126764895Y-96257143D02*
X126764895Y-96314286D01*
X126764895Y-96314286D02*
X126726800Y-96371429D01*
X126726800Y-96371429D02*
X126688704Y-96400000D01*
X126688704Y-96400000D02*
X126612514Y-96428571D01*
X126612514Y-96428571D02*
X126460133Y-96457143D01*
X126460133Y-96457143D02*
X126269657Y-96457143D01*
X126269657Y-96457143D02*
X126117276Y-96428571D01*
X126117276Y-96428571D02*
X126041085Y-96400000D01*
X126041085Y-96400000D02*
X126002990Y-96371429D01*
X126002990Y-96371429D02*
X125964895Y-96314286D01*
X126764895Y-95542857D02*
X126764895Y-95885714D01*
X126764895Y-95714285D02*
X125964895Y-95714285D01*
X125964895Y-95714285D02*
X126079180Y-95771428D01*
X126079180Y-95771428D02*
X126155371Y-95828571D01*
X126155371Y-95828571D02*
X126193466Y-95885714D01*
X162928571Y-99788704D02*
X162899999Y-99826800D01*
X162899999Y-99826800D02*
X162814285Y-99864895D01*
X162814285Y-99864895D02*
X162757142Y-99864895D01*
X162757142Y-99864895D02*
X162671428Y-99826800D01*
X162671428Y-99826800D02*
X162614285Y-99750609D01*
X162614285Y-99750609D02*
X162585714Y-99674419D01*
X162585714Y-99674419D02*
X162557142Y-99522038D01*
X162557142Y-99522038D02*
X162557142Y-99407752D01*
X162557142Y-99407752D02*
X162585714Y-99255371D01*
X162585714Y-99255371D02*
X162614285Y-99179180D01*
X162614285Y-99179180D02*
X162671428Y-99102990D01*
X162671428Y-99102990D02*
X162757142Y-99064895D01*
X162757142Y-99064895D02*
X162814285Y-99064895D01*
X162814285Y-99064895D02*
X162899999Y-99102990D01*
X162899999Y-99102990D02*
X162928571Y-99141085D01*
X163499999Y-99864895D02*
X163157142Y-99864895D01*
X163328571Y-99864895D02*
X163328571Y-99064895D01*
X163328571Y-99064895D02*
X163271428Y-99179180D01*
X163271428Y-99179180D02*
X163214285Y-99255371D01*
X163214285Y-99255371D02*
X163157142Y-99293466D01*
X164071428Y-99864895D02*
X163728571Y-99864895D01*
X163900000Y-99864895D02*
X163900000Y-99064895D01*
X163900000Y-99064895D02*
X163842857Y-99179180D01*
X163842857Y-99179180D02*
X163785714Y-99255371D01*
X163785714Y-99255371D02*
X163728571Y-99293466D01*
X164614286Y-99064895D02*
X164328572Y-99064895D01*
X164328572Y-99064895D02*
X164300000Y-99445847D01*
X164300000Y-99445847D02*
X164328572Y-99407752D01*
X164328572Y-99407752D02*
X164385715Y-99369657D01*
X164385715Y-99369657D02*
X164528572Y-99369657D01*
X164528572Y-99369657D02*
X164585715Y-99407752D01*
X164585715Y-99407752D02*
X164614286Y-99445847D01*
X164614286Y-99445847D02*
X164642857Y-99522038D01*
X164642857Y-99522038D02*
X164642857Y-99712514D01*
X164642857Y-99712514D02*
X164614286Y-99788704D01*
X164614286Y-99788704D02*
X164585715Y-99826800D01*
X164585715Y-99826800D02*
X164528572Y-99864895D01*
X164528572Y-99864895D02*
X164385715Y-99864895D01*
X164385715Y-99864895D02*
X164328572Y-99826800D01*
X164328572Y-99826800D02*
X164300000Y-99788704D01*
X167714895Y-94171428D02*
X167333942Y-94371428D01*
X167714895Y-94514285D02*
X166914895Y-94514285D01*
X166914895Y-94514285D02*
X166914895Y-94285714D01*
X166914895Y-94285714D02*
X166952990Y-94228571D01*
X166952990Y-94228571D02*
X166991085Y-94200000D01*
X166991085Y-94200000D02*
X167067276Y-94171428D01*
X167067276Y-94171428D02*
X167181561Y-94171428D01*
X167181561Y-94171428D02*
X167257752Y-94200000D01*
X167257752Y-94200000D02*
X167295847Y-94228571D01*
X167295847Y-94228571D02*
X167333942Y-94285714D01*
X167333942Y-94285714D02*
X167333942Y-94514285D01*
X167714895Y-93600000D02*
X167714895Y-93942857D01*
X167714895Y-93771428D02*
X166914895Y-93771428D01*
X166914895Y-93771428D02*
X167029180Y-93828571D01*
X167029180Y-93828571D02*
X167105371Y-93885714D01*
X167105371Y-93885714D02*
X167143466Y-93942857D01*
X167714895Y-93028571D02*
X167714895Y-93371428D01*
X167714895Y-93199999D02*
X166914895Y-93199999D01*
X166914895Y-93199999D02*
X167029180Y-93257142D01*
X167029180Y-93257142D02*
X167105371Y-93314285D01*
X167105371Y-93314285D02*
X167143466Y-93371428D01*
X166914895Y-92657142D02*
X166914895Y-92599999D01*
X166914895Y-92599999D02*
X166952990Y-92542856D01*
X166952990Y-92542856D02*
X166991085Y-92514285D01*
X166991085Y-92514285D02*
X167067276Y-92485713D01*
X167067276Y-92485713D02*
X167219657Y-92457142D01*
X167219657Y-92457142D02*
X167410133Y-92457142D01*
X167410133Y-92457142D02*
X167562514Y-92485713D01*
X167562514Y-92485713D02*
X167638704Y-92514285D01*
X167638704Y-92514285D02*
X167676800Y-92542856D01*
X167676800Y-92542856D02*
X167714895Y-92599999D01*
X167714895Y-92599999D02*
X167714895Y-92657142D01*
X167714895Y-92657142D02*
X167676800Y-92714285D01*
X167676800Y-92714285D02*
X167638704Y-92742856D01*
X167638704Y-92742856D02*
X167562514Y-92771427D01*
X167562514Y-92771427D02*
X167410133Y-92799999D01*
X167410133Y-92799999D02*
X167219657Y-92799999D01*
X167219657Y-92799999D02*
X167067276Y-92771427D01*
X167067276Y-92771427D02*
X166991085Y-92742856D01*
X166991085Y-92742856D02*
X166952990Y-92714285D01*
X166952990Y-92714285D02*
X166914895Y-92657142D01*
X130971428Y-89614895D02*
X130971428Y-88814895D01*
X130971428Y-89195847D02*
X131314285Y-89195847D01*
X131314285Y-89614895D02*
X131314285Y-88814895D01*
X131914284Y-89614895D02*
X131571427Y-89614895D01*
X131742856Y-89614895D02*
X131742856Y-88814895D01*
X131742856Y-88814895D02*
X131685713Y-88929180D01*
X131685713Y-88929180D02*
X131628570Y-89005371D01*
X131628570Y-89005371D02*
X131571427Y-89043466D01*
X132285713Y-88814895D02*
X132342856Y-88814895D01*
X132342856Y-88814895D02*
X132399999Y-88852990D01*
X132399999Y-88852990D02*
X132428571Y-88891085D01*
X132428571Y-88891085D02*
X132457142Y-88967276D01*
X132457142Y-88967276D02*
X132485713Y-89119657D01*
X132485713Y-89119657D02*
X132485713Y-89310133D01*
X132485713Y-89310133D02*
X132457142Y-89462514D01*
X132457142Y-89462514D02*
X132428571Y-89538704D01*
X132428571Y-89538704D02*
X132399999Y-89576800D01*
X132399999Y-89576800D02*
X132342856Y-89614895D01*
X132342856Y-89614895D02*
X132285713Y-89614895D01*
X132285713Y-89614895D02*
X132228571Y-89576800D01*
X132228571Y-89576800D02*
X132199999Y-89538704D01*
X132199999Y-89538704D02*
X132171428Y-89462514D01*
X132171428Y-89462514D02*
X132142856Y-89310133D01*
X132142856Y-89310133D02*
X132142856Y-89119657D01*
X132142856Y-89119657D02*
X132171428Y-88967276D01*
X132171428Y-88967276D02*
X132199999Y-88891085D01*
X132199999Y-88891085D02*
X132228571Y-88852990D01*
X132228571Y-88852990D02*
X132285713Y-88814895D01*
X133000000Y-89081561D02*
X133000000Y-89614895D01*
X132857142Y-88776800D02*
X132714285Y-89348228D01*
X132714285Y-89348228D02*
X133085714Y-89348228D01*
X182788704Y-91471428D02*
X182826800Y-91500000D01*
X182826800Y-91500000D02*
X182864895Y-91585714D01*
X182864895Y-91585714D02*
X182864895Y-91642857D01*
X182864895Y-91642857D02*
X182826800Y-91728571D01*
X182826800Y-91728571D02*
X182750609Y-91785714D01*
X182750609Y-91785714D02*
X182674419Y-91814285D01*
X182674419Y-91814285D02*
X182522038Y-91842857D01*
X182522038Y-91842857D02*
X182407752Y-91842857D01*
X182407752Y-91842857D02*
X182255371Y-91814285D01*
X182255371Y-91814285D02*
X182179180Y-91785714D01*
X182179180Y-91785714D02*
X182102990Y-91728571D01*
X182102990Y-91728571D02*
X182064895Y-91642857D01*
X182064895Y-91642857D02*
X182064895Y-91585714D01*
X182064895Y-91585714D02*
X182102990Y-91500000D01*
X182102990Y-91500000D02*
X182141085Y-91471428D01*
X182864895Y-90900000D02*
X182864895Y-91242857D01*
X182864895Y-91071428D02*
X182064895Y-91071428D01*
X182064895Y-91071428D02*
X182179180Y-91128571D01*
X182179180Y-91128571D02*
X182255371Y-91185714D01*
X182255371Y-91185714D02*
X182293466Y-91242857D01*
X182064895Y-90528571D02*
X182064895Y-90471428D01*
X182064895Y-90471428D02*
X182102990Y-90414285D01*
X182102990Y-90414285D02*
X182141085Y-90385714D01*
X182141085Y-90385714D02*
X182217276Y-90357142D01*
X182217276Y-90357142D02*
X182369657Y-90328571D01*
X182369657Y-90328571D02*
X182560133Y-90328571D01*
X182560133Y-90328571D02*
X182712514Y-90357142D01*
X182712514Y-90357142D02*
X182788704Y-90385714D01*
X182788704Y-90385714D02*
X182826800Y-90414285D01*
X182826800Y-90414285D02*
X182864895Y-90471428D01*
X182864895Y-90471428D02*
X182864895Y-90528571D01*
X182864895Y-90528571D02*
X182826800Y-90585714D01*
X182826800Y-90585714D02*
X182788704Y-90614285D01*
X182788704Y-90614285D02*
X182712514Y-90642856D01*
X182712514Y-90642856D02*
X182560133Y-90671428D01*
X182560133Y-90671428D02*
X182369657Y-90671428D01*
X182369657Y-90671428D02*
X182217276Y-90642856D01*
X182217276Y-90642856D02*
X182141085Y-90614285D01*
X182141085Y-90614285D02*
X182102990Y-90585714D01*
X182102990Y-90585714D02*
X182064895Y-90528571D01*
X182331561Y-89814285D02*
X182864895Y-89814285D01*
X182026800Y-89957142D02*
X182598228Y-90099999D01*
X182598228Y-90099999D02*
X182598228Y-89728570D01*
X172951071Y-114864895D02*
X172751071Y-114483942D01*
X172608214Y-114864895D02*
X172608214Y-114064895D01*
X172608214Y-114064895D02*
X172836785Y-114064895D01*
X172836785Y-114064895D02*
X172893928Y-114102990D01*
X172893928Y-114102990D02*
X172922499Y-114141085D01*
X172922499Y-114141085D02*
X172951071Y-114217276D01*
X172951071Y-114217276D02*
X172951071Y-114331561D01*
X172951071Y-114331561D02*
X172922499Y-114407752D01*
X172922499Y-114407752D02*
X172893928Y-114445847D01*
X172893928Y-114445847D02*
X172836785Y-114483942D01*
X172836785Y-114483942D02*
X172608214Y-114483942D01*
X173522499Y-114864895D02*
X173179642Y-114864895D01*
X173351071Y-114864895D02*
X173351071Y-114064895D01*
X173351071Y-114064895D02*
X173293928Y-114179180D01*
X173293928Y-114179180D02*
X173236785Y-114255371D01*
X173236785Y-114255371D02*
X173179642Y-114293466D01*
X174093928Y-114864895D02*
X173751071Y-114864895D01*
X173922500Y-114864895D02*
X173922500Y-114064895D01*
X173922500Y-114064895D02*
X173865357Y-114179180D01*
X173865357Y-114179180D02*
X173808214Y-114255371D01*
X173808214Y-114255371D02*
X173751071Y-114293466D01*
X174665357Y-114864895D02*
X174322500Y-114864895D01*
X174493929Y-114864895D02*
X174493929Y-114064895D01*
X174493929Y-114064895D02*
X174436786Y-114179180D01*
X174436786Y-114179180D02*
X174379643Y-114255371D01*
X174379643Y-114255371D02*
X174322500Y-114293466D01*
X162728571Y-85488704D02*
X162699999Y-85526800D01*
X162699999Y-85526800D02*
X162614285Y-85564895D01*
X162614285Y-85564895D02*
X162557142Y-85564895D01*
X162557142Y-85564895D02*
X162471428Y-85526800D01*
X162471428Y-85526800D02*
X162414285Y-85450609D01*
X162414285Y-85450609D02*
X162385714Y-85374419D01*
X162385714Y-85374419D02*
X162357142Y-85222038D01*
X162357142Y-85222038D02*
X162357142Y-85107752D01*
X162357142Y-85107752D02*
X162385714Y-84955371D01*
X162385714Y-84955371D02*
X162414285Y-84879180D01*
X162414285Y-84879180D02*
X162471428Y-84802990D01*
X162471428Y-84802990D02*
X162557142Y-84764895D01*
X162557142Y-84764895D02*
X162614285Y-84764895D01*
X162614285Y-84764895D02*
X162699999Y-84802990D01*
X162699999Y-84802990D02*
X162728571Y-84841085D01*
X163299999Y-85564895D02*
X162957142Y-85564895D01*
X163128571Y-85564895D02*
X163128571Y-84764895D01*
X163128571Y-84764895D02*
X163071428Y-84879180D01*
X163071428Y-84879180D02*
X163014285Y-84955371D01*
X163014285Y-84955371D02*
X162957142Y-84993466D01*
X163671428Y-84764895D02*
X163728571Y-84764895D01*
X163728571Y-84764895D02*
X163785714Y-84802990D01*
X163785714Y-84802990D02*
X163814286Y-84841085D01*
X163814286Y-84841085D02*
X163842857Y-84917276D01*
X163842857Y-84917276D02*
X163871428Y-85069657D01*
X163871428Y-85069657D02*
X163871428Y-85260133D01*
X163871428Y-85260133D02*
X163842857Y-85412514D01*
X163842857Y-85412514D02*
X163814286Y-85488704D01*
X163814286Y-85488704D02*
X163785714Y-85526800D01*
X163785714Y-85526800D02*
X163728571Y-85564895D01*
X163728571Y-85564895D02*
X163671428Y-85564895D01*
X163671428Y-85564895D02*
X163614286Y-85526800D01*
X163614286Y-85526800D02*
X163585714Y-85488704D01*
X163585714Y-85488704D02*
X163557143Y-85412514D01*
X163557143Y-85412514D02*
X163528571Y-85260133D01*
X163528571Y-85260133D02*
X163528571Y-85069657D01*
X163528571Y-85069657D02*
X163557143Y-84917276D01*
X163557143Y-84917276D02*
X163585714Y-84841085D01*
X163585714Y-84841085D02*
X163614286Y-84802990D01*
X163614286Y-84802990D02*
X163671428Y-84764895D01*
X164214286Y-85107752D02*
X164157143Y-85069657D01*
X164157143Y-85069657D02*
X164128572Y-85031561D01*
X164128572Y-85031561D02*
X164100000Y-84955371D01*
X164100000Y-84955371D02*
X164100000Y-84917276D01*
X164100000Y-84917276D02*
X164128572Y-84841085D01*
X164128572Y-84841085D02*
X164157143Y-84802990D01*
X164157143Y-84802990D02*
X164214286Y-84764895D01*
X164214286Y-84764895D02*
X164328572Y-84764895D01*
X164328572Y-84764895D02*
X164385715Y-84802990D01*
X164385715Y-84802990D02*
X164414286Y-84841085D01*
X164414286Y-84841085D02*
X164442857Y-84917276D01*
X164442857Y-84917276D02*
X164442857Y-84955371D01*
X164442857Y-84955371D02*
X164414286Y-85031561D01*
X164414286Y-85031561D02*
X164385715Y-85069657D01*
X164385715Y-85069657D02*
X164328572Y-85107752D01*
X164328572Y-85107752D02*
X164214286Y-85107752D01*
X164214286Y-85107752D02*
X164157143Y-85145847D01*
X164157143Y-85145847D02*
X164128572Y-85183942D01*
X164128572Y-85183942D02*
X164100000Y-85260133D01*
X164100000Y-85260133D02*
X164100000Y-85412514D01*
X164100000Y-85412514D02*
X164128572Y-85488704D01*
X164128572Y-85488704D02*
X164157143Y-85526800D01*
X164157143Y-85526800D02*
X164214286Y-85564895D01*
X164214286Y-85564895D02*
X164328572Y-85564895D01*
X164328572Y-85564895D02*
X164385715Y-85526800D01*
X164385715Y-85526800D02*
X164414286Y-85488704D01*
X164414286Y-85488704D02*
X164442857Y-85412514D01*
X164442857Y-85412514D02*
X164442857Y-85260133D01*
X164442857Y-85260133D02*
X164414286Y-85183942D01*
X164414286Y-85183942D02*
X164385715Y-85145847D01*
X164385715Y-85145847D02*
X164328572Y-85107752D01*
X169328571Y-115288704D02*
X169299999Y-115326800D01*
X169299999Y-115326800D02*
X169214285Y-115364895D01*
X169214285Y-115364895D02*
X169157142Y-115364895D01*
X169157142Y-115364895D02*
X169071428Y-115326800D01*
X169071428Y-115326800D02*
X169014285Y-115250609D01*
X169014285Y-115250609D02*
X168985714Y-115174419D01*
X168985714Y-115174419D02*
X168957142Y-115022038D01*
X168957142Y-115022038D02*
X168957142Y-114907752D01*
X168957142Y-114907752D02*
X168985714Y-114755371D01*
X168985714Y-114755371D02*
X169014285Y-114679180D01*
X169014285Y-114679180D02*
X169071428Y-114602990D01*
X169071428Y-114602990D02*
X169157142Y-114564895D01*
X169157142Y-114564895D02*
X169214285Y-114564895D01*
X169214285Y-114564895D02*
X169299999Y-114602990D01*
X169299999Y-114602990D02*
X169328571Y-114641085D01*
X169899999Y-115364895D02*
X169557142Y-115364895D01*
X169728571Y-115364895D02*
X169728571Y-114564895D01*
X169728571Y-114564895D02*
X169671428Y-114679180D01*
X169671428Y-114679180D02*
X169614285Y-114755371D01*
X169614285Y-114755371D02*
X169557142Y-114793466D01*
X170471428Y-115364895D02*
X170128571Y-115364895D01*
X170300000Y-115364895D02*
X170300000Y-114564895D01*
X170300000Y-114564895D02*
X170242857Y-114679180D01*
X170242857Y-114679180D02*
X170185714Y-114755371D01*
X170185714Y-114755371D02*
X170128571Y-114793466D01*
X170842857Y-114564895D02*
X170900000Y-114564895D01*
X170900000Y-114564895D02*
X170957143Y-114602990D01*
X170957143Y-114602990D02*
X170985715Y-114641085D01*
X170985715Y-114641085D02*
X171014286Y-114717276D01*
X171014286Y-114717276D02*
X171042857Y-114869657D01*
X171042857Y-114869657D02*
X171042857Y-115060133D01*
X171042857Y-115060133D02*
X171014286Y-115212514D01*
X171014286Y-115212514D02*
X170985715Y-115288704D01*
X170985715Y-115288704D02*
X170957143Y-115326800D01*
X170957143Y-115326800D02*
X170900000Y-115364895D01*
X170900000Y-115364895D02*
X170842857Y-115364895D01*
X170842857Y-115364895D02*
X170785715Y-115326800D01*
X170785715Y-115326800D02*
X170757143Y-115288704D01*
X170757143Y-115288704D02*
X170728572Y-115212514D01*
X170728572Y-115212514D02*
X170700000Y-115060133D01*
X170700000Y-115060133D02*
X170700000Y-114869657D01*
X170700000Y-114869657D02*
X170728572Y-114717276D01*
X170728572Y-114717276D02*
X170757143Y-114641085D01*
X170757143Y-114641085D02*
X170785715Y-114602990D01*
X170785715Y-114602990D02*
X170842857Y-114564895D01*
X175038704Y-102421428D02*
X175076800Y-102450000D01*
X175076800Y-102450000D02*
X175114895Y-102535714D01*
X175114895Y-102535714D02*
X175114895Y-102592857D01*
X175114895Y-102592857D02*
X175076800Y-102678571D01*
X175076800Y-102678571D02*
X175000609Y-102735714D01*
X175000609Y-102735714D02*
X174924419Y-102764285D01*
X174924419Y-102764285D02*
X174772038Y-102792857D01*
X174772038Y-102792857D02*
X174657752Y-102792857D01*
X174657752Y-102792857D02*
X174505371Y-102764285D01*
X174505371Y-102764285D02*
X174429180Y-102735714D01*
X174429180Y-102735714D02*
X174352990Y-102678571D01*
X174352990Y-102678571D02*
X174314895Y-102592857D01*
X174314895Y-102592857D02*
X174314895Y-102535714D01*
X174314895Y-102535714D02*
X174352990Y-102450000D01*
X174352990Y-102450000D02*
X174391085Y-102421428D01*
X175114895Y-101850000D02*
X175114895Y-102192857D01*
X175114895Y-102021428D02*
X174314895Y-102021428D01*
X174314895Y-102021428D02*
X174429180Y-102078571D01*
X174429180Y-102078571D02*
X174505371Y-102135714D01*
X174505371Y-102135714D02*
X174543466Y-102192857D01*
X174314895Y-101478571D02*
X174314895Y-101421428D01*
X174314895Y-101421428D02*
X174352990Y-101364285D01*
X174352990Y-101364285D02*
X174391085Y-101335714D01*
X174391085Y-101335714D02*
X174467276Y-101307142D01*
X174467276Y-101307142D02*
X174619657Y-101278571D01*
X174619657Y-101278571D02*
X174810133Y-101278571D01*
X174810133Y-101278571D02*
X174962514Y-101307142D01*
X174962514Y-101307142D02*
X175038704Y-101335714D01*
X175038704Y-101335714D02*
X175076800Y-101364285D01*
X175076800Y-101364285D02*
X175114895Y-101421428D01*
X175114895Y-101421428D02*
X175114895Y-101478571D01*
X175114895Y-101478571D02*
X175076800Y-101535714D01*
X175076800Y-101535714D02*
X175038704Y-101564285D01*
X175038704Y-101564285D02*
X174962514Y-101592856D01*
X174962514Y-101592856D02*
X174810133Y-101621428D01*
X174810133Y-101621428D02*
X174619657Y-101621428D01*
X174619657Y-101621428D02*
X174467276Y-101592856D01*
X174467276Y-101592856D02*
X174391085Y-101564285D01*
X174391085Y-101564285D02*
X174352990Y-101535714D01*
X174352990Y-101535714D02*
X174314895Y-101478571D01*
X174314895Y-101078570D02*
X174314895Y-100678570D01*
X174314895Y-100678570D02*
X175114895Y-100935713D01*
X168614895Y-84921428D02*
X168233942Y-85121428D01*
X168614895Y-85264285D02*
X167814895Y-85264285D01*
X167814895Y-85264285D02*
X167814895Y-85035714D01*
X167814895Y-85035714D02*
X167852990Y-84978571D01*
X167852990Y-84978571D02*
X167891085Y-84950000D01*
X167891085Y-84950000D02*
X167967276Y-84921428D01*
X167967276Y-84921428D02*
X168081561Y-84921428D01*
X168081561Y-84921428D02*
X168157752Y-84950000D01*
X168157752Y-84950000D02*
X168195847Y-84978571D01*
X168195847Y-84978571D02*
X168233942Y-85035714D01*
X168233942Y-85035714D02*
X168233942Y-85264285D01*
X168614895Y-84350000D02*
X168614895Y-84692857D01*
X168614895Y-84521428D02*
X167814895Y-84521428D01*
X167814895Y-84521428D02*
X167929180Y-84578571D01*
X167929180Y-84578571D02*
X168005371Y-84635714D01*
X168005371Y-84635714D02*
X168043466Y-84692857D01*
X168614895Y-83778571D02*
X168614895Y-84121428D01*
X168614895Y-83949999D02*
X167814895Y-83949999D01*
X167814895Y-83949999D02*
X167929180Y-84007142D01*
X167929180Y-84007142D02*
X168005371Y-84064285D01*
X168005371Y-84064285D02*
X168043466Y-84121428D01*
X168614895Y-83492856D02*
X168614895Y-83378570D01*
X168614895Y-83378570D02*
X168576800Y-83321427D01*
X168576800Y-83321427D02*
X168538704Y-83292856D01*
X168538704Y-83292856D02*
X168424419Y-83235713D01*
X168424419Y-83235713D02*
X168272038Y-83207142D01*
X168272038Y-83207142D02*
X167967276Y-83207142D01*
X167967276Y-83207142D02*
X167891085Y-83235713D01*
X167891085Y-83235713D02*
X167852990Y-83264285D01*
X167852990Y-83264285D02*
X167814895Y-83321427D01*
X167814895Y-83321427D02*
X167814895Y-83435713D01*
X167814895Y-83435713D02*
X167852990Y-83492856D01*
X167852990Y-83492856D02*
X167891085Y-83521427D01*
X167891085Y-83521427D02*
X167967276Y-83549999D01*
X167967276Y-83549999D02*
X168157752Y-83549999D01*
X168157752Y-83549999D02*
X168233942Y-83521427D01*
X168233942Y-83521427D02*
X168272038Y-83492856D01*
X168272038Y-83492856D02*
X168310133Y-83435713D01*
X168310133Y-83435713D02*
X168310133Y-83321427D01*
X168310133Y-83321427D02*
X168272038Y-83264285D01*
X168272038Y-83264285D02*
X168233942Y-83235713D01*
X168233942Y-83235713D02*
X168157752Y-83207142D01*
X159828571Y-83288704D02*
X159799999Y-83326800D01*
X159799999Y-83326800D02*
X159714285Y-83364895D01*
X159714285Y-83364895D02*
X159657142Y-83364895D01*
X159657142Y-83364895D02*
X159571428Y-83326800D01*
X159571428Y-83326800D02*
X159514285Y-83250609D01*
X159514285Y-83250609D02*
X159485714Y-83174419D01*
X159485714Y-83174419D02*
X159457142Y-83022038D01*
X159457142Y-83022038D02*
X159457142Y-82907752D01*
X159457142Y-82907752D02*
X159485714Y-82755371D01*
X159485714Y-82755371D02*
X159514285Y-82679180D01*
X159514285Y-82679180D02*
X159571428Y-82602990D01*
X159571428Y-82602990D02*
X159657142Y-82564895D01*
X159657142Y-82564895D02*
X159714285Y-82564895D01*
X159714285Y-82564895D02*
X159799999Y-82602990D01*
X159799999Y-82602990D02*
X159828571Y-82641085D01*
X160399999Y-83364895D02*
X160057142Y-83364895D01*
X160228571Y-83364895D02*
X160228571Y-82564895D01*
X160228571Y-82564895D02*
X160171428Y-82679180D01*
X160171428Y-82679180D02*
X160114285Y-82755371D01*
X160114285Y-82755371D02*
X160057142Y-82793466D01*
X160771428Y-82564895D02*
X160828571Y-82564895D01*
X160828571Y-82564895D02*
X160885714Y-82602990D01*
X160885714Y-82602990D02*
X160914286Y-82641085D01*
X160914286Y-82641085D02*
X160942857Y-82717276D01*
X160942857Y-82717276D02*
X160971428Y-82869657D01*
X160971428Y-82869657D02*
X160971428Y-83060133D01*
X160971428Y-83060133D02*
X160942857Y-83212514D01*
X160942857Y-83212514D02*
X160914286Y-83288704D01*
X160914286Y-83288704D02*
X160885714Y-83326800D01*
X160885714Y-83326800D02*
X160828571Y-83364895D01*
X160828571Y-83364895D02*
X160771428Y-83364895D01*
X160771428Y-83364895D02*
X160714286Y-83326800D01*
X160714286Y-83326800D02*
X160685714Y-83288704D01*
X160685714Y-83288704D02*
X160657143Y-83212514D01*
X160657143Y-83212514D02*
X160628571Y-83060133D01*
X160628571Y-83060133D02*
X160628571Y-82869657D01*
X160628571Y-82869657D02*
X160657143Y-82717276D01*
X160657143Y-82717276D02*
X160685714Y-82641085D01*
X160685714Y-82641085D02*
X160714286Y-82602990D01*
X160714286Y-82602990D02*
X160771428Y-82564895D01*
X161257143Y-83364895D02*
X161371429Y-83364895D01*
X161371429Y-83364895D02*
X161428572Y-83326800D01*
X161428572Y-83326800D02*
X161457143Y-83288704D01*
X161457143Y-83288704D02*
X161514286Y-83174419D01*
X161514286Y-83174419D02*
X161542857Y-83022038D01*
X161542857Y-83022038D02*
X161542857Y-82717276D01*
X161542857Y-82717276D02*
X161514286Y-82641085D01*
X161514286Y-82641085D02*
X161485715Y-82602990D01*
X161485715Y-82602990D02*
X161428572Y-82564895D01*
X161428572Y-82564895D02*
X161314286Y-82564895D01*
X161314286Y-82564895D02*
X161257143Y-82602990D01*
X161257143Y-82602990D02*
X161228572Y-82641085D01*
X161228572Y-82641085D02*
X161200000Y-82717276D01*
X161200000Y-82717276D02*
X161200000Y-82907752D01*
X161200000Y-82907752D02*
X161228572Y-82983942D01*
X161228572Y-82983942D02*
X161257143Y-83022038D01*
X161257143Y-83022038D02*
X161314286Y-83060133D01*
X161314286Y-83060133D02*
X161428572Y-83060133D01*
X161428572Y-83060133D02*
X161485715Y-83022038D01*
X161485715Y-83022038D02*
X161514286Y-82983942D01*
X161514286Y-82983942D02*
X161542857Y-82907752D01*
X113064895Y-100271429D02*
X113636323Y-100271429D01*
X113636323Y-100271429D02*
X113750609Y-100300000D01*
X113750609Y-100300000D02*
X113826800Y-100357143D01*
X113826800Y-100357143D02*
X113864895Y-100442857D01*
X113864895Y-100442857D02*
X113864895Y-100500000D01*
X113141085Y-100014286D02*
X113102990Y-99985714D01*
X113102990Y-99985714D02*
X113064895Y-99928572D01*
X113064895Y-99928572D02*
X113064895Y-99785714D01*
X113064895Y-99785714D02*
X113102990Y-99728572D01*
X113102990Y-99728572D02*
X113141085Y-99700000D01*
X113141085Y-99700000D02*
X113217276Y-99671429D01*
X113217276Y-99671429D02*
X113293466Y-99671429D01*
X113293466Y-99671429D02*
X113407752Y-99700000D01*
X113407752Y-99700000D02*
X113864895Y-100042857D01*
X113864895Y-100042857D02*
X113864895Y-99671429D01*
X113064895Y-99300000D02*
X113064895Y-99242857D01*
X113064895Y-99242857D02*
X113102990Y-99185714D01*
X113102990Y-99185714D02*
X113141085Y-99157143D01*
X113141085Y-99157143D02*
X113217276Y-99128571D01*
X113217276Y-99128571D02*
X113369657Y-99100000D01*
X113369657Y-99100000D02*
X113560133Y-99100000D01*
X113560133Y-99100000D02*
X113712514Y-99128571D01*
X113712514Y-99128571D02*
X113788704Y-99157143D01*
X113788704Y-99157143D02*
X113826800Y-99185714D01*
X113826800Y-99185714D02*
X113864895Y-99242857D01*
X113864895Y-99242857D02*
X113864895Y-99300000D01*
X113864895Y-99300000D02*
X113826800Y-99357143D01*
X113826800Y-99357143D02*
X113788704Y-99385714D01*
X113788704Y-99385714D02*
X113712514Y-99414285D01*
X113712514Y-99414285D02*
X113560133Y-99442857D01*
X113560133Y-99442857D02*
X113369657Y-99442857D01*
X113369657Y-99442857D02*
X113217276Y-99414285D01*
X113217276Y-99414285D02*
X113141085Y-99385714D01*
X113141085Y-99385714D02*
X113102990Y-99357143D01*
X113102990Y-99357143D02*
X113064895Y-99300000D01*
X113141085Y-98871428D02*
X113102990Y-98842856D01*
X113102990Y-98842856D02*
X113064895Y-98785714D01*
X113064895Y-98785714D02*
X113064895Y-98642856D01*
X113064895Y-98642856D02*
X113102990Y-98585714D01*
X113102990Y-98585714D02*
X113141085Y-98557142D01*
X113141085Y-98557142D02*
X113217276Y-98528571D01*
X113217276Y-98528571D02*
X113293466Y-98528571D01*
X113293466Y-98528571D02*
X113407752Y-98557142D01*
X113407752Y-98557142D02*
X113864895Y-98899999D01*
X113864895Y-98899999D02*
X113864895Y-98528571D01*
X157864895Y-95171428D02*
X157483942Y-95371428D01*
X157864895Y-95514285D02*
X157064895Y-95514285D01*
X157064895Y-95514285D02*
X157064895Y-95285714D01*
X157064895Y-95285714D02*
X157102990Y-95228571D01*
X157102990Y-95228571D02*
X157141085Y-95200000D01*
X157141085Y-95200000D02*
X157217276Y-95171428D01*
X157217276Y-95171428D02*
X157331561Y-95171428D01*
X157331561Y-95171428D02*
X157407752Y-95200000D01*
X157407752Y-95200000D02*
X157445847Y-95228571D01*
X157445847Y-95228571D02*
X157483942Y-95285714D01*
X157483942Y-95285714D02*
X157483942Y-95514285D01*
X157864895Y-94600000D02*
X157864895Y-94942857D01*
X157864895Y-94771428D02*
X157064895Y-94771428D01*
X157064895Y-94771428D02*
X157179180Y-94828571D01*
X157179180Y-94828571D02*
X157255371Y-94885714D01*
X157255371Y-94885714D02*
X157293466Y-94942857D01*
X157864895Y-94028571D02*
X157864895Y-94371428D01*
X157864895Y-94199999D02*
X157064895Y-94199999D01*
X157064895Y-94199999D02*
X157179180Y-94257142D01*
X157179180Y-94257142D02*
X157255371Y-94314285D01*
X157255371Y-94314285D02*
X157293466Y-94371428D01*
X157064895Y-93828570D02*
X157064895Y-93457142D01*
X157064895Y-93457142D02*
X157369657Y-93657142D01*
X157369657Y-93657142D02*
X157369657Y-93571427D01*
X157369657Y-93571427D02*
X157407752Y-93514285D01*
X157407752Y-93514285D02*
X157445847Y-93485713D01*
X157445847Y-93485713D02*
X157522038Y-93457142D01*
X157522038Y-93457142D02*
X157712514Y-93457142D01*
X157712514Y-93457142D02*
X157788704Y-93485713D01*
X157788704Y-93485713D02*
X157826800Y-93514285D01*
X157826800Y-93514285D02*
X157864895Y-93571427D01*
X157864895Y-93571427D02*
X157864895Y-93742856D01*
X157864895Y-93742856D02*
X157826800Y-93799999D01*
X157826800Y-93799999D02*
X157788704Y-93828570D01*
X179828571Y-105864895D02*
X179628571Y-105483942D01*
X179485714Y-105864895D02*
X179485714Y-105064895D01*
X179485714Y-105064895D02*
X179714285Y-105064895D01*
X179714285Y-105064895D02*
X179771428Y-105102990D01*
X179771428Y-105102990D02*
X179799999Y-105141085D01*
X179799999Y-105141085D02*
X179828571Y-105217276D01*
X179828571Y-105217276D02*
X179828571Y-105331561D01*
X179828571Y-105331561D02*
X179799999Y-105407752D01*
X179799999Y-105407752D02*
X179771428Y-105445847D01*
X179771428Y-105445847D02*
X179714285Y-105483942D01*
X179714285Y-105483942D02*
X179485714Y-105483942D01*
X180399999Y-105864895D02*
X180057142Y-105864895D01*
X180228571Y-105864895D02*
X180228571Y-105064895D01*
X180228571Y-105064895D02*
X180171428Y-105179180D01*
X180171428Y-105179180D02*
X180114285Y-105255371D01*
X180114285Y-105255371D02*
X180057142Y-105293466D01*
X180771428Y-105064895D02*
X180828571Y-105064895D01*
X180828571Y-105064895D02*
X180885714Y-105102990D01*
X180885714Y-105102990D02*
X180914286Y-105141085D01*
X180914286Y-105141085D02*
X180942857Y-105217276D01*
X180942857Y-105217276D02*
X180971428Y-105369657D01*
X180971428Y-105369657D02*
X180971428Y-105560133D01*
X180971428Y-105560133D02*
X180942857Y-105712514D01*
X180942857Y-105712514D02*
X180914286Y-105788704D01*
X180914286Y-105788704D02*
X180885714Y-105826800D01*
X180885714Y-105826800D02*
X180828571Y-105864895D01*
X180828571Y-105864895D02*
X180771428Y-105864895D01*
X180771428Y-105864895D02*
X180714286Y-105826800D01*
X180714286Y-105826800D02*
X180685714Y-105788704D01*
X180685714Y-105788704D02*
X180657143Y-105712514D01*
X180657143Y-105712514D02*
X180628571Y-105560133D01*
X180628571Y-105560133D02*
X180628571Y-105369657D01*
X180628571Y-105369657D02*
X180657143Y-105217276D01*
X180657143Y-105217276D02*
X180685714Y-105141085D01*
X180685714Y-105141085D02*
X180714286Y-105102990D01*
X180714286Y-105102990D02*
X180771428Y-105064895D01*
X181485715Y-105064895D02*
X181371429Y-105064895D01*
X181371429Y-105064895D02*
X181314286Y-105102990D01*
X181314286Y-105102990D02*
X181285715Y-105141085D01*
X181285715Y-105141085D02*
X181228572Y-105255371D01*
X181228572Y-105255371D02*
X181200000Y-105407752D01*
X181200000Y-105407752D02*
X181200000Y-105712514D01*
X181200000Y-105712514D02*
X181228572Y-105788704D01*
X181228572Y-105788704D02*
X181257143Y-105826800D01*
X181257143Y-105826800D02*
X181314286Y-105864895D01*
X181314286Y-105864895D02*
X181428572Y-105864895D01*
X181428572Y-105864895D02*
X181485715Y-105826800D01*
X181485715Y-105826800D02*
X181514286Y-105788704D01*
X181514286Y-105788704D02*
X181542857Y-105712514D01*
X181542857Y-105712514D02*
X181542857Y-105522038D01*
X181542857Y-105522038D02*
X181514286Y-105445847D01*
X181514286Y-105445847D02*
X181485715Y-105407752D01*
X181485715Y-105407752D02*
X181428572Y-105369657D01*
X181428572Y-105369657D02*
X181314286Y-105369657D01*
X181314286Y-105369657D02*
X181257143Y-105407752D01*
X181257143Y-105407752D02*
X181228572Y-105445847D01*
X181228572Y-105445847D02*
X181200000Y-105522038D01*
X170828571Y-86614895D02*
X170628571Y-86233942D01*
X170485714Y-86614895D02*
X170485714Y-85814895D01*
X170485714Y-85814895D02*
X170714285Y-85814895D01*
X170714285Y-85814895D02*
X170771428Y-85852990D01*
X170771428Y-85852990D02*
X170799999Y-85891085D01*
X170799999Y-85891085D02*
X170828571Y-85967276D01*
X170828571Y-85967276D02*
X170828571Y-86081561D01*
X170828571Y-86081561D02*
X170799999Y-86157752D01*
X170799999Y-86157752D02*
X170771428Y-86195847D01*
X170771428Y-86195847D02*
X170714285Y-86233942D01*
X170714285Y-86233942D02*
X170485714Y-86233942D01*
X171399999Y-86614895D02*
X171057142Y-86614895D01*
X171228571Y-86614895D02*
X171228571Y-85814895D01*
X171228571Y-85814895D02*
X171171428Y-85929180D01*
X171171428Y-85929180D02*
X171114285Y-86005371D01*
X171114285Y-86005371D02*
X171057142Y-86043466D01*
X171971428Y-86614895D02*
X171628571Y-86614895D01*
X171800000Y-86614895D02*
X171800000Y-85814895D01*
X171800000Y-85814895D02*
X171742857Y-85929180D01*
X171742857Y-85929180D02*
X171685714Y-86005371D01*
X171685714Y-86005371D02*
X171628571Y-86043466D01*
X172314286Y-86157752D02*
X172257143Y-86119657D01*
X172257143Y-86119657D02*
X172228572Y-86081561D01*
X172228572Y-86081561D02*
X172200000Y-86005371D01*
X172200000Y-86005371D02*
X172200000Y-85967276D01*
X172200000Y-85967276D02*
X172228572Y-85891085D01*
X172228572Y-85891085D02*
X172257143Y-85852990D01*
X172257143Y-85852990D02*
X172314286Y-85814895D01*
X172314286Y-85814895D02*
X172428572Y-85814895D01*
X172428572Y-85814895D02*
X172485715Y-85852990D01*
X172485715Y-85852990D02*
X172514286Y-85891085D01*
X172514286Y-85891085D02*
X172542857Y-85967276D01*
X172542857Y-85967276D02*
X172542857Y-86005371D01*
X172542857Y-86005371D02*
X172514286Y-86081561D01*
X172514286Y-86081561D02*
X172485715Y-86119657D01*
X172485715Y-86119657D02*
X172428572Y-86157752D01*
X172428572Y-86157752D02*
X172314286Y-86157752D01*
X172314286Y-86157752D02*
X172257143Y-86195847D01*
X172257143Y-86195847D02*
X172228572Y-86233942D01*
X172228572Y-86233942D02*
X172200000Y-86310133D01*
X172200000Y-86310133D02*
X172200000Y-86462514D01*
X172200000Y-86462514D02*
X172228572Y-86538704D01*
X172228572Y-86538704D02*
X172257143Y-86576800D01*
X172257143Y-86576800D02*
X172314286Y-86614895D01*
X172314286Y-86614895D02*
X172428572Y-86614895D01*
X172428572Y-86614895D02*
X172485715Y-86576800D01*
X172485715Y-86576800D02*
X172514286Y-86538704D01*
X172514286Y-86538704D02*
X172542857Y-86462514D01*
X172542857Y-86462514D02*
X172542857Y-86310133D01*
X172542857Y-86310133D02*
X172514286Y-86233942D01*
X172514286Y-86233942D02*
X172485715Y-86195847D01*
X172485715Y-86195847D02*
X172428572Y-86157752D01*
X176788704Y-83921428D02*
X176826800Y-83950000D01*
X176826800Y-83950000D02*
X176864895Y-84035714D01*
X176864895Y-84035714D02*
X176864895Y-84092857D01*
X176864895Y-84092857D02*
X176826800Y-84178571D01*
X176826800Y-84178571D02*
X176750609Y-84235714D01*
X176750609Y-84235714D02*
X176674419Y-84264285D01*
X176674419Y-84264285D02*
X176522038Y-84292857D01*
X176522038Y-84292857D02*
X176407752Y-84292857D01*
X176407752Y-84292857D02*
X176255371Y-84264285D01*
X176255371Y-84264285D02*
X176179180Y-84235714D01*
X176179180Y-84235714D02*
X176102990Y-84178571D01*
X176102990Y-84178571D02*
X176064895Y-84092857D01*
X176064895Y-84092857D02*
X176064895Y-84035714D01*
X176064895Y-84035714D02*
X176102990Y-83950000D01*
X176102990Y-83950000D02*
X176141085Y-83921428D01*
X176864895Y-83350000D02*
X176864895Y-83692857D01*
X176864895Y-83521428D02*
X176064895Y-83521428D01*
X176064895Y-83521428D02*
X176179180Y-83578571D01*
X176179180Y-83578571D02*
X176255371Y-83635714D01*
X176255371Y-83635714D02*
X176293466Y-83692857D01*
X176064895Y-82978571D02*
X176064895Y-82921428D01*
X176064895Y-82921428D02*
X176102990Y-82864285D01*
X176102990Y-82864285D02*
X176141085Y-82835714D01*
X176141085Y-82835714D02*
X176217276Y-82807142D01*
X176217276Y-82807142D02*
X176369657Y-82778571D01*
X176369657Y-82778571D02*
X176560133Y-82778571D01*
X176560133Y-82778571D02*
X176712514Y-82807142D01*
X176712514Y-82807142D02*
X176788704Y-82835714D01*
X176788704Y-82835714D02*
X176826800Y-82864285D01*
X176826800Y-82864285D02*
X176864895Y-82921428D01*
X176864895Y-82921428D02*
X176864895Y-82978571D01*
X176864895Y-82978571D02*
X176826800Y-83035714D01*
X176826800Y-83035714D02*
X176788704Y-83064285D01*
X176788704Y-83064285D02*
X176712514Y-83092856D01*
X176712514Y-83092856D02*
X176560133Y-83121428D01*
X176560133Y-83121428D02*
X176369657Y-83121428D01*
X176369657Y-83121428D02*
X176217276Y-83092856D01*
X176217276Y-83092856D02*
X176141085Y-83064285D01*
X176141085Y-83064285D02*
X176102990Y-83035714D01*
X176102990Y-83035714D02*
X176064895Y-82978571D01*
X176064895Y-82264285D02*
X176064895Y-82378570D01*
X176064895Y-82378570D02*
X176102990Y-82435713D01*
X176102990Y-82435713D02*
X176141085Y-82464285D01*
X176141085Y-82464285D02*
X176255371Y-82521427D01*
X176255371Y-82521427D02*
X176407752Y-82549999D01*
X176407752Y-82549999D02*
X176712514Y-82549999D01*
X176712514Y-82549999D02*
X176788704Y-82521427D01*
X176788704Y-82521427D02*
X176826800Y-82492856D01*
X176826800Y-82492856D02*
X176864895Y-82435713D01*
X176864895Y-82435713D02*
X176864895Y-82321427D01*
X176864895Y-82321427D02*
X176826800Y-82264285D01*
X176826800Y-82264285D02*
X176788704Y-82235713D01*
X176788704Y-82235713D02*
X176712514Y-82207142D01*
X176712514Y-82207142D02*
X176522038Y-82207142D01*
X176522038Y-82207142D02*
X176445847Y-82235713D01*
X176445847Y-82235713D02*
X176407752Y-82264285D01*
X176407752Y-82264285D02*
X176369657Y-82321427D01*
X176369657Y-82321427D02*
X176369657Y-82435713D01*
X176369657Y-82435713D02*
X176407752Y-82492856D01*
X176407752Y-82492856D02*
X176445847Y-82521427D01*
X176445847Y-82521427D02*
X176522038Y-82549999D01*
X178628571Y-86114895D02*
X178342857Y-86114895D01*
X178342857Y-86114895D02*
X178342857Y-85314895D01*
X179142856Y-86114895D02*
X178799999Y-86114895D01*
X178971428Y-86114895D02*
X178971428Y-85314895D01*
X178971428Y-85314895D02*
X178914285Y-85429180D01*
X178914285Y-85429180D02*
X178857142Y-85505371D01*
X178857142Y-85505371D02*
X178799999Y-85543466D01*
X179514285Y-85314895D02*
X179571428Y-85314895D01*
X179571428Y-85314895D02*
X179628571Y-85352990D01*
X179628571Y-85352990D02*
X179657143Y-85391085D01*
X179657143Y-85391085D02*
X179685714Y-85467276D01*
X179685714Y-85467276D02*
X179714285Y-85619657D01*
X179714285Y-85619657D02*
X179714285Y-85810133D01*
X179714285Y-85810133D02*
X179685714Y-85962514D01*
X179685714Y-85962514D02*
X179657143Y-86038704D01*
X179657143Y-86038704D02*
X179628571Y-86076800D01*
X179628571Y-86076800D02*
X179571428Y-86114895D01*
X179571428Y-86114895D02*
X179514285Y-86114895D01*
X179514285Y-86114895D02*
X179457143Y-86076800D01*
X179457143Y-86076800D02*
X179428571Y-86038704D01*
X179428571Y-86038704D02*
X179400000Y-85962514D01*
X179400000Y-85962514D02*
X179371428Y-85810133D01*
X179371428Y-85810133D02*
X179371428Y-85619657D01*
X179371428Y-85619657D02*
X179400000Y-85467276D01*
X179400000Y-85467276D02*
X179428571Y-85391085D01*
X179428571Y-85391085D02*
X179457143Y-85352990D01*
X179457143Y-85352990D02*
X179514285Y-85314895D01*
X180228572Y-85581561D02*
X180228572Y-86114895D01*
X180085714Y-85276800D02*
X179942857Y-85848228D01*
X179942857Y-85848228D02*
X180314286Y-85848228D01*
X152614895Y-86671428D02*
X152233942Y-86871428D01*
X152614895Y-87014285D02*
X151814895Y-87014285D01*
X151814895Y-87014285D02*
X151814895Y-86785714D01*
X151814895Y-86785714D02*
X151852990Y-86728571D01*
X151852990Y-86728571D02*
X151891085Y-86700000D01*
X151891085Y-86700000D02*
X151967276Y-86671428D01*
X151967276Y-86671428D02*
X152081561Y-86671428D01*
X152081561Y-86671428D02*
X152157752Y-86700000D01*
X152157752Y-86700000D02*
X152195847Y-86728571D01*
X152195847Y-86728571D02*
X152233942Y-86785714D01*
X152233942Y-86785714D02*
X152233942Y-87014285D01*
X152614895Y-86100000D02*
X152614895Y-86442857D01*
X152614895Y-86271428D02*
X151814895Y-86271428D01*
X151814895Y-86271428D02*
X151929180Y-86328571D01*
X151929180Y-86328571D02*
X152005371Y-86385714D01*
X152005371Y-86385714D02*
X152043466Y-86442857D01*
X151814895Y-85728571D02*
X151814895Y-85671428D01*
X151814895Y-85671428D02*
X151852990Y-85614285D01*
X151852990Y-85614285D02*
X151891085Y-85585714D01*
X151891085Y-85585714D02*
X151967276Y-85557142D01*
X151967276Y-85557142D02*
X152119657Y-85528571D01*
X152119657Y-85528571D02*
X152310133Y-85528571D01*
X152310133Y-85528571D02*
X152462514Y-85557142D01*
X152462514Y-85557142D02*
X152538704Y-85585714D01*
X152538704Y-85585714D02*
X152576800Y-85614285D01*
X152576800Y-85614285D02*
X152614895Y-85671428D01*
X152614895Y-85671428D02*
X152614895Y-85728571D01*
X152614895Y-85728571D02*
X152576800Y-85785714D01*
X152576800Y-85785714D02*
X152538704Y-85814285D01*
X152538704Y-85814285D02*
X152462514Y-85842856D01*
X152462514Y-85842856D02*
X152310133Y-85871428D01*
X152310133Y-85871428D02*
X152119657Y-85871428D01*
X152119657Y-85871428D02*
X151967276Y-85842856D01*
X151967276Y-85842856D02*
X151891085Y-85814285D01*
X151891085Y-85814285D02*
X151852990Y-85785714D01*
X151852990Y-85785714D02*
X151814895Y-85728571D01*
X152081561Y-85014285D02*
X152614895Y-85014285D01*
X151776800Y-85157142D02*
X152348228Y-85299999D01*
X152348228Y-85299999D02*
X152348228Y-84928570D01*
X132228570Y-93314895D02*
X132228570Y-93886323D01*
X132228570Y-93886323D02*
X132199999Y-94000609D01*
X132199999Y-94000609D02*
X132142856Y-94076800D01*
X132142856Y-94076800D02*
X132057142Y-94114895D01*
X132057142Y-94114895D02*
X131999999Y-94114895D01*
X132828570Y-94114895D02*
X132485713Y-94114895D01*
X132657142Y-94114895D02*
X132657142Y-93314895D01*
X132657142Y-93314895D02*
X132599999Y-93429180D01*
X132599999Y-93429180D02*
X132542856Y-93505371D01*
X132542856Y-93505371D02*
X132485713Y-93543466D01*
X133199999Y-93314895D02*
X133257142Y-93314895D01*
X133257142Y-93314895D02*
X133314285Y-93352990D01*
X133314285Y-93352990D02*
X133342857Y-93391085D01*
X133342857Y-93391085D02*
X133371428Y-93467276D01*
X133371428Y-93467276D02*
X133399999Y-93619657D01*
X133399999Y-93619657D02*
X133399999Y-93810133D01*
X133399999Y-93810133D02*
X133371428Y-93962514D01*
X133371428Y-93962514D02*
X133342857Y-94038704D01*
X133342857Y-94038704D02*
X133314285Y-94076800D01*
X133314285Y-94076800D02*
X133257142Y-94114895D01*
X133257142Y-94114895D02*
X133199999Y-94114895D01*
X133199999Y-94114895D02*
X133142857Y-94076800D01*
X133142857Y-94076800D02*
X133114285Y-94038704D01*
X133114285Y-94038704D02*
X133085714Y-93962514D01*
X133085714Y-93962514D02*
X133057142Y-93810133D01*
X133057142Y-93810133D02*
X133057142Y-93619657D01*
X133057142Y-93619657D02*
X133085714Y-93467276D01*
X133085714Y-93467276D02*
X133114285Y-93391085D01*
X133114285Y-93391085D02*
X133142857Y-93352990D01*
X133142857Y-93352990D02*
X133199999Y-93314895D01*
X133628571Y-93391085D02*
X133657143Y-93352990D01*
X133657143Y-93352990D02*
X133714286Y-93314895D01*
X133714286Y-93314895D02*
X133857143Y-93314895D01*
X133857143Y-93314895D02*
X133914286Y-93352990D01*
X133914286Y-93352990D02*
X133942857Y-93391085D01*
X133942857Y-93391085D02*
X133971428Y-93467276D01*
X133971428Y-93467276D02*
X133971428Y-93543466D01*
X133971428Y-93543466D02*
X133942857Y-93657752D01*
X133942857Y-93657752D02*
X133600000Y-94114895D01*
X133600000Y-94114895D02*
X133971428Y-94114895D01*
X176328571Y-91364895D02*
X176128571Y-90983942D01*
X175985714Y-91364895D02*
X175985714Y-90564895D01*
X175985714Y-90564895D02*
X176214285Y-90564895D01*
X176214285Y-90564895D02*
X176271428Y-90602990D01*
X176271428Y-90602990D02*
X176299999Y-90641085D01*
X176299999Y-90641085D02*
X176328571Y-90717276D01*
X176328571Y-90717276D02*
X176328571Y-90831561D01*
X176328571Y-90831561D02*
X176299999Y-90907752D01*
X176299999Y-90907752D02*
X176271428Y-90945847D01*
X176271428Y-90945847D02*
X176214285Y-90983942D01*
X176214285Y-90983942D02*
X175985714Y-90983942D01*
X176899999Y-91364895D02*
X176557142Y-91364895D01*
X176728571Y-91364895D02*
X176728571Y-90564895D01*
X176728571Y-90564895D02*
X176671428Y-90679180D01*
X176671428Y-90679180D02*
X176614285Y-90755371D01*
X176614285Y-90755371D02*
X176557142Y-90793466D01*
X177271428Y-90564895D02*
X177328571Y-90564895D01*
X177328571Y-90564895D02*
X177385714Y-90602990D01*
X177385714Y-90602990D02*
X177414286Y-90641085D01*
X177414286Y-90641085D02*
X177442857Y-90717276D01*
X177442857Y-90717276D02*
X177471428Y-90869657D01*
X177471428Y-90869657D02*
X177471428Y-91060133D01*
X177471428Y-91060133D02*
X177442857Y-91212514D01*
X177442857Y-91212514D02*
X177414286Y-91288704D01*
X177414286Y-91288704D02*
X177385714Y-91326800D01*
X177385714Y-91326800D02*
X177328571Y-91364895D01*
X177328571Y-91364895D02*
X177271428Y-91364895D01*
X177271428Y-91364895D02*
X177214286Y-91326800D01*
X177214286Y-91326800D02*
X177185714Y-91288704D01*
X177185714Y-91288704D02*
X177157143Y-91212514D01*
X177157143Y-91212514D02*
X177128571Y-91060133D01*
X177128571Y-91060133D02*
X177128571Y-90869657D01*
X177128571Y-90869657D02*
X177157143Y-90717276D01*
X177157143Y-90717276D02*
X177185714Y-90641085D01*
X177185714Y-90641085D02*
X177214286Y-90602990D01*
X177214286Y-90602990D02*
X177271428Y-90564895D01*
X177671429Y-90564895D02*
X178042857Y-90564895D01*
X178042857Y-90564895D02*
X177842857Y-90869657D01*
X177842857Y-90869657D02*
X177928572Y-90869657D01*
X177928572Y-90869657D02*
X177985715Y-90907752D01*
X177985715Y-90907752D02*
X178014286Y-90945847D01*
X178014286Y-90945847D02*
X178042857Y-91022038D01*
X178042857Y-91022038D02*
X178042857Y-91212514D01*
X178042857Y-91212514D02*
X178014286Y-91288704D01*
X178014286Y-91288704D02*
X177985715Y-91326800D01*
X177985715Y-91326800D02*
X177928572Y-91364895D01*
X177928572Y-91364895D02*
X177757143Y-91364895D01*
X177757143Y-91364895D02*
X177700000Y-91326800D01*
X177700000Y-91326800D02*
X177671429Y-91288704D01*
X174864895Y-91171428D02*
X174483942Y-91371428D01*
X174864895Y-91514285D02*
X174064895Y-91514285D01*
X174064895Y-91514285D02*
X174064895Y-91285714D01*
X174064895Y-91285714D02*
X174102990Y-91228571D01*
X174102990Y-91228571D02*
X174141085Y-91200000D01*
X174141085Y-91200000D02*
X174217276Y-91171428D01*
X174217276Y-91171428D02*
X174331561Y-91171428D01*
X174331561Y-91171428D02*
X174407752Y-91200000D01*
X174407752Y-91200000D02*
X174445847Y-91228571D01*
X174445847Y-91228571D02*
X174483942Y-91285714D01*
X174483942Y-91285714D02*
X174483942Y-91514285D01*
X174864895Y-90600000D02*
X174864895Y-90942857D01*
X174864895Y-90771428D02*
X174064895Y-90771428D01*
X174064895Y-90771428D02*
X174179180Y-90828571D01*
X174179180Y-90828571D02*
X174255371Y-90885714D01*
X174255371Y-90885714D02*
X174293466Y-90942857D01*
X174064895Y-90228571D02*
X174064895Y-90171428D01*
X174064895Y-90171428D02*
X174102990Y-90114285D01*
X174102990Y-90114285D02*
X174141085Y-90085714D01*
X174141085Y-90085714D02*
X174217276Y-90057142D01*
X174217276Y-90057142D02*
X174369657Y-90028571D01*
X174369657Y-90028571D02*
X174560133Y-90028571D01*
X174560133Y-90028571D02*
X174712514Y-90057142D01*
X174712514Y-90057142D02*
X174788704Y-90085714D01*
X174788704Y-90085714D02*
X174826800Y-90114285D01*
X174826800Y-90114285D02*
X174864895Y-90171428D01*
X174864895Y-90171428D02*
X174864895Y-90228571D01*
X174864895Y-90228571D02*
X174826800Y-90285714D01*
X174826800Y-90285714D02*
X174788704Y-90314285D01*
X174788704Y-90314285D02*
X174712514Y-90342856D01*
X174712514Y-90342856D02*
X174560133Y-90371428D01*
X174560133Y-90371428D02*
X174369657Y-90371428D01*
X174369657Y-90371428D02*
X174217276Y-90342856D01*
X174217276Y-90342856D02*
X174141085Y-90314285D01*
X174141085Y-90314285D02*
X174102990Y-90285714D01*
X174102990Y-90285714D02*
X174064895Y-90228571D01*
X174864895Y-89742856D02*
X174864895Y-89628570D01*
X174864895Y-89628570D02*
X174826800Y-89571427D01*
X174826800Y-89571427D02*
X174788704Y-89542856D01*
X174788704Y-89542856D02*
X174674419Y-89485713D01*
X174674419Y-89485713D02*
X174522038Y-89457142D01*
X174522038Y-89457142D02*
X174217276Y-89457142D01*
X174217276Y-89457142D02*
X174141085Y-89485713D01*
X174141085Y-89485713D02*
X174102990Y-89514285D01*
X174102990Y-89514285D02*
X174064895Y-89571427D01*
X174064895Y-89571427D02*
X174064895Y-89685713D01*
X174064895Y-89685713D02*
X174102990Y-89742856D01*
X174102990Y-89742856D02*
X174141085Y-89771427D01*
X174141085Y-89771427D02*
X174217276Y-89799999D01*
X174217276Y-89799999D02*
X174407752Y-89799999D01*
X174407752Y-89799999D02*
X174483942Y-89771427D01*
X174483942Y-89771427D02*
X174522038Y-89742856D01*
X174522038Y-89742856D02*
X174560133Y-89685713D01*
X174560133Y-89685713D02*
X174560133Y-89571427D01*
X174560133Y-89571427D02*
X174522038Y-89514285D01*
X174522038Y-89514285D02*
X174483942Y-89485713D01*
X174483942Y-89485713D02*
X174407752Y-89457142D01*
X158314895Y-90028571D02*
X158962514Y-90028571D01*
X158962514Y-90028571D02*
X159038704Y-90000000D01*
X159038704Y-90000000D02*
X159076800Y-89971429D01*
X159076800Y-89971429D02*
X159114895Y-89914286D01*
X159114895Y-89914286D02*
X159114895Y-89800000D01*
X159114895Y-89800000D02*
X159076800Y-89742857D01*
X159076800Y-89742857D02*
X159038704Y-89714286D01*
X159038704Y-89714286D02*
X158962514Y-89685714D01*
X158962514Y-89685714D02*
X158314895Y-89685714D01*
X159114895Y-89085715D02*
X159114895Y-89428572D01*
X159114895Y-89257143D02*
X158314895Y-89257143D01*
X158314895Y-89257143D02*
X158429180Y-89314286D01*
X158429180Y-89314286D02*
X158505371Y-89371429D01*
X158505371Y-89371429D02*
X158543466Y-89428572D01*
X158314895Y-88714286D02*
X158314895Y-88657143D01*
X158314895Y-88657143D02*
X158352990Y-88600000D01*
X158352990Y-88600000D02*
X158391085Y-88571429D01*
X158391085Y-88571429D02*
X158467276Y-88542857D01*
X158467276Y-88542857D02*
X158619657Y-88514286D01*
X158619657Y-88514286D02*
X158810133Y-88514286D01*
X158810133Y-88514286D02*
X158962514Y-88542857D01*
X158962514Y-88542857D02*
X159038704Y-88571429D01*
X159038704Y-88571429D02*
X159076800Y-88600000D01*
X159076800Y-88600000D02*
X159114895Y-88657143D01*
X159114895Y-88657143D02*
X159114895Y-88714286D01*
X159114895Y-88714286D02*
X159076800Y-88771429D01*
X159076800Y-88771429D02*
X159038704Y-88800000D01*
X159038704Y-88800000D02*
X158962514Y-88828571D01*
X158962514Y-88828571D02*
X158810133Y-88857143D01*
X158810133Y-88857143D02*
X158619657Y-88857143D01*
X158619657Y-88857143D02*
X158467276Y-88828571D01*
X158467276Y-88828571D02*
X158391085Y-88800000D01*
X158391085Y-88800000D02*
X158352990Y-88771429D01*
X158352990Y-88771429D02*
X158314895Y-88714286D01*
X158314895Y-88314285D02*
X158314895Y-87942857D01*
X158314895Y-87942857D02*
X158619657Y-88142857D01*
X158619657Y-88142857D02*
X158619657Y-88057142D01*
X158619657Y-88057142D02*
X158657752Y-88000000D01*
X158657752Y-88000000D02*
X158695847Y-87971428D01*
X158695847Y-87971428D02*
X158772038Y-87942857D01*
X158772038Y-87942857D02*
X158962514Y-87942857D01*
X158962514Y-87942857D02*
X159038704Y-87971428D01*
X159038704Y-87971428D02*
X159076800Y-88000000D01*
X159076800Y-88000000D02*
X159114895Y-88057142D01*
X159114895Y-88057142D02*
X159114895Y-88228571D01*
X159114895Y-88228571D02*
X159076800Y-88285714D01*
X159076800Y-88285714D02*
X159038704Y-88314285D01*
X122078571Y-96614895D02*
X121878571Y-96233942D01*
X121735714Y-96614895D02*
X121735714Y-95814895D01*
X121735714Y-95814895D02*
X121964285Y-95814895D01*
X121964285Y-95814895D02*
X122021428Y-95852990D01*
X122021428Y-95852990D02*
X122049999Y-95891085D01*
X122049999Y-95891085D02*
X122078571Y-95967276D01*
X122078571Y-95967276D02*
X122078571Y-96081561D01*
X122078571Y-96081561D02*
X122049999Y-96157752D01*
X122049999Y-96157752D02*
X122021428Y-96195847D01*
X122021428Y-96195847D02*
X121964285Y-96233942D01*
X121964285Y-96233942D02*
X121735714Y-96233942D01*
X122649999Y-96614895D02*
X122307142Y-96614895D01*
X122478571Y-96614895D02*
X122478571Y-95814895D01*
X122478571Y-95814895D02*
X122421428Y-95929180D01*
X122421428Y-95929180D02*
X122364285Y-96005371D01*
X122364285Y-96005371D02*
X122307142Y-96043466D01*
X123021428Y-95814895D02*
X123078571Y-95814895D01*
X123078571Y-95814895D02*
X123135714Y-95852990D01*
X123135714Y-95852990D02*
X123164286Y-95891085D01*
X123164286Y-95891085D02*
X123192857Y-95967276D01*
X123192857Y-95967276D02*
X123221428Y-96119657D01*
X123221428Y-96119657D02*
X123221428Y-96310133D01*
X123221428Y-96310133D02*
X123192857Y-96462514D01*
X123192857Y-96462514D02*
X123164286Y-96538704D01*
X123164286Y-96538704D02*
X123135714Y-96576800D01*
X123135714Y-96576800D02*
X123078571Y-96614895D01*
X123078571Y-96614895D02*
X123021428Y-96614895D01*
X123021428Y-96614895D02*
X122964286Y-96576800D01*
X122964286Y-96576800D02*
X122935714Y-96538704D01*
X122935714Y-96538704D02*
X122907143Y-96462514D01*
X122907143Y-96462514D02*
X122878571Y-96310133D01*
X122878571Y-96310133D02*
X122878571Y-96119657D01*
X122878571Y-96119657D02*
X122907143Y-95967276D01*
X122907143Y-95967276D02*
X122935714Y-95891085D01*
X122935714Y-95891085D02*
X122964286Y-95852990D01*
X122964286Y-95852990D02*
X123021428Y-95814895D01*
X123792857Y-96614895D02*
X123450000Y-96614895D01*
X123621429Y-96614895D02*
X123621429Y-95814895D01*
X123621429Y-95814895D02*
X123564286Y-95929180D01*
X123564286Y-95929180D02*
X123507143Y-96005371D01*
X123507143Y-96005371D02*
X123450000Y-96043466D01*
X174038704Y-85421428D02*
X174076800Y-85450000D01*
X174076800Y-85450000D02*
X174114895Y-85535714D01*
X174114895Y-85535714D02*
X174114895Y-85592857D01*
X174114895Y-85592857D02*
X174076800Y-85678571D01*
X174076800Y-85678571D02*
X174000609Y-85735714D01*
X174000609Y-85735714D02*
X173924419Y-85764285D01*
X173924419Y-85764285D02*
X173772038Y-85792857D01*
X173772038Y-85792857D02*
X173657752Y-85792857D01*
X173657752Y-85792857D02*
X173505371Y-85764285D01*
X173505371Y-85764285D02*
X173429180Y-85735714D01*
X173429180Y-85735714D02*
X173352990Y-85678571D01*
X173352990Y-85678571D02*
X173314895Y-85592857D01*
X173314895Y-85592857D02*
X173314895Y-85535714D01*
X173314895Y-85535714D02*
X173352990Y-85450000D01*
X173352990Y-85450000D02*
X173391085Y-85421428D01*
X174114895Y-84850000D02*
X174114895Y-85192857D01*
X174114895Y-85021428D02*
X173314895Y-85021428D01*
X173314895Y-85021428D02*
X173429180Y-85078571D01*
X173429180Y-85078571D02*
X173505371Y-85135714D01*
X173505371Y-85135714D02*
X173543466Y-85192857D01*
X174114895Y-84278571D02*
X174114895Y-84621428D01*
X174114895Y-84449999D02*
X173314895Y-84449999D01*
X173314895Y-84449999D02*
X173429180Y-84507142D01*
X173429180Y-84507142D02*
X173505371Y-84564285D01*
X173505371Y-84564285D02*
X173543466Y-84621428D01*
X173657752Y-83935713D02*
X173619657Y-83992856D01*
X173619657Y-83992856D02*
X173581561Y-84021427D01*
X173581561Y-84021427D02*
X173505371Y-84049999D01*
X173505371Y-84049999D02*
X173467276Y-84049999D01*
X173467276Y-84049999D02*
X173391085Y-84021427D01*
X173391085Y-84021427D02*
X173352990Y-83992856D01*
X173352990Y-83992856D02*
X173314895Y-83935713D01*
X173314895Y-83935713D02*
X173314895Y-83821427D01*
X173314895Y-83821427D02*
X173352990Y-83764285D01*
X173352990Y-83764285D02*
X173391085Y-83735713D01*
X173391085Y-83735713D02*
X173467276Y-83707142D01*
X173467276Y-83707142D02*
X173505371Y-83707142D01*
X173505371Y-83707142D02*
X173581561Y-83735713D01*
X173581561Y-83735713D02*
X173619657Y-83764285D01*
X173619657Y-83764285D02*
X173657752Y-83821427D01*
X173657752Y-83821427D02*
X173657752Y-83935713D01*
X173657752Y-83935713D02*
X173695847Y-83992856D01*
X173695847Y-83992856D02*
X173733942Y-84021427D01*
X173733942Y-84021427D02*
X173810133Y-84049999D01*
X173810133Y-84049999D02*
X173962514Y-84049999D01*
X173962514Y-84049999D02*
X174038704Y-84021427D01*
X174038704Y-84021427D02*
X174076800Y-83992856D01*
X174076800Y-83992856D02*
X174114895Y-83935713D01*
X174114895Y-83935713D02*
X174114895Y-83821427D01*
X174114895Y-83821427D02*
X174076800Y-83764285D01*
X174076800Y-83764285D02*
X174038704Y-83735713D01*
X174038704Y-83735713D02*
X173962514Y-83707142D01*
X173962514Y-83707142D02*
X173810133Y-83707142D01*
X173810133Y-83707142D02*
X173733942Y-83735713D01*
X173733942Y-83735713D02*
X173695847Y-83764285D01*
X173695847Y-83764285D02*
X173657752Y-83821427D01*
X159828571Y-102788704D02*
X159799999Y-102826800D01*
X159799999Y-102826800D02*
X159714285Y-102864895D01*
X159714285Y-102864895D02*
X159657142Y-102864895D01*
X159657142Y-102864895D02*
X159571428Y-102826800D01*
X159571428Y-102826800D02*
X159514285Y-102750609D01*
X159514285Y-102750609D02*
X159485714Y-102674419D01*
X159485714Y-102674419D02*
X159457142Y-102522038D01*
X159457142Y-102522038D02*
X159457142Y-102407752D01*
X159457142Y-102407752D02*
X159485714Y-102255371D01*
X159485714Y-102255371D02*
X159514285Y-102179180D01*
X159514285Y-102179180D02*
X159571428Y-102102990D01*
X159571428Y-102102990D02*
X159657142Y-102064895D01*
X159657142Y-102064895D02*
X159714285Y-102064895D01*
X159714285Y-102064895D02*
X159799999Y-102102990D01*
X159799999Y-102102990D02*
X159828571Y-102141085D01*
X160399999Y-102864895D02*
X160057142Y-102864895D01*
X160228571Y-102864895D02*
X160228571Y-102064895D01*
X160228571Y-102064895D02*
X160171428Y-102179180D01*
X160171428Y-102179180D02*
X160114285Y-102255371D01*
X160114285Y-102255371D02*
X160057142Y-102293466D01*
X160971428Y-102864895D02*
X160628571Y-102864895D01*
X160800000Y-102864895D02*
X160800000Y-102064895D01*
X160800000Y-102064895D02*
X160742857Y-102179180D01*
X160742857Y-102179180D02*
X160685714Y-102255371D01*
X160685714Y-102255371D02*
X160628571Y-102293466D01*
X161485715Y-102331561D02*
X161485715Y-102864895D01*
X161342857Y-102026800D02*
X161200000Y-102598228D01*
X161200000Y-102598228D02*
X161571429Y-102598228D01*
X166938704Y-96921428D02*
X166976800Y-96950000D01*
X166976800Y-96950000D02*
X167014895Y-97035714D01*
X167014895Y-97035714D02*
X167014895Y-97092857D01*
X167014895Y-97092857D02*
X166976800Y-97178571D01*
X166976800Y-97178571D02*
X166900609Y-97235714D01*
X166900609Y-97235714D02*
X166824419Y-97264285D01*
X166824419Y-97264285D02*
X166672038Y-97292857D01*
X166672038Y-97292857D02*
X166557752Y-97292857D01*
X166557752Y-97292857D02*
X166405371Y-97264285D01*
X166405371Y-97264285D02*
X166329180Y-97235714D01*
X166329180Y-97235714D02*
X166252990Y-97178571D01*
X166252990Y-97178571D02*
X166214895Y-97092857D01*
X166214895Y-97092857D02*
X166214895Y-97035714D01*
X166214895Y-97035714D02*
X166252990Y-96950000D01*
X166252990Y-96950000D02*
X166291085Y-96921428D01*
X167014895Y-96350000D02*
X167014895Y-96692857D01*
X167014895Y-96521428D02*
X166214895Y-96521428D01*
X166214895Y-96521428D02*
X166329180Y-96578571D01*
X166329180Y-96578571D02*
X166405371Y-96635714D01*
X166405371Y-96635714D02*
X166443466Y-96692857D01*
X167014895Y-95778571D02*
X167014895Y-96121428D01*
X167014895Y-95949999D02*
X166214895Y-95949999D01*
X166214895Y-95949999D02*
X166329180Y-96007142D01*
X166329180Y-96007142D02*
X166405371Y-96064285D01*
X166405371Y-96064285D02*
X166443466Y-96121428D01*
X166214895Y-95264285D02*
X166214895Y-95378570D01*
X166214895Y-95378570D02*
X166252990Y-95435713D01*
X166252990Y-95435713D02*
X166291085Y-95464285D01*
X166291085Y-95464285D02*
X166405371Y-95521427D01*
X166405371Y-95521427D02*
X166557752Y-95549999D01*
X166557752Y-95549999D02*
X166862514Y-95549999D01*
X166862514Y-95549999D02*
X166938704Y-95521427D01*
X166938704Y-95521427D02*
X166976800Y-95492856D01*
X166976800Y-95492856D02*
X167014895Y-95435713D01*
X167014895Y-95435713D02*
X167014895Y-95321427D01*
X167014895Y-95321427D02*
X166976800Y-95264285D01*
X166976800Y-95264285D02*
X166938704Y-95235713D01*
X166938704Y-95235713D02*
X166862514Y-95207142D01*
X166862514Y-95207142D02*
X166672038Y-95207142D01*
X166672038Y-95207142D02*
X166595847Y-95235713D01*
X166595847Y-95235713D02*
X166557752Y-95264285D01*
X166557752Y-95264285D02*
X166519657Y-95321427D01*
X166519657Y-95321427D02*
X166519657Y-95435713D01*
X166519657Y-95435713D02*
X166557752Y-95492856D01*
X166557752Y-95492856D02*
X166595847Y-95521427D01*
X166595847Y-95521427D02*
X166672038Y-95549999D01*
X121328571Y-92864895D02*
X121042857Y-92864895D01*
X121042857Y-92864895D02*
X121042857Y-92064895D01*
X121842856Y-92864895D02*
X121499999Y-92864895D01*
X121671428Y-92864895D02*
X121671428Y-92064895D01*
X121671428Y-92064895D02*
X121614285Y-92179180D01*
X121614285Y-92179180D02*
X121557142Y-92255371D01*
X121557142Y-92255371D02*
X121499999Y-92293466D01*
X122214285Y-92064895D02*
X122271428Y-92064895D01*
X122271428Y-92064895D02*
X122328571Y-92102990D01*
X122328571Y-92102990D02*
X122357143Y-92141085D01*
X122357143Y-92141085D02*
X122385714Y-92217276D01*
X122385714Y-92217276D02*
X122414285Y-92369657D01*
X122414285Y-92369657D02*
X122414285Y-92560133D01*
X122414285Y-92560133D02*
X122385714Y-92712514D01*
X122385714Y-92712514D02*
X122357143Y-92788704D01*
X122357143Y-92788704D02*
X122328571Y-92826800D01*
X122328571Y-92826800D02*
X122271428Y-92864895D01*
X122271428Y-92864895D02*
X122214285Y-92864895D01*
X122214285Y-92864895D02*
X122157143Y-92826800D01*
X122157143Y-92826800D02*
X122128571Y-92788704D01*
X122128571Y-92788704D02*
X122100000Y-92712514D01*
X122100000Y-92712514D02*
X122071428Y-92560133D01*
X122071428Y-92560133D02*
X122071428Y-92369657D01*
X122071428Y-92369657D02*
X122100000Y-92217276D01*
X122100000Y-92217276D02*
X122128571Y-92141085D01*
X122128571Y-92141085D02*
X122157143Y-92102990D01*
X122157143Y-92102990D02*
X122214285Y-92064895D01*
X122642857Y-92141085D02*
X122671429Y-92102990D01*
X122671429Y-92102990D02*
X122728572Y-92064895D01*
X122728572Y-92064895D02*
X122871429Y-92064895D01*
X122871429Y-92064895D02*
X122928572Y-92102990D01*
X122928572Y-92102990D02*
X122957143Y-92141085D01*
X122957143Y-92141085D02*
X122985714Y-92217276D01*
X122985714Y-92217276D02*
X122985714Y-92293466D01*
X122985714Y-92293466D02*
X122957143Y-92407752D01*
X122957143Y-92407752D02*
X122614286Y-92864895D01*
X122614286Y-92864895D02*
X122985714Y-92864895D01*
X155328571Y-85864895D02*
X155128571Y-85483942D01*
X154985714Y-85864895D02*
X154985714Y-85064895D01*
X154985714Y-85064895D02*
X155214285Y-85064895D01*
X155214285Y-85064895D02*
X155271428Y-85102990D01*
X155271428Y-85102990D02*
X155299999Y-85141085D01*
X155299999Y-85141085D02*
X155328571Y-85217276D01*
X155328571Y-85217276D02*
X155328571Y-85331561D01*
X155328571Y-85331561D02*
X155299999Y-85407752D01*
X155299999Y-85407752D02*
X155271428Y-85445847D01*
X155271428Y-85445847D02*
X155214285Y-85483942D01*
X155214285Y-85483942D02*
X154985714Y-85483942D01*
X155899999Y-85864895D02*
X155557142Y-85864895D01*
X155728571Y-85864895D02*
X155728571Y-85064895D01*
X155728571Y-85064895D02*
X155671428Y-85179180D01*
X155671428Y-85179180D02*
X155614285Y-85255371D01*
X155614285Y-85255371D02*
X155557142Y-85293466D01*
X156471428Y-85864895D02*
X156128571Y-85864895D01*
X156300000Y-85864895D02*
X156300000Y-85064895D01*
X156300000Y-85064895D02*
X156242857Y-85179180D01*
X156242857Y-85179180D02*
X156185714Y-85255371D01*
X156185714Y-85255371D02*
X156128571Y-85293466D01*
X157014286Y-85064895D02*
X156728572Y-85064895D01*
X156728572Y-85064895D02*
X156700000Y-85445847D01*
X156700000Y-85445847D02*
X156728572Y-85407752D01*
X156728572Y-85407752D02*
X156785715Y-85369657D01*
X156785715Y-85369657D02*
X156928572Y-85369657D01*
X156928572Y-85369657D02*
X156985715Y-85407752D01*
X156985715Y-85407752D02*
X157014286Y-85445847D01*
X157014286Y-85445847D02*
X157042857Y-85522038D01*
X157042857Y-85522038D02*
X157042857Y-85712514D01*
X157042857Y-85712514D02*
X157014286Y-85788704D01*
X157014286Y-85788704D02*
X156985715Y-85826800D01*
X156985715Y-85826800D02*
X156928572Y-85864895D01*
X156928572Y-85864895D02*
X156785715Y-85864895D01*
X156785715Y-85864895D02*
X156728572Y-85826800D01*
X156728572Y-85826800D02*
X156700000Y-85788704D01*
X176721428Y-112564895D02*
X176721428Y-113212514D01*
X176721428Y-113212514D02*
X176749999Y-113288704D01*
X176749999Y-113288704D02*
X176778571Y-113326800D01*
X176778571Y-113326800D02*
X176835713Y-113364895D01*
X176835713Y-113364895D02*
X176949999Y-113364895D01*
X176949999Y-113364895D02*
X177007142Y-113326800D01*
X177007142Y-113326800D02*
X177035713Y-113288704D01*
X177035713Y-113288704D02*
X177064285Y-113212514D01*
X177064285Y-113212514D02*
X177064285Y-112564895D01*
X177664284Y-113364895D02*
X177321427Y-113364895D01*
X177492856Y-113364895D02*
X177492856Y-112564895D01*
X177492856Y-112564895D02*
X177435713Y-112679180D01*
X177435713Y-112679180D02*
X177378570Y-112755371D01*
X177378570Y-112755371D02*
X177321427Y-112793466D01*
X178035713Y-112564895D02*
X178092856Y-112564895D01*
X178092856Y-112564895D02*
X178149999Y-112602990D01*
X178149999Y-112602990D02*
X178178571Y-112641085D01*
X178178571Y-112641085D02*
X178207142Y-112717276D01*
X178207142Y-112717276D02*
X178235713Y-112869657D01*
X178235713Y-112869657D02*
X178235713Y-113060133D01*
X178235713Y-113060133D02*
X178207142Y-113212514D01*
X178207142Y-113212514D02*
X178178571Y-113288704D01*
X178178571Y-113288704D02*
X178149999Y-113326800D01*
X178149999Y-113326800D02*
X178092856Y-113364895D01*
X178092856Y-113364895D02*
X178035713Y-113364895D01*
X178035713Y-113364895D02*
X177978571Y-113326800D01*
X177978571Y-113326800D02*
X177949999Y-113288704D01*
X177949999Y-113288704D02*
X177921428Y-113212514D01*
X177921428Y-113212514D02*
X177892856Y-113060133D01*
X177892856Y-113060133D02*
X177892856Y-112869657D01*
X177892856Y-112869657D02*
X177921428Y-112717276D01*
X177921428Y-112717276D02*
X177949999Y-112641085D01*
X177949999Y-112641085D02*
X177978571Y-112602990D01*
X177978571Y-112602990D02*
X178035713Y-112564895D01*
X178750000Y-112564895D02*
X178635714Y-112564895D01*
X178635714Y-112564895D02*
X178578571Y-112602990D01*
X178578571Y-112602990D02*
X178550000Y-112641085D01*
X178550000Y-112641085D02*
X178492857Y-112755371D01*
X178492857Y-112755371D02*
X178464285Y-112907752D01*
X178464285Y-112907752D02*
X178464285Y-113212514D01*
X178464285Y-113212514D02*
X178492857Y-113288704D01*
X178492857Y-113288704D02*
X178521428Y-113326800D01*
X178521428Y-113326800D02*
X178578571Y-113364895D01*
X178578571Y-113364895D02*
X178692857Y-113364895D01*
X178692857Y-113364895D02*
X178750000Y-113326800D01*
X178750000Y-113326800D02*
X178778571Y-113288704D01*
X178778571Y-113288704D02*
X178807142Y-113212514D01*
X178807142Y-113212514D02*
X178807142Y-113022038D01*
X178807142Y-113022038D02*
X178778571Y-112945847D01*
X178778571Y-112945847D02*
X178750000Y-112907752D01*
X178750000Y-112907752D02*
X178692857Y-112869657D01*
X178692857Y-112869657D02*
X178578571Y-112869657D01*
X178578571Y-112869657D02*
X178521428Y-112907752D01*
X178521428Y-112907752D02*
X178492857Y-112945847D01*
X178492857Y-112945847D02*
X178464285Y-113022038D01*
X168864895Y-88421428D02*
X168483942Y-88621428D01*
X168864895Y-88764285D02*
X168064895Y-88764285D01*
X168064895Y-88764285D02*
X168064895Y-88535714D01*
X168064895Y-88535714D02*
X168102990Y-88478571D01*
X168102990Y-88478571D02*
X168141085Y-88450000D01*
X168141085Y-88450000D02*
X168217276Y-88421428D01*
X168217276Y-88421428D02*
X168331561Y-88421428D01*
X168331561Y-88421428D02*
X168407752Y-88450000D01*
X168407752Y-88450000D02*
X168445847Y-88478571D01*
X168445847Y-88478571D02*
X168483942Y-88535714D01*
X168483942Y-88535714D02*
X168483942Y-88764285D01*
X168864895Y-87850000D02*
X168864895Y-88192857D01*
X168864895Y-88021428D02*
X168064895Y-88021428D01*
X168064895Y-88021428D02*
X168179180Y-88078571D01*
X168179180Y-88078571D02*
X168255371Y-88135714D01*
X168255371Y-88135714D02*
X168293466Y-88192857D01*
X168064895Y-87478571D02*
X168064895Y-87421428D01*
X168064895Y-87421428D02*
X168102990Y-87364285D01*
X168102990Y-87364285D02*
X168141085Y-87335714D01*
X168141085Y-87335714D02*
X168217276Y-87307142D01*
X168217276Y-87307142D02*
X168369657Y-87278571D01*
X168369657Y-87278571D02*
X168560133Y-87278571D01*
X168560133Y-87278571D02*
X168712514Y-87307142D01*
X168712514Y-87307142D02*
X168788704Y-87335714D01*
X168788704Y-87335714D02*
X168826800Y-87364285D01*
X168826800Y-87364285D02*
X168864895Y-87421428D01*
X168864895Y-87421428D02*
X168864895Y-87478571D01*
X168864895Y-87478571D02*
X168826800Y-87535714D01*
X168826800Y-87535714D02*
X168788704Y-87564285D01*
X168788704Y-87564285D02*
X168712514Y-87592856D01*
X168712514Y-87592856D02*
X168560133Y-87621428D01*
X168560133Y-87621428D02*
X168369657Y-87621428D01*
X168369657Y-87621428D02*
X168217276Y-87592856D01*
X168217276Y-87592856D02*
X168141085Y-87564285D01*
X168141085Y-87564285D02*
X168102990Y-87535714D01*
X168102990Y-87535714D02*
X168064895Y-87478571D01*
X168407752Y-86935713D02*
X168369657Y-86992856D01*
X168369657Y-86992856D02*
X168331561Y-87021427D01*
X168331561Y-87021427D02*
X168255371Y-87049999D01*
X168255371Y-87049999D02*
X168217276Y-87049999D01*
X168217276Y-87049999D02*
X168141085Y-87021427D01*
X168141085Y-87021427D02*
X168102990Y-86992856D01*
X168102990Y-86992856D02*
X168064895Y-86935713D01*
X168064895Y-86935713D02*
X168064895Y-86821427D01*
X168064895Y-86821427D02*
X168102990Y-86764285D01*
X168102990Y-86764285D02*
X168141085Y-86735713D01*
X168141085Y-86735713D02*
X168217276Y-86707142D01*
X168217276Y-86707142D02*
X168255371Y-86707142D01*
X168255371Y-86707142D02*
X168331561Y-86735713D01*
X168331561Y-86735713D02*
X168369657Y-86764285D01*
X168369657Y-86764285D02*
X168407752Y-86821427D01*
X168407752Y-86821427D02*
X168407752Y-86935713D01*
X168407752Y-86935713D02*
X168445847Y-86992856D01*
X168445847Y-86992856D02*
X168483942Y-87021427D01*
X168483942Y-87021427D02*
X168560133Y-87049999D01*
X168560133Y-87049999D02*
X168712514Y-87049999D01*
X168712514Y-87049999D02*
X168788704Y-87021427D01*
X168788704Y-87021427D02*
X168826800Y-86992856D01*
X168826800Y-86992856D02*
X168864895Y-86935713D01*
X168864895Y-86935713D02*
X168864895Y-86821427D01*
X168864895Y-86821427D02*
X168826800Y-86764285D01*
X168826800Y-86764285D02*
X168788704Y-86735713D01*
X168788704Y-86735713D02*
X168712514Y-86707142D01*
X168712514Y-86707142D02*
X168560133Y-86707142D01*
X168560133Y-86707142D02*
X168483942Y-86735713D01*
X168483942Y-86735713D02*
X168445847Y-86764285D01*
X168445847Y-86764285D02*
X168407752Y-86821427D01*
X184788704Y-91421428D02*
X184826800Y-91450000D01*
X184826800Y-91450000D02*
X184864895Y-91535714D01*
X184864895Y-91535714D02*
X184864895Y-91592857D01*
X184864895Y-91592857D02*
X184826800Y-91678571D01*
X184826800Y-91678571D02*
X184750609Y-91735714D01*
X184750609Y-91735714D02*
X184674419Y-91764285D01*
X184674419Y-91764285D02*
X184522038Y-91792857D01*
X184522038Y-91792857D02*
X184407752Y-91792857D01*
X184407752Y-91792857D02*
X184255371Y-91764285D01*
X184255371Y-91764285D02*
X184179180Y-91735714D01*
X184179180Y-91735714D02*
X184102990Y-91678571D01*
X184102990Y-91678571D02*
X184064895Y-91592857D01*
X184064895Y-91592857D02*
X184064895Y-91535714D01*
X184064895Y-91535714D02*
X184102990Y-91450000D01*
X184102990Y-91450000D02*
X184141085Y-91421428D01*
X184864895Y-90850000D02*
X184864895Y-91192857D01*
X184864895Y-91021428D02*
X184064895Y-91021428D01*
X184064895Y-91021428D02*
X184179180Y-91078571D01*
X184179180Y-91078571D02*
X184255371Y-91135714D01*
X184255371Y-91135714D02*
X184293466Y-91192857D01*
X184064895Y-90478571D02*
X184064895Y-90421428D01*
X184064895Y-90421428D02*
X184102990Y-90364285D01*
X184102990Y-90364285D02*
X184141085Y-90335714D01*
X184141085Y-90335714D02*
X184217276Y-90307142D01*
X184217276Y-90307142D02*
X184369657Y-90278571D01*
X184369657Y-90278571D02*
X184560133Y-90278571D01*
X184560133Y-90278571D02*
X184712514Y-90307142D01*
X184712514Y-90307142D02*
X184788704Y-90335714D01*
X184788704Y-90335714D02*
X184826800Y-90364285D01*
X184826800Y-90364285D02*
X184864895Y-90421428D01*
X184864895Y-90421428D02*
X184864895Y-90478571D01*
X184864895Y-90478571D02*
X184826800Y-90535714D01*
X184826800Y-90535714D02*
X184788704Y-90564285D01*
X184788704Y-90564285D02*
X184712514Y-90592856D01*
X184712514Y-90592856D02*
X184560133Y-90621428D01*
X184560133Y-90621428D02*
X184369657Y-90621428D01*
X184369657Y-90621428D02*
X184217276Y-90592856D01*
X184217276Y-90592856D02*
X184141085Y-90564285D01*
X184141085Y-90564285D02*
X184102990Y-90535714D01*
X184102990Y-90535714D02*
X184064895Y-90478571D01*
X184864895Y-89707142D02*
X184864895Y-90049999D01*
X184864895Y-89878570D02*
X184064895Y-89878570D01*
X184064895Y-89878570D02*
X184179180Y-89935713D01*
X184179180Y-89935713D02*
X184255371Y-89992856D01*
X184255371Y-89992856D02*
X184293466Y-90049999D01*
X168464895Y-97207142D02*
X169112514Y-97207142D01*
X169112514Y-97207142D02*
X169188704Y-97178571D01*
X169188704Y-97178571D02*
X169226800Y-97150000D01*
X169226800Y-97150000D02*
X169264895Y-97092857D01*
X169264895Y-97092857D02*
X169264895Y-96978571D01*
X169264895Y-96978571D02*
X169226800Y-96921428D01*
X169226800Y-96921428D02*
X169188704Y-96892857D01*
X169188704Y-96892857D02*
X169112514Y-96864285D01*
X169112514Y-96864285D02*
X168464895Y-96864285D01*
X169264895Y-96264286D02*
X169264895Y-96607143D01*
X169264895Y-96435714D02*
X168464895Y-96435714D01*
X168464895Y-96435714D02*
X168579180Y-96492857D01*
X168579180Y-96492857D02*
X168655371Y-96550000D01*
X168655371Y-96550000D02*
X168693466Y-96607143D01*
X160578571Y-96788704D02*
X160549999Y-96826800D01*
X160549999Y-96826800D02*
X160464285Y-96864895D01*
X160464285Y-96864895D02*
X160407142Y-96864895D01*
X160407142Y-96864895D02*
X160321428Y-96826800D01*
X160321428Y-96826800D02*
X160264285Y-96750609D01*
X160264285Y-96750609D02*
X160235714Y-96674419D01*
X160235714Y-96674419D02*
X160207142Y-96522038D01*
X160207142Y-96522038D02*
X160207142Y-96407752D01*
X160207142Y-96407752D02*
X160235714Y-96255371D01*
X160235714Y-96255371D02*
X160264285Y-96179180D01*
X160264285Y-96179180D02*
X160321428Y-96102990D01*
X160321428Y-96102990D02*
X160407142Y-96064895D01*
X160407142Y-96064895D02*
X160464285Y-96064895D01*
X160464285Y-96064895D02*
X160549999Y-96102990D01*
X160549999Y-96102990D02*
X160578571Y-96141085D01*
X161149999Y-96864895D02*
X160807142Y-96864895D01*
X160978571Y-96864895D02*
X160978571Y-96064895D01*
X160978571Y-96064895D02*
X160921428Y-96179180D01*
X160921428Y-96179180D02*
X160864285Y-96255371D01*
X160864285Y-96255371D02*
X160807142Y-96293466D01*
X161721428Y-96864895D02*
X161378571Y-96864895D01*
X161550000Y-96864895D02*
X161550000Y-96064895D01*
X161550000Y-96064895D02*
X161492857Y-96179180D01*
X161492857Y-96179180D02*
X161435714Y-96255371D01*
X161435714Y-96255371D02*
X161378571Y-96293466D01*
X162292857Y-96864895D02*
X161950000Y-96864895D01*
X162121429Y-96864895D02*
X162121429Y-96064895D01*
X162121429Y-96064895D02*
X162064286Y-96179180D01*
X162064286Y-96179180D02*
X162007143Y-96255371D01*
X162007143Y-96255371D02*
X161950000Y-96293466D01*
X125985714Y-98945847D02*
X125785714Y-98945847D01*
X125785714Y-99364895D02*
X125785714Y-98564895D01*
X125785714Y-98564895D02*
X126071428Y-98564895D01*
X126585714Y-99364895D02*
X126300000Y-99364895D01*
X126300000Y-99364895D02*
X126300000Y-98564895D01*
X127099999Y-99364895D02*
X126757142Y-99364895D01*
X126928571Y-99364895D02*
X126928571Y-98564895D01*
X126928571Y-98564895D02*
X126871428Y-98679180D01*
X126871428Y-98679180D02*
X126814285Y-98755371D01*
X126814285Y-98755371D02*
X126757142Y-98793466D01*
X127471428Y-98564895D02*
X127528571Y-98564895D01*
X127528571Y-98564895D02*
X127585714Y-98602990D01*
X127585714Y-98602990D02*
X127614286Y-98641085D01*
X127614286Y-98641085D02*
X127642857Y-98717276D01*
X127642857Y-98717276D02*
X127671428Y-98869657D01*
X127671428Y-98869657D02*
X127671428Y-99060133D01*
X127671428Y-99060133D02*
X127642857Y-99212514D01*
X127642857Y-99212514D02*
X127614286Y-99288704D01*
X127614286Y-99288704D02*
X127585714Y-99326800D01*
X127585714Y-99326800D02*
X127528571Y-99364895D01*
X127528571Y-99364895D02*
X127471428Y-99364895D01*
X127471428Y-99364895D02*
X127414286Y-99326800D01*
X127414286Y-99326800D02*
X127385714Y-99288704D01*
X127385714Y-99288704D02*
X127357143Y-99212514D01*
X127357143Y-99212514D02*
X127328571Y-99060133D01*
X127328571Y-99060133D02*
X127328571Y-98869657D01*
X127328571Y-98869657D02*
X127357143Y-98717276D01*
X127357143Y-98717276D02*
X127385714Y-98641085D01*
X127385714Y-98641085D02*
X127414286Y-98602990D01*
X127414286Y-98602990D02*
X127471428Y-98564895D01*
X128242857Y-99364895D02*
X127900000Y-99364895D01*
X128071429Y-99364895D02*
X128071429Y-98564895D01*
X128071429Y-98564895D02*
X128014286Y-98679180D01*
X128014286Y-98679180D02*
X127957143Y-98755371D01*
X127957143Y-98755371D02*
X127900000Y-98793466D01*
X154364895Y-109671428D02*
X153983942Y-109871428D01*
X154364895Y-110014285D02*
X153564895Y-110014285D01*
X153564895Y-110014285D02*
X153564895Y-109785714D01*
X153564895Y-109785714D02*
X153602990Y-109728571D01*
X153602990Y-109728571D02*
X153641085Y-109700000D01*
X153641085Y-109700000D02*
X153717276Y-109671428D01*
X153717276Y-109671428D02*
X153831561Y-109671428D01*
X153831561Y-109671428D02*
X153907752Y-109700000D01*
X153907752Y-109700000D02*
X153945847Y-109728571D01*
X153945847Y-109728571D02*
X153983942Y-109785714D01*
X153983942Y-109785714D02*
X153983942Y-110014285D01*
X154364895Y-109100000D02*
X154364895Y-109442857D01*
X154364895Y-109271428D02*
X153564895Y-109271428D01*
X153564895Y-109271428D02*
X153679180Y-109328571D01*
X153679180Y-109328571D02*
X153755371Y-109385714D01*
X153755371Y-109385714D02*
X153793466Y-109442857D01*
X154364895Y-108528571D02*
X154364895Y-108871428D01*
X154364895Y-108699999D02*
X153564895Y-108699999D01*
X153564895Y-108699999D02*
X153679180Y-108757142D01*
X153679180Y-108757142D02*
X153755371Y-108814285D01*
X153755371Y-108814285D02*
X153793466Y-108871428D01*
X153564895Y-108328570D02*
X153564895Y-107928570D01*
X153564895Y-107928570D02*
X154364895Y-108185713D01*
X173614895Y-91171428D02*
X173233942Y-91371428D01*
X173614895Y-91514285D02*
X172814895Y-91514285D01*
X172814895Y-91514285D02*
X172814895Y-91285714D01*
X172814895Y-91285714D02*
X172852990Y-91228571D01*
X172852990Y-91228571D02*
X172891085Y-91200000D01*
X172891085Y-91200000D02*
X172967276Y-91171428D01*
X172967276Y-91171428D02*
X173081561Y-91171428D01*
X173081561Y-91171428D02*
X173157752Y-91200000D01*
X173157752Y-91200000D02*
X173195847Y-91228571D01*
X173195847Y-91228571D02*
X173233942Y-91285714D01*
X173233942Y-91285714D02*
X173233942Y-91514285D01*
X173614895Y-90600000D02*
X173614895Y-90942857D01*
X173614895Y-90771428D02*
X172814895Y-90771428D01*
X172814895Y-90771428D02*
X172929180Y-90828571D01*
X172929180Y-90828571D02*
X173005371Y-90885714D01*
X173005371Y-90885714D02*
X173043466Y-90942857D01*
X172814895Y-90228571D02*
X172814895Y-90171428D01*
X172814895Y-90171428D02*
X172852990Y-90114285D01*
X172852990Y-90114285D02*
X172891085Y-90085714D01*
X172891085Y-90085714D02*
X172967276Y-90057142D01*
X172967276Y-90057142D02*
X173119657Y-90028571D01*
X173119657Y-90028571D02*
X173310133Y-90028571D01*
X173310133Y-90028571D02*
X173462514Y-90057142D01*
X173462514Y-90057142D02*
X173538704Y-90085714D01*
X173538704Y-90085714D02*
X173576800Y-90114285D01*
X173576800Y-90114285D02*
X173614895Y-90171428D01*
X173614895Y-90171428D02*
X173614895Y-90228571D01*
X173614895Y-90228571D02*
X173576800Y-90285714D01*
X173576800Y-90285714D02*
X173538704Y-90314285D01*
X173538704Y-90314285D02*
X173462514Y-90342856D01*
X173462514Y-90342856D02*
X173310133Y-90371428D01*
X173310133Y-90371428D02*
X173119657Y-90371428D01*
X173119657Y-90371428D02*
X172967276Y-90342856D01*
X172967276Y-90342856D02*
X172891085Y-90314285D01*
X172891085Y-90314285D02*
X172852990Y-90285714D01*
X172852990Y-90285714D02*
X172814895Y-90228571D01*
X172814895Y-89828570D02*
X172814895Y-89428570D01*
X172814895Y-89428570D02*
X173614895Y-89685713D01*
X154364895Y-91921428D02*
X153983942Y-92121428D01*
X154364895Y-92264285D02*
X153564895Y-92264285D01*
X153564895Y-92264285D02*
X153564895Y-92035714D01*
X153564895Y-92035714D02*
X153602990Y-91978571D01*
X153602990Y-91978571D02*
X153641085Y-91950000D01*
X153641085Y-91950000D02*
X153717276Y-91921428D01*
X153717276Y-91921428D02*
X153831561Y-91921428D01*
X153831561Y-91921428D02*
X153907752Y-91950000D01*
X153907752Y-91950000D02*
X153945847Y-91978571D01*
X153945847Y-91978571D02*
X153983942Y-92035714D01*
X153983942Y-92035714D02*
X153983942Y-92264285D01*
X154364895Y-91350000D02*
X154364895Y-91692857D01*
X154364895Y-91521428D02*
X153564895Y-91521428D01*
X153564895Y-91521428D02*
X153679180Y-91578571D01*
X153679180Y-91578571D02*
X153755371Y-91635714D01*
X153755371Y-91635714D02*
X153793466Y-91692857D01*
X154364895Y-90778571D02*
X154364895Y-91121428D01*
X154364895Y-90949999D02*
X153564895Y-90949999D01*
X153564895Y-90949999D02*
X153679180Y-91007142D01*
X153679180Y-91007142D02*
X153755371Y-91064285D01*
X153755371Y-91064285D02*
X153793466Y-91121428D01*
X153831561Y-90264285D02*
X154364895Y-90264285D01*
X153526800Y-90407142D02*
X154098228Y-90549999D01*
X154098228Y-90549999D02*
X154098228Y-90178570D01*
X181078571Y-103114895D02*
X180792857Y-103114895D01*
X180792857Y-103114895D02*
X180792857Y-102314895D01*
X181592856Y-103114895D02*
X181249999Y-103114895D01*
X181421428Y-103114895D02*
X181421428Y-102314895D01*
X181421428Y-102314895D02*
X181364285Y-102429180D01*
X181364285Y-102429180D02*
X181307142Y-102505371D01*
X181307142Y-102505371D02*
X181249999Y-102543466D01*
X181964285Y-102314895D02*
X182021428Y-102314895D01*
X182021428Y-102314895D02*
X182078571Y-102352990D01*
X182078571Y-102352990D02*
X182107143Y-102391085D01*
X182107143Y-102391085D02*
X182135714Y-102467276D01*
X182135714Y-102467276D02*
X182164285Y-102619657D01*
X182164285Y-102619657D02*
X182164285Y-102810133D01*
X182164285Y-102810133D02*
X182135714Y-102962514D01*
X182135714Y-102962514D02*
X182107143Y-103038704D01*
X182107143Y-103038704D02*
X182078571Y-103076800D01*
X182078571Y-103076800D02*
X182021428Y-103114895D01*
X182021428Y-103114895D02*
X181964285Y-103114895D01*
X181964285Y-103114895D02*
X181907143Y-103076800D01*
X181907143Y-103076800D02*
X181878571Y-103038704D01*
X181878571Y-103038704D02*
X181850000Y-102962514D01*
X181850000Y-102962514D02*
X181821428Y-102810133D01*
X181821428Y-102810133D02*
X181821428Y-102619657D01*
X181821428Y-102619657D02*
X181850000Y-102467276D01*
X181850000Y-102467276D02*
X181878571Y-102391085D01*
X181878571Y-102391085D02*
X181907143Y-102352990D01*
X181907143Y-102352990D02*
X181964285Y-102314895D01*
X182364286Y-102314895D02*
X182735714Y-102314895D01*
X182735714Y-102314895D02*
X182535714Y-102619657D01*
X182535714Y-102619657D02*
X182621429Y-102619657D01*
X182621429Y-102619657D02*
X182678572Y-102657752D01*
X182678572Y-102657752D02*
X182707143Y-102695847D01*
X182707143Y-102695847D02*
X182735714Y-102772038D01*
X182735714Y-102772038D02*
X182735714Y-102962514D01*
X182735714Y-102962514D02*
X182707143Y-103038704D01*
X182707143Y-103038704D02*
X182678572Y-103076800D01*
X182678572Y-103076800D02*
X182621429Y-103114895D01*
X182621429Y-103114895D02*
X182450000Y-103114895D01*
X182450000Y-103114895D02*
X182392857Y-103076800D01*
X182392857Y-103076800D02*
X182364286Y-103038704D01*
X181728570Y-96064895D02*
X181728570Y-96636323D01*
X181728570Y-96636323D02*
X181699999Y-96750609D01*
X181699999Y-96750609D02*
X181642856Y-96826800D01*
X181642856Y-96826800D02*
X181557142Y-96864895D01*
X181557142Y-96864895D02*
X181499999Y-96864895D01*
X181985713Y-96141085D02*
X182014285Y-96102990D01*
X182014285Y-96102990D02*
X182071428Y-96064895D01*
X182071428Y-96064895D02*
X182214285Y-96064895D01*
X182214285Y-96064895D02*
X182271428Y-96102990D01*
X182271428Y-96102990D02*
X182299999Y-96141085D01*
X182299999Y-96141085D02*
X182328570Y-96217276D01*
X182328570Y-96217276D02*
X182328570Y-96293466D01*
X182328570Y-96293466D02*
X182299999Y-96407752D01*
X182299999Y-96407752D02*
X181957142Y-96864895D01*
X181957142Y-96864895D02*
X182328570Y-96864895D01*
X182699999Y-96064895D02*
X182757142Y-96064895D01*
X182757142Y-96064895D02*
X182814285Y-96102990D01*
X182814285Y-96102990D02*
X182842857Y-96141085D01*
X182842857Y-96141085D02*
X182871428Y-96217276D01*
X182871428Y-96217276D02*
X182899999Y-96369657D01*
X182899999Y-96369657D02*
X182899999Y-96560133D01*
X182899999Y-96560133D02*
X182871428Y-96712514D01*
X182871428Y-96712514D02*
X182842857Y-96788704D01*
X182842857Y-96788704D02*
X182814285Y-96826800D01*
X182814285Y-96826800D02*
X182757142Y-96864895D01*
X182757142Y-96864895D02*
X182699999Y-96864895D01*
X182699999Y-96864895D02*
X182642857Y-96826800D01*
X182642857Y-96826800D02*
X182614285Y-96788704D01*
X182614285Y-96788704D02*
X182585714Y-96712514D01*
X182585714Y-96712514D02*
X182557142Y-96560133D01*
X182557142Y-96560133D02*
X182557142Y-96369657D01*
X182557142Y-96369657D02*
X182585714Y-96217276D01*
X182585714Y-96217276D02*
X182614285Y-96141085D01*
X182614285Y-96141085D02*
X182642857Y-96102990D01*
X182642857Y-96102990D02*
X182699999Y-96064895D01*
X183471428Y-96864895D02*
X183128571Y-96864895D01*
X183300000Y-96864895D02*
X183300000Y-96064895D01*
X183300000Y-96064895D02*
X183242857Y-96179180D01*
X183242857Y-96179180D02*
X183185714Y-96255371D01*
X183185714Y-96255371D02*
X183128571Y-96293466D01*
X127828571Y-105514895D02*
X127542857Y-105514895D01*
X127542857Y-105514895D02*
X127542857Y-104714895D01*
X128342856Y-105514895D02*
X127999999Y-105514895D01*
X128171428Y-105514895D02*
X128171428Y-104714895D01*
X128171428Y-104714895D02*
X128114285Y-104829180D01*
X128114285Y-104829180D02*
X128057142Y-104905371D01*
X128057142Y-104905371D02*
X127999999Y-104943466D01*
X128714285Y-104714895D02*
X128771428Y-104714895D01*
X128771428Y-104714895D02*
X128828571Y-104752990D01*
X128828571Y-104752990D02*
X128857143Y-104791085D01*
X128857143Y-104791085D02*
X128885714Y-104867276D01*
X128885714Y-104867276D02*
X128914285Y-105019657D01*
X128914285Y-105019657D02*
X128914285Y-105210133D01*
X128914285Y-105210133D02*
X128885714Y-105362514D01*
X128885714Y-105362514D02*
X128857143Y-105438704D01*
X128857143Y-105438704D02*
X128828571Y-105476800D01*
X128828571Y-105476800D02*
X128771428Y-105514895D01*
X128771428Y-105514895D02*
X128714285Y-105514895D01*
X128714285Y-105514895D02*
X128657143Y-105476800D01*
X128657143Y-105476800D02*
X128628571Y-105438704D01*
X128628571Y-105438704D02*
X128600000Y-105362514D01*
X128600000Y-105362514D02*
X128571428Y-105210133D01*
X128571428Y-105210133D02*
X128571428Y-105019657D01*
X128571428Y-105019657D02*
X128600000Y-104867276D01*
X128600000Y-104867276D02*
X128628571Y-104791085D01*
X128628571Y-104791085D02*
X128657143Y-104752990D01*
X128657143Y-104752990D02*
X128714285Y-104714895D01*
X129485714Y-105514895D02*
X129142857Y-105514895D01*
X129314286Y-105514895D02*
X129314286Y-104714895D01*
X129314286Y-104714895D02*
X129257143Y-104829180D01*
X129257143Y-104829180D02*
X129200000Y-104905371D01*
X129200000Y-104905371D02*
X129142857Y-104943466D01*
X152864895Y-109671428D02*
X152483942Y-109871428D01*
X152864895Y-110014285D02*
X152064895Y-110014285D01*
X152064895Y-110014285D02*
X152064895Y-109785714D01*
X152064895Y-109785714D02*
X152102990Y-109728571D01*
X152102990Y-109728571D02*
X152141085Y-109700000D01*
X152141085Y-109700000D02*
X152217276Y-109671428D01*
X152217276Y-109671428D02*
X152331561Y-109671428D01*
X152331561Y-109671428D02*
X152407752Y-109700000D01*
X152407752Y-109700000D02*
X152445847Y-109728571D01*
X152445847Y-109728571D02*
X152483942Y-109785714D01*
X152483942Y-109785714D02*
X152483942Y-110014285D01*
X152864895Y-109100000D02*
X152864895Y-109442857D01*
X152864895Y-109271428D02*
X152064895Y-109271428D01*
X152064895Y-109271428D02*
X152179180Y-109328571D01*
X152179180Y-109328571D02*
X152255371Y-109385714D01*
X152255371Y-109385714D02*
X152293466Y-109442857D01*
X152864895Y-108528571D02*
X152864895Y-108871428D01*
X152864895Y-108699999D02*
X152064895Y-108699999D01*
X152064895Y-108699999D02*
X152179180Y-108757142D01*
X152179180Y-108757142D02*
X152255371Y-108814285D01*
X152255371Y-108814285D02*
X152293466Y-108871428D01*
X152064895Y-108014285D02*
X152064895Y-108128570D01*
X152064895Y-108128570D02*
X152102990Y-108185713D01*
X152102990Y-108185713D02*
X152141085Y-108214285D01*
X152141085Y-108214285D02*
X152255371Y-108271427D01*
X152255371Y-108271427D02*
X152407752Y-108299999D01*
X152407752Y-108299999D02*
X152712514Y-108299999D01*
X152712514Y-108299999D02*
X152788704Y-108271427D01*
X152788704Y-108271427D02*
X152826800Y-108242856D01*
X152826800Y-108242856D02*
X152864895Y-108185713D01*
X152864895Y-108185713D02*
X152864895Y-108071427D01*
X152864895Y-108071427D02*
X152826800Y-108014285D01*
X152826800Y-108014285D02*
X152788704Y-107985713D01*
X152788704Y-107985713D02*
X152712514Y-107957142D01*
X152712514Y-107957142D02*
X152522038Y-107957142D01*
X152522038Y-107957142D02*
X152445847Y-107985713D01*
X152445847Y-107985713D02*
X152407752Y-108014285D01*
X152407752Y-108014285D02*
X152369657Y-108071427D01*
X152369657Y-108071427D02*
X152369657Y-108185713D01*
X152369657Y-108185713D02*
X152407752Y-108242856D01*
X152407752Y-108242856D02*
X152445847Y-108271427D01*
X152445847Y-108271427D02*
X152522038Y-108299999D01*
X113971428Y-110514895D02*
X113971428Y-109714895D01*
X113971428Y-110095847D02*
X114314285Y-110095847D01*
X114314285Y-110514895D02*
X114314285Y-109714895D01*
X114914284Y-110514895D02*
X114571427Y-110514895D01*
X114742856Y-110514895D02*
X114742856Y-109714895D01*
X114742856Y-109714895D02*
X114685713Y-109829180D01*
X114685713Y-109829180D02*
X114628570Y-109905371D01*
X114628570Y-109905371D02*
X114571427Y-109943466D01*
X115285713Y-109714895D02*
X115342856Y-109714895D01*
X115342856Y-109714895D02*
X115399999Y-109752990D01*
X115399999Y-109752990D02*
X115428571Y-109791085D01*
X115428571Y-109791085D02*
X115457142Y-109867276D01*
X115457142Y-109867276D02*
X115485713Y-110019657D01*
X115485713Y-110019657D02*
X115485713Y-110210133D01*
X115485713Y-110210133D02*
X115457142Y-110362514D01*
X115457142Y-110362514D02*
X115428571Y-110438704D01*
X115428571Y-110438704D02*
X115399999Y-110476800D01*
X115399999Y-110476800D02*
X115342856Y-110514895D01*
X115342856Y-110514895D02*
X115285713Y-110514895D01*
X115285713Y-110514895D02*
X115228571Y-110476800D01*
X115228571Y-110476800D02*
X115199999Y-110438704D01*
X115199999Y-110438704D02*
X115171428Y-110362514D01*
X115171428Y-110362514D02*
X115142856Y-110210133D01*
X115142856Y-110210133D02*
X115142856Y-110019657D01*
X115142856Y-110019657D02*
X115171428Y-109867276D01*
X115171428Y-109867276D02*
X115199999Y-109791085D01*
X115199999Y-109791085D02*
X115228571Y-109752990D01*
X115228571Y-109752990D02*
X115285713Y-109714895D01*
X116057142Y-110514895D02*
X115714285Y-110514895D01*
X115885714Y-110514895D02*
X115885714Y-109714895D01*
X115885714Y-109714895D02*
X115828571Y-109829180D01*
X115828571Y-109829180D02*
X115771428Y-109905371D01*
X115771428Y-109905371D02*
X115714285Y-109943466D01*
X163828571Y-111788704D02*
X163799999Y-111826800D01*
X163799999Y-111826800D02*
X163714285Y-111864895D01*
X163714285Y-111864895D02*
X163657142Y-111864895D01*
X163657142Y-111864895D02*
X163571428Y-111826800D01*
X163571428Y-111826800D02*
X163514285Y-111750609D01*
X163514285Y-111750609D02*
X163485714Y-111674419D01*
X163485714Y-111674419D02*
X163457142Y-111522038D01*
X163457142Y-111522038D02*
X163457142Y-111407752D01*
X163457142Y-111407752D02*
X163485714Y-111255371D01*
X163485714Y-111255371D02*
X163514285Y-111179180D01*
X163514285Y-111179180D02*
X163571428Y-111102990D01*
X163571428Y-111102990D02*
X163657142Y-111064895D01*
X163657142Y-111064895D02*
X163714285Y-111064895D01*
X163714285Y-111064895D02*
X163799999Y-111102990D01*
X163799999Y-111102990D02*
X163828571Y-111141085D01*
X164399999Y-111864895D02*
X164057142Y-111864895D01*
X164228571Y-111864895D02*
X164228571Y-111064895D01*
X164228571Y-111064895D02*
X164171428Y-111179180D01*
X164171428Y-111179180D02*
X164114285Y-111255371D01*
X164114285Y-111255371D02*
X164057142Y-111293466D01*
X164971428Y-111864895D02*
X164628571Y-111864895D01*
X164800000Y-111864895D02*
X164800000Y-111064895D01*
X164800000Y-111064895D02*
X164742857Y-111179180D01*
X164742857Y-111179180D02*
X164685714Y-111255371D01*
X164685714Y-111255371D02*
X164628571Y-111293466D01*
X165200000Y-111141085D02*
X165228572Y-111102990D01*
X165228572Y-111102990D02*
X165285715Y-111064895D01*
X165285715Y-111064895D02*
X165428572Y-111064895D01*
X165428572Y-111064895D02*
X165485715Y-111102990D01*
X165485715Y-111102990D02*
X165514286Y-111141085D01*
X165514286Y-111141085D02*
X165542857Y-111217276D01*
X165542857Y-111217276D02*
X165542857Y-111293466D01*
X165542857Y-111293466D02*
X165514286Y-111407752D01*
X165514286Y-111407752D02*
X165171429Y-111864895D01*
X165171429Y-111864895D02*
X165542857Y-111864895D01*
X130971428Y-110514895D02*
X130971428Y-109714895D01*
X130971428Y-110095847D02*
X131314285Y-110095847D01*
X131314285Y-110514895D02*
X131314285Y-109714895D01*
X131914284Y-110514895D02*
X131571427Y-110514895D01*
X131742856Y-110514895D02*
X131742856Y-109714895D01*
X131742856Y-109714895D02*
X131685713Y-109829180D01*
X131685713Y-109829180D02*
X131628570Y-109905371D01*
X131628570Y-109905371D02*
X131571427Y-109943466D01*
X132285713Y-109714895D02*
X132342856Y-109714895D01*
X132342856Y-109714895D02*
X132399999Y-109752990D01*
X132399999Y-109752990D02*
X132428571Y-109791085D01*
X132428571Y-109791085D02*
X132457142Y-109867276D01*
X132457142Y-109867276D02*
X132485713Y-110019657D01*
X132485713Y-110019657D02*
X132485713Y-110210133D01*
X132485713Y-110210133D02*
X132457142Y-110362514D01*
X132457142Y-110362514D02*
X132428571Y-110438704D01*
X132428571Y-110438704D02*
X132399999Y-110476800D01*
X132399999Y-110476800D02*
X132342856Y-110514895D01*
X132342856Y-110514895D02*
X132285713Y-110514895D01*
X132285713Y-110514895D02*
X132228571Y-110476800D01*
X132228571Y-110476800D02*
X132199999Y-110438704D01*
X132199999Y-110438704D02*
X132171428Y-110362514D01*
X132171428Y-110362514D02*
X132142856Y-110210133D01*
X132142856Y-110210133D02*
X132142856Y-110019657D01*
X132142856Y-110019657D02*
X132171428Y-109867276D01*
X132171428Y-109867276D02*
X132199999Y-109791085D01*
X132199999Y-109791085D02*
X132228571Y-109752990D01*
X132228571Y-109752990D02*
X132285713Y-109714895D01*
X132685714Y-109714895D02*
X133057142Y-109714895D01*
X133057142Y-109714895D02*
X132857142Y-110019657D01*
X132857142Y-110019657D02*
X132942857Y-110019657D01*
X132942857Y-110019657D02*
X133000000Y-110057752D01*
X133000000Y-110057752D02*
X133028571Y-110095847D01*
X133028571Y-110095847D02*
X133057142Y-110172038D01*
X133057142Y-110172038D02*
X133057142Y-110362514D01*
X133057142Y-110362514D02*
X133028571Y-110438704D01*
X133028571Y-110438704D02*
X133000000Y-110476800D01*
X133000000Y-110476800D02*
X132942857Y-110514895D01*
X132942857Y-110514895D02*
X132771428Y-110514895D01*
X132771428Y-110514895D02*
X132714285Y-110476800D01*
X132714285Y-110476800D02*
X132685714Y-110438704D01*
X165788704Y-96921428D02*
X165826800Y-96950000D01*
X165826800Y-96950000D02*
X165864895Y-97035714D01*
X165864895Y-97035714D02*
X165864895Y-97092857D01*
X165864895Y-97092857D02*
X165826800Y-97178571D01*
X165826800Y-97178571D02*
X165750609Y-97235714D01*
X165750609Y-97235714D02*
X165674419Y-97264285D01*
X165674419Y-97264285D02*
X165522038Y-97292857D01*
X165522038Y-97292857D02*
X165407752Y-97292857D01*
X165407752Y-97292857D02*
X165255371Y-97264285D01*
X165255371Y-97264285D02*
X165179180Y-97235714D01*
X165179180Y-97235714D02*
X165102990Y-97178571D01*
X165102990Y-97178571D02*
X165064895Y-97092857D01*
X165064895Y-97092857D02*
X165064895Y-97035714D01*
X165064895Y-97035714D02*
X165102990Y-96950000D01*
X165102990Y-96950000D02*
X165141085Y-96921428D01*
X165864895Y-96350000D02*
X165864895Y-96692857D01*
X165864895Y-96521428D02*
X165064895Y-96521428D01*
X165064895Y-96521428D02*
X165179180Y-96578571D01*
X165179180Y-96578571D02*
X165255371Y-96635714D01*
X165255371Y-96635714D02*
X165293466Y-96692857D01*
X165864895Y-95778571D02*
X165864895Y-96121428D01*
X165864895Y-95949999D02*
X165064895Y-95949999D01*
X165064895Y-95949999D02*
X165179180Y-96007142D01*
X165179180Y-96007142D02*
X165255371Y-96064285D01*
X165255371Y-96064285D02*
X165293466Y-96121428D01*
X165064895Y-95578570D02*
X165064895Y-95178570D01*
X165064895Y-95178570D02*
X165864895Y-95435713D01*
X155078571Y-87288704D02*
X155049999Y-87326800D01*
X155049999Y-87326800D02*
X154964285Y-87364895D01*
X154964285Y-87364895D02*
X154907142Y-87364895D01*
X154907142Y-87364895D02*
X154821428Y-87326800D01*
X154821428Y-87326800D02*
X154764285Y-87250609D01*
X154764285Y-87250609D02*
X154735714Y-87174419D01*
X154735714Y-87174419D02*
X154707142Y-87022038D01*
X154707142Y-87022038D02*
X154707142Y-86907752D01*
X154707142Y-86907752D02*
X154735714Y-86755371D01*
X154735714Y-86755371D02*
X154764285Y-86679180D01*
X154764285Y-86679180D02*
X154821428Y-86602990D01*
X154821428Y-86602990D02*
X154907142Y-86564895D01*
X154907142Y-86564895D02*
X154964285Y-86564895D01*
X154964285Y-86564895D02*
X155049999Y-86602990D01*
X155049999Y-86602990D02*
X155078571Y-86641085D01*
X155649999Y-87364895D02*
X155307142Y-87364895D01*
X155478571Y-87364895D02*
X155478571Y-86564895D01*
X155478571Y-86564895D02*
X155421428Y-86679180D01*
X155421428Y-86679180D02*
X155364285Y-86755371D01*
X155364285Y-86755371D02*
X155307142Y-86793466D01*
X156021428Y-86564895D02*
X156078571Y-86564895D01*
X156078571Y-86564895D02*
X156135714Y-86602990D01*
X156135714Y-86602990D02*
X156164286Y-86641085D01*
X156164286Y-86641085D02*
X156192857Y-86717276D01*
X156192857Y-86717276D02*
X156221428Y-86869657D01*
X156221428Y-86869657D02*
X156221428Y-87060133D01*
X156221428Y-87060133D02*
X156192857Y-87212514D01*
X156192857Y-87212514D02*
X156164286Y-87288704D01*
X156164286Y-87288704D02*
X156135714Y-87326800D01*
X156135714Y-87326800D02*
X156078571Y-87364895D01*
X156078571Y-87364895D02*
X156021428Y-87364895D01*
X156021428Y-87364895D02*
X155964286Y-87326800D01*
X155964286Y-87326800D02*
X155935714Y-87288704D01*
X155935714Y-87288704D02*
X155907143Y-87212514D01*
X155907143Y-87212514D02*
X155878571Y-87060133D01*
X155878571Y-87060133D02*
X155878571Y-86869657D01*
X155878571Y-86869657D02*
X155907143Y-86717276D01*
X155907143Y-86717276D02*
X155935714Y-86641085D01*
X155935714Y-86641085D02*
X155964286Y-86602990D01*
X155964286Y-86602990D02*
X156021428Y-86564895D01*
X156421429Y-86564895D02*
X156792857Y-86564895D01*
X156792857Y-86564895D02*
X156592857Y-86869657D01*
X156592857Y-86869657D02*
X156678572Y-86869657D01*
X156678572Y-86869657D02*
X156735715Y-86907752D01*
X156735715Y-86907752D02*
X156764286Y-86945847D01*
X156764286Y-86945847D02*
X156792857Y-87022038D01*
X156792857Y-87022038D02*
X156792857Y-87212514D01*
X156792857Y-87212514D02*
X156764286Y-87288704D01*
X156764286Y-87288704D02*
X156735715Y-87326800D01*
X156735715Y-87326800D02*
X156678572Y-87364895D01*
X156678572Y-87364895D02*
X156507143Y-87364895D01*
X156507143Y-87364895D02*
X156450000Y-87326800D01*
X156450000Y-87326800D02*
X156421429Y-87288704D01*
X184288704Y-87671428D02*
X184326800Y-87700000D01*
X184326800Y-87700000D02*
X184364895Y-87785714D01*
X184364895Y-87785714D02*
X184364895Y-87842857D01*
X184364895Y-87842857D02*
X184326800Y-87928571D01*
X184326800Y-87928571D02*
X184250609Y-87985714D01*
X184250609Y-87985714D02*
X184174419Y-88014285D01*
X184174419Y-88014285D02*
X184022038Y-88042857D01*
X184022038Y-88042857D02*
X183907752Y-88042857D01*
X183907752Y-88042857D02*
X183755371Y-88014285D01*
X183755371Y-88014285D02*
X183679180Y-87985714D01*
X183679180Y-87985714D02*
X183602990Y-87928571D01*
X183602990Y-87928571D02*
X183564895Y-87842857D01*
X183564895Y-87842857D02*
X183564895Y-87785714D01*
X183564895Y-87785714D02*
X183602990Y-87700000D01*
X183602990Y-87700000D02*
X183641085Y-87671428D01*
X184364895Y-87100000D02*
X184364895Y-87442857D01*
X184364895Y-87271428D02*
X183564895Y-87271428D01*
X183564895Y-87271428D02*
X183679180Y-87328571D01*
X183679180Y-87328571D02*
X183755371Y-87385714D01*
X183755371Y-87385714D02*
X183793466Y-87442857D01*
X183564895Y-86728571D02*
X183564895Y-86671428D01*
X183564895Y-86671428D02*
X183602990Y-86614285D01*
X183602990Y-86614285D02*
X183641085Y-86585714D01*
X183641085Y-86585714D02*
X183717276Y-86557142D01*
X183717276Y-86557142D02*
X183869657Y-86528571D01*
X183869657Y-86528571D02*
X184060133Y-86528571D01*
X184060133Y-86528571D02*
X184212514Y-86557142D01*
X184212514Y-86557142D02*
X184288704Y-86585714D01*
X184288704Y-86585714D02*
X184326800Y-86614285D01*
X184326800Y-86614285D02*
X184364895Y-86671428D01*
X184364895Y-86671428D02*
X184364895Y-86728571D01*
X184364895Y-86728571D02*
X184326800Y-86785714D01*
X184326800Y-86785714D02*
X184288704Y-86814285D01*
X184288704Y-86814285D02*
X184212514Y-86842856D01*
X184212514Y-86842856D02*
X184060133Y-86871428D01*
X184060133Y-86871428D02*
X183869657Y-86871428D01*
X183869657Y-86871428D02*
X183717276Y-86842856D01*
X183717276Y-86842856D02*
X183641085Y-86814285D01*
X183641085Y-86814285D02*
X183602990Y-86785714D01*
X183602990Y-86785714D02*
X183564895Y-86728571D01*
X183641085Y-86299999D02*
X183602990Y-86271427D01*
X183602990Y-86271427D02*
X183564895Y-86214285D01*
X183564895Y-86214285D02*
X183564895Y-86071427D01*
X183564895Y-86071427D02*
X183602990Y-86014285D01*
X183602990Y-86014285D02*
X183641085Y-85985713D01*
X183641085Y-85985713D02*
X183717276Y-85957142D01*
X183717276Y-85957142D02*
X183793466Y-85957142D01*
X183793466Y-85957142D02*
X183907752Y-85985713D01*
X183907752Y-85985713D02*
X184364895Y-86328570D01*
X184364895Y-86328570D02*
X184364895Y-85957142D01*
X115078571Y-91114895D02*
X114878571Y-90733942D01*
X114735714Y-91114895D02*
X114735714Y-90314895D01*
X114735714Y-90314895D02*
X114964285Y-90314895D01*
X114964285Y-90314895D02*
X115021428Y-90352990D01*
X115021428Y-90352990D02*
X115049999Y-90391085D01*
X115049999Y-90391085D02*
X115078571Y-90467276D01*
X115078571Y-90467276D02*
X115078571Y-90581561D01*
X115078571Y-90581561D02*
X115049999Y-90657752D01*
X115049999Y-90657752D02*
X115021428Y-90695847D01*
X115021428Y-90695847D02*
X114964285Y-90733942D01*
X114964285Y-90733942D02*
X114735714Y-90733942D01*
X115649999Y-91114895D02*
X115307142Y-91114895D01*
X115478571Y-91114895D02*
X115478571Y-90314895D01*
X115478571Y-90314895D02*
X115421428Y-90429180D01*
X115421428Y-90429180D02*
X115364285Y-90505371D01*
X115364285Y-90505371D02*
X115307142Y-90543466D01*
X116021428Y-90314895D02*
X116078571Y-90314895D01*
X116078571Y-90314895D02*
X116135714Y-90352990D01*
X116135714Y-90352990D02*
X116164286Y-90391085D01*
X116164286Y-90391085D02*
X116192857Y-90467276D01*
X116192857Y-90467276D02*
X116221428Y-90619657D01*
X116221428Y-90619657D02*
X116221428Y-90810133D01*
X116221428Y-90810133D02*
X116192857Y-90962514D01*
X116192857Y-90962514D02*
X116164286Y-91038704D01*
X116164286Y-91038704D02*
X116135714Y-91076800D01*
X116135714Y-91076800D02*
X116078571Y-91114895D01*
X116078571Y-91114895D02*
X116021428Y-91114895D01*
X116021428Y-91114895D02*
X115964286Y-91076800D01*
X115964286Y-91076800D02*
X115935714Y-91038704D01*
X115935714Y-91038704D02*
X115907143Y-90962514D01*
X115907143Y-90962514D02*
X115878571Y-90810133D01*
X115878571Y-90810133D02*
X115878571Y-90619657D01*
X115878571Y-90619657D02*
X115907143Y-90467276D01*
X115907143Y-90467276D02*
X115935714Y-90391085D01*
X115935714Y-90391085D02*
X115964286Y-90352990D01*
X115964286Y-90352990D02*
X116021428Y-90314895D01*
X116450000Y-90391085D02*
X116478572Y-90352990D01*
X116478572Y-90352990D02*
X116535715Y-90314895D01*
X116535715Y-90314895D02*
X116678572Y-90314895D01*
X116678572Y-90314895D02*
X116735715Y-90352990D01*
X116735715Y-90352990D02*
X116764286Y-90391085D01*
X116764286Y-90391085D02*
X116792857Y-90467276D01*
X116792857Y-90467276D02*
X116792857Y-90543466D01*
X116792857Y-90543466D02*
X116764286Y-90657752D01*
X116764286Y-90657752D02*
X116421429Y-91114895D01*
X116421429Y-91114895D02*
X116792857Y-91114895D01*
X165578571Y-86538704D02*
X165549999Y-86576800D01*
X165549999Y-86576800D02*
X165464285Y-86614895D01*
X165464285Y-86614895D02*
X165407142Y-86614895D01*
X165407142Y-86614895D02*
X165321428Y-86576800D01*
X165321428Y-86576800D02*
X165264285Y-86500609D01*
X165264285Y-86500609D02*
X165235714Y-86424419D01*
X165235714Y-86424419D02*
X165207142Y-86272038D01*
X165207142Y-86272038D02*
X165207142Y-86157752D01*
X165207142Y-86157752D02*
X165235714Y-86005371D01*
X165235714Y-86005371D02*
X165264285Y-85929180D01*
X165264285Y-85929180D02*
X165321428Y-85852990D01*
X165321428Y-85852990D02*
X165407142Y-85814895D01*
X165407142Y-85814895D02*
X165464285Y-85814895D01*
X165464285Y-85814895D02*
X165549999Y-85852990D01*
X165549999Y-85852990D02*
X165578571Y-85891085D01*
X166149999Y-86614895D02*
X165807142Y-86614895D01*
X165978571Y-86614895D02*
X165978571Y-85814895D01*
X165978571Y-85814895D02*
X165921428Y-85929180D01*
X165921428Y-85929180D02*
X165864285Y-86005371D01*
X165864285Y-86005371D02*
X165807142Y-86043466D01*
X166721428Y-86614895D02*
X166378571Y-86614895D01*
X166550000Y-86614895D02*
X166550000Y-85814895D01*
X166550000Y-85814895D02*
X166492857Y-85929180D01*
X166492857Y-85929180D02*
X166435714Y-86005371D01*
X166435714Y-86005371D02*
X166378571Y-86043466D01*
X166921429Y-85814895D02*
X167292857Y-85814895D01*
X167292857Y-85814895D02*
X167092857Y-86119657D01*
X167092857Y-86119657D02*
X167178572Y-86119657D01*
X167178572Y-86119657D02*
X167235715Y-86157752D01*
X167235715Y-86157752D02*
X167264286Y-86195847D01*
X167264286Y-86195847D02*
X167292857Y-86272038D01*
X167292857Y-86272038D02*
X167292857Y-86462514D01*
X167292857Y-86462514D02*
X167264286Y-86538704D01*
X167264286Y-86538704D02*
X167235715Y-86576800D01*
X167235715Y-86576800D02*
X167178572Y-86614895D01*
X167178572Y-86614895D02*
X167007143Y-86614895D01*
X167007143Y-86614895D02*
X166950000Y-86576800D01*
X166950000Y-86576800D02*
X166921429Y-86538704D01*
X158721428Y-103314895D02*
X158721428Y-103962514D01*
X158721428Y-103962514D02*
X158749999Y-104038704D01*
X158749999Y-104038704D02*
X158778571Y-104076800D01*
X158778571Y-104076800D02*
X158835713Y-104114895D01*
X158835713Y-104114895D02*
X158949999Y-104114895D01*
X158949999Y-104114895D02*
X159007142Y-104076800D01*
X159007142Y-104076800D02*
X159035713Y-104038704D01*
X159035713Y-104038704D02*
X159064285Y-103962514D01*
X159064285Y-103962514D02*
X159064285Y-103314895D01*
X159664284Y-104114895D02*
X159321427Y-104114895D01*
X159492856Y-104114895D02*
X159492856Y-103314895D01*
X159492856Y-103314895D02*
X159435713Y-103429180D01*
X159435713Y-103429180D02*
X159378570Y-103505371D01*
X159378570Y-103505371D02*
X159321427Y-103543466D01*
X160035713Y-103314895D02*
X160092856Y-103314895D01*
X160092856Y-103314895D02*
X160149999Y-103352990D01*
X160149999Y-103352990D02*
X160178571Y-103391085D01*
X160178571Y-103391085D02*
X160207142Y-103467276D01*
X160207142Y-103467276D02*
X160235713Y-103619657D01*
X160235713Y-103619657D02*
X160235713Y-103810133D01*
X160235713Y-103810133D02*
X160207142Y-103962514D01*
X160207142Y-103962514D02*
X160178571Y-104038704D01*
X160178571Y-104038704D02*
X160149999Y-104076800D01*
X160149999Y-104076800D02*
X160092856Y-104114895D01*
X160092856Y-104114895D02*
X160035713Y-104114895D01*
X160035713Y-104114895D02*
X159978571Y-104076800D01*
X159978571Y-104076800D02*
X159949999Y-104038704D01*
X159949999Y-104038704D02*
X159921428Y-103962514D01*
X159921428Y-103962514D02*
X159892856Y-103810133D01*
X159892856Y-103810133D02*
X159892856Y-103619657D01*
X159892856Y-103619657D02*
X159921428Y-103467276D01*
X159921428Y-103467276D02*
X159949999Y-103391085D01*
X159949999Y-103391085D02*
X159978571Y-103352990D01*
X159978571Y-103352990D02*
X160035713Y-103314895D01*
X160464285Y-103391085D02*
X160492857Y-103352990D01*
X160492857Y-103352990D02*
X160550000Y-103314895D01*
X160550000Y-103314895D02*
X160692857Y-103314895D01*
X160692857Y-103314895D02*
X160750000Y-103352990D01*
X160750000Y-103352990D02*
X160778571Y-103391085D01*
X160778571Y-103391085D02*
X160807142Y-103467276D01*
X160807142Y-103467276D02*
X160807142Y-103543466D01*
X160807142Y-103543466D02*
X160778571Y-103657752D01*
X160778571Y-103657752D02*
X160435714Y-104114895D01*
X160435714Y-104114895D02*
X160807142Y-104114895D01*
X180129895Y-111406428D02*
X179748942Y-111606428D01*
X180129895Y-111749285D02*
X179329895Y-111749285D01*
X179329895Y-111749285D02*
X179329895Y-111520714D01*
X179329895Y-111520714D02*
X179367990Y-111463571D01*
X179367990Y-111463571D02*
X179406085Y-111435000D01*
X179406085Y-111435000D02*
X179482276Y-111406428D01*
X179482276Y-111406428D02*
X179596561Y-111406428D01*
X179596561Y-111406428D02*
X179672752Y-111435000D01*
X179672752Y-111435000D02*
X179710847Y-111463571D01*
X179710847Y-111463571D02*
X179748942Y-111520714D01*
X179748942Y-111520714D02*
X179748942Y-111749285D01*
X180129895Y-110835000D02*
X180129895Y-111177857D01*
X180129895Y-111006428D02*
X179329895Y-111006428D01*
X179329895Y-111006428D02*
X179444180Y-111063571D01*
X179444180Y-111063571D02*
X179520371Y-111120714D01*
X179520371Y-111120714D02*
X179558466Y-111177857D01*
X180129895Y-110263571D02*
X180129895Y-110606428D01*
X180129895Y-110434999D02*
X179329895Y-110434999D01*
X179329895Y-110434999D02*
X179444180Y-110492142D01*
X179444180Y-110492142D02*
X179520371Y-110549285D01*
X179520371Y-110549285D02*
X179558466Y-110606428D01*
X179406085Y-110034999D02*
X179367990Y-110006427D01*
X179367990Y-110006427D02*
X179329895Y-109949285D01*
X179329895Y-109949285D02*
X179329895Y-109806427D01*
X179329895Y-109806427D02*
X179367990Y-109749285D01*
X179367990Y-109749285D02*
X179406085Y-109720713D01*
X179406085Y-109720713D02*
X179482276Y-109692142D01*
X179482276Y-109692142D02*
X179558466Y-109692142D01*
X179558466Y-109692142D02*
X179672752Y-109720713D01*
X179672752Y-109720713D02*
X180129895Y-110063570D01*
X180129895Y-110063570D02*
X180129895Y-109692142D01*
D12*
%TO.C,R105*%
X157637258Y-108022500D02*
X157162742Y-108022500D01*
X157637258Y-106977500D02*
X157162742Y-106977500D01*
%TO.C,J101*%
X151440000Y-95440000D02*
X152500000Y-95440000D01*
X151440000Y-96500000D02*
X151440000Y-95440000D01*
X151440000Y-97500000D02*
X151440000Y-103560000D01*
X151440000Y-97500000D02*
X153500000Y-97500000D01*
X151440000Y-103560000D02*
X155560000Y-103560000D01*
X153500000Y-95440000D02*
X155560000Y-95440000D01*
X153500000Y-97500000D02*
X153500000Y-95440000D01*
X155560000Y-95440000D02*
X155560000Y-103560000D01*
%TO.C,C105*%
X172898752Y-106135000D02*
X172376248Y-106135000D01*
X172898752Y-104665000D02*
X172376248Y-104665000D01*
%TO.C,U101*%
X125110000Y-100250000D02*
X125110000Y-97325000D01*
X125110000Y-100250000D02*
X125110000Y-101750000D01*
X121890000Y-100250000D02*
X121890000Y-98750000D01*
X121890000Y-100250000D02*
X121890000Y-101750000D01*
%TO.C,C115*%
X163453733Y-99990000D02*
X163746267Y-99990000D01*
X163453733Y-101010000D02*
X163746267Y-101010000D01*
%TO.C,R110*%
X169122500Y-93337742D02*
X169122500Y-93812258D01*
X168077500Y-93337742D02*
X168077500Y-93812258D01*
%TO.C,C104*%
X183235000Y-93738748D02*
X183235000Y-94261252D01*
X181765000Y-93738748D02*
X181765000Y-94261252D01*
%TO.C,R111*%
X173367776Y-112512500D02*
X173877224Y-112512500D01*
X173367776Y-113557500D02*
X173877224Y-113557500D01*
%TO.C,C108*%
X162238748Y-85765000D02*
X162761252Y-85765000D01*
X162238748Y-87235000D02*
X162761252Y-87235000D01*
%TO.C,C110*%
X169738748Y-112765000D02*
X170261252Y-112765000D01*
X169738748Y-114235000D02*
X170261252Y-114235000D01*
%TO.C,G1*%
G36*
X121385127Y-88425057D02*
G01*
X121220886Y-88425057D01*
X121220886Y-87234303D01*
X121385127Y-87234303D01*
X121385127Y-88425057D01*
G37*
G36*
X124982024Y-88425057D02*
G01*
X124817782Y-88425057D01*
X124817782Y-87554575D01*
X124982024Y-87554575D01*
X124982024Y-88425057D01*
G37*
G36*
X124980043Y-86936615D02*
G01*
X124977918Y-87369803D01*
X124897850Y-87372153D01*
X124817782Y-87374504D01*
X124817782Y-86503427D01*
X124982169Y-86503427D01*
X124980043Y-86936615D01*
G37*
G36*
X124982024Y-86339185D02*
G01*
X124899645Y-86339185D01*
X124858799Y-86338540D01*
X124832150Y-86336420D01*
X124817512Y-86332549D01*
X124813064Y-86328234D01*
X124811399Y-86315348D01*
X124810660Y-86290683D01*
X124810950Y-86258863D01*
X124811268Y-86248166D01*
X124813676Y-86179050D01*
X124897850Y-86176709D01*
X124982024Y-86174370D01*
X124982024Y-86339185D01*
G37*
G36*
X123339605Y-87647372D02*
G01*
X123363404Y-87614518D01*
X123395850Y-87582925D01*
X123437478Y-87562112D01*
X123483289Y-87554575D01*
X123512059Y-87554575D01*
X123512059Y-87692267D01*
X123458769Y-87695660D01*
X123413121Y-87702728D01*
X123380339Y-87718006D01*
X123358441Y-87742682D01*
X123350334Y-87760646D01*
X123347489Y-87775165D01*
X123345141Y-87801551D01*
X123343268Y-87840606D01*
X123341845Y-87893129D01*
X123340849Y-87959922D01*
X123340255Y-88041787D01*
X123340069Y-88106838D01*
X123339605Y-88425057D01*
X123175363Y-88425057D01*
X123175363Y-87554575D01*
X123339605Y-87554575D01*
X123339605Y-87647372D01*
G37*
G36*
X125285871Y-86503427D02*
G01*
X125409743Y-86503427D01*
X125407345Y-86567071D01*
X125404946Y-86630715D01*
X125345409Y-86633127D01*
X125285871Y-86635540D01*
X125285871Y-86922017D01*
X125285829Y-87001904D01*
X125285949Y-87066899D01*
X125286596Y-87118533D01*
X125288138Y-87158338D01*
X125290942Y-87187843D01*
X125295374Y-87208581D01*
X125301802Y-87222081D01*
X125310591Y-87229875D01*
X125322110Y-87233495D01*
X125336725Y-87234470D01*
X125354802Y-87234333D01*
X125360698Y-87234303D01*
X125409717Y-87234303D01*
X125407331Y-87302053D01*
X125404946Y-87369803D01*
X125335144Y-87371451D01*
X125296213Y-87370863D01*
X125257976Y-87367777D01*
X125227759Y-87362820D01*
X125224556Y-87362004D01*
X125181939Y-87342645D01*
X125150046Y-87311419D01*
X125130459Y-87269876D01*
X125130394Y-87269642D01*
X125127992Y-87252401D01*
X125125929Y-87219914D01*
X125124238Y-87173357D01*
X125122949Y-87113905D01*
X125122092Y-87042734D01*
X125121698Y-86961019D01*
X125121675Y-86936615D01*
X125121629Y-86634821D01*
X125039508Y-86634821D01*
X125039508Y-86503427D01*
X125121629Y-86503427D01*
X125121629Y-86355610D01*
X125285871Y-86355610D01*
X125285871Y-86503427D01*
G37*
G36*
X124333268Y-87605307D02*
G01*
X124358146Y-87584374D01*
X124382114Y-87568623D01*
X124410975Y-87559103D01*
X124448191Y-87555173D01*
X124497219Y-87556197D01*
X124507266Y-87556837D01*
X124546240Y-87560796D01*
X124574306Y-87567281D01*
X124596942Y-87577717D01*
X124603514Y-87581844D01*
X124616476Y-87590517D01*
X124627357Y-87598883D01*
X124636338Y-87608381D01*
X124643602Y-87620453D01*
X124649331Y-87636537D01*
X124653707Y-87658075D01*
X124656913Y-87686506D01*
X124659130Y-87723270D01*
X124660540Y-87769808D01*
X124661325Y-87827559D01*
X124661668Y-87897963D01*
X124661751Y-87982462D01*
X124661752Y-88042382D01*
X124661752Y-88425057D01*
X124505722Y-88425057D01*
X124505722Y-88071937D01*
X124505780Y-87982211D01*
X124505752Y-87907533D01*
X124505337Y-87846528D01*
X124504236Y-87797820D01*
X124502146Y-87760033D01*
X124498769Y-87731793D01*
X124493802Y-87711725D01*
X124486945Y-87698452D01*
X124477897Y-87690601D01*
X124466359Y-87686796D01*
X124452028Y-87685661D01*
X124434604Y-87685821D01*
X124421323Y-87685968D01*
X124381752Y-87688673D01*
X124355204Y-87696510D01*
X124351520Y-87698752D01*
X124333268Y-87711536D01*
X124333268Y-88425057D01*
X124169026Y-88425057D01*
X124169026Y-87554575D01*
X124333268Y-87554575D01*
X124333268Y-87605307D01*
G37*
G36*
X122961849Y-86596189D02*
G01*
X122980522Y-86568481D01*
X123012819Y-86532113D01*
X123051227Y-86510696D01*
X123097196Y-86503435D01*
X123098895Y-86503427D01*
X123143179Y-86503427D01*
X123138409Y-86638927D01*
X123079504Y-86643033D01*
X123035140Y-86649617D01*
X123003716Y-86663313D01*
X122982658Y-86685846D01*
X122970094Y-86716332D01*
X122968242Y-86731324D01*
X122966581Y-86761520D01*
X122965135Y-86805698D01*
X122963925Y-86862638D01*
X122962977Y-86931120D01*
X122962312Y-87009924D01*
X122961953Y-87097829D01*
X122961895Y-87150129D01*
X122961849Y-87554575D01*
X123085030Y-87554575D01*
X123085030Y-87685968D01*
X122961849Y-87685968D01*
X122961849Y-87969825D01*
X122962102Y-88053380D01*
X122962844Y-88124553D01*
X122964054Y-88182543D01*
X122965708Y-88226547D01*
X122967784Y-88255763D01*
X122970259Y-88269388D01*
X122970350Y-88269567D01*
X122977905Y-88278463D01*
X122991304Y-88283332D01*
X123014738Y-88285256D01*
X123031941Y-88285451D01*
X123085030Y-88285451D01*
X123085030Y-88425057D01*
X123000543Y-88425057D01*
X122959216Y-88424496D01*
X122929713Y-88422347D01*
X122907460Y-88417910D01*
X122887882Y-88410482D01*
X122879896Y-88406579D01*
X122842014Y-88380863D01*
X122817449Y-88347935D01*
X122805470Y-88313558D01*
X122803736Y-88298005D01*
X122802133Y-88268127D01*
X122800711Y-88226022D01*
X122799518Y-88173791D01*
X122798602Y-88113531D01*
X122798014Y-88047341D01*
X122797803Y-87983657D01*
X122797607Y-87685968D01*
X122714795Y-87685968D01*
X122717194Y-87622325D01*
X122719592Y-87558681D01*
X122758600Y-87556178D01*
X122797607Y-87553675D01*
X122797607Y-86503427D01*
X122961849Y-86503427D01*
X122961849Y-86596189D01*
G37*
G36*
X121269546Y-86701082D02*
G01*
X121313591Y-86702149D01*
X121345641Y-86704549D01*
X121367910Y-86708855D01*
X121382612Y-86715635D01*
X121391960Y-86725462D01*
X121398169Y-86738906D01*
X121401565Y-86749838D01*
X121403785Y-86780629D01*
X121394970Y-86810062D01*
X121377400Y-86832593D01*
X121364460Y-86840175D01*
X121349784Y-86842637D01*
X121322199Y-86844636D01*
X121285193Y-86846148D01*
X121242257Y-86847146D01*
X121196879Y-86847602D01*
X121152551Y-86847491D01*
X121112760Y-86846787D01*
X121080997Y-86845462D01*
X121060751Y-86843490D01*
X121056644Y-86842509D01*
X121029950Y-86824813D01*
X121013844Y-86797805D01*
X121009889Y-86765897D01*
X121010992Y-86762056D01*
X121074693Y-86762056D01*
X121075734Y-86778768D01*
X121081569Y-86791390D01*
X121086130Y-86797624D01*
X121093792Y-86801981D01*
X121107215Y-86804793D01*
X121129060Y-86806392D01*
X121161989Y-86807108D01*
X121208661Y-86807275D01*
X121209032Y-86807275D01*
X121255407Y-86807202D01*
X121288044Y-86806698D01*
X121309631Y-86805333D01*
X121322856Y-86802678D01*
X121330406Y-86798304D01*
X121334968Y-86791781D01*
X121337334Y-86786778D01*
X121342238Y-86768755D01*
X121335251Y-86753850D01*
X121331779Y-86749823D01*
X121324268Y-86743087D01*
X121314108Y-86738475D01*
X121298327Y-86735593D01*
X121273952Y-86734047D01*
X121238013Y-86733442D01*
X121207881Y-86733366D01*
X121161314Y-86733726D01*
X121128458Y-86734998D01*
X121106613Y-86737466D01*
X121093077Y-86741418D01*
X121085973Y-86746270D01*
X121074693Y-86762056D01*
X121010992Y-86762056D01*
X121018659Y-86735359D01*
X121031245Y-86716824D01*
X121044195Y-86705823D01*
X121044693Y-86705619D01*
X121056843Y-86704016D01*
X121082568Y-86702648D01*
X121119023Y-86701597D01*
X121163361Y-86700948D01*
X121211292Y-86700779D01*
X121269546Y-86701082D01*
G37*
G36*
X123721467Y-87369803D02*
G01*
X123641400Y-87372153D01*
X123561332Y-87374504D01*
X123561332Y-87314026D01*
X123541809Y-87335091D01*
X123520456Y-87351511D01*
X123493909Y-87363950D01*
X123490484Y-87364987D01*
X123467298Y-87369155D01*
X123436063Y-87371977D01*
X123402698Y-87373242D01*
X123373122Y-87372744D01*
X123353254Y-87370272D01*
X123351923Y-87369873D01*
X123338270Y-87366171D01*
X123321279Y-87362190D01*
X123290577Y-87348262D01*
X123262039Y-87323047D01*
X123240523Y-87291459D01*
X123233519Y-87273425D01*
X123230770Y-87257327D01*
X123228632Y-87230399D01*
X123228481Y-87226621D01*
X123388878Y-87226621D01*
X123407355Y-87234485D01*
X123425232Y-87238289D01*
X123452857Y-87240171D01*
X123478255Y-87239920D01*
X123509231Y-87237411D01*
X123528761Y-87232395D01*
X123541799Y-87223312D01*
X123546005Y-87218563D01*
X123550281Y-87212322D01*
X123553680Y-87204120D01*
X123556302Y-87192150D01*
X123558244Y-87174604D01*
X123559605Y-87149674D01*
X123560483Y-87115554D01*
X123560978Y-87070435D01*
X123561188Y-87012511D01*
X123561211Y-86939975D01*
X123561211Y-86939811D01*
X123560982Y-86860564D01*
X123560347Y-86796442D01*
X123559256Y-86746152D01*
X123557661Y-86708397D01*
X123555514Y-86681883D01*
X123552765Y-86665316D01*
X123550731Y-86659457D01*
X123544136Y-86649027D01*
X123534676Y-86642646D01*
X123518373Y-86639090D01*
X123491247Y-86637134D01*
X123476165Y-86636514D01*
X123437886Y-86636462D01*
X123411379Y-86639406D01*
X123400417Y-86643679D01*
X123397263Y-86648794D01*
X123394716Y-86659380D01*
X123392717Y-86676957D01*
X123391208Y-86703047D01*
X123390130Y-86739171D01*
X123389422Y-86786850D01*
X123389025Y-86847606D01*
X123388881Y-86922958D01*
X123388878Y-86939938D01*
X123388878Y-87226621D01*
X123228481Y-87226621D01*
X123227085Y-87191681D01*
X123226108Y-87140212D01*
X123225683Y-87075033D01*
X123225790Y-86995184D01*
X123226261Y-86918138D01*
X123226927Y-86836894D01*
X123227604Y-86770415D01*
X123228383Y-86717041D01*
X123229355Y-86675112D01*
X123230611Y-86642968D01*
X123232240Y-86618950D01*
X123234335Y-86601398D01*
X123236986Y-86588653D01*
X123240283Y-86579055D01*
X123244317Y-86570944D01*
X123245354Y-86569124D01*
X123268698Y-86540135D01*
X123301063Y-86520042D01*
X123344359Y-86508090D01*
X123400499Y-86503523D01*
X123411556Y-86503427D01*
X123460874Y-86505168D01*
X123497158Y-86511033D01*
X123523490Y-86521986D01*
X123542954Y-86538992D01*
X123548515Y-86546268D01*
X123556893Y-86557278D01*
X123560484Y-86556331D01*
X123561317Y-86541485D01*
X123561332Y-86533997D01*
X123561332Y-86503427D01*
X123725719Y-86503427D01*
X123721467Y-87369803D01*
G37*
G36*
X125990130Y-86936615D02*
G01*
X125988005Y-87369803D01*
X125907937Y-87372153D01*
X125827869Y-87374504D01*
X125827869Y-87314026D01*
X125808347Y-87335091D01*
X125786993Y-87351511D01*
X125760446Y-87363950D01*
X125757021Y-87364987D01*
X125733835Y-87369155D01*
X125702600Y-87371977D01*
X125669235Y-87373242D01*
X125639659Y-87372744D01*
X125619792Y-87370272D01*
X125618461Y-87369873D01*
X125604807Y-87366171D01*
X125587816Y-87362190D01*
X125557114Y-87348262D01*
X125528576Y-87323047D01*
X125507060Y-87291459D01*
X125500056Y-87273425D01*
X125497308Y-87257327D01*
X125495170Y-87230399D01*
X125495019Y-87226621D01*
X125655415Y-87226621D01*
X125673892Y-87234485D01*
X125691769Y-87238289D01*
X125719395Y-87240171D01*
X125744792Y-87239920D01*
X125775768Y-87237411D01*
X125795299Y-87232395D01*
X125808336Y-87223312D01*
X125812542Y-87218563D01*
X125816818Y-87212322D01*
X125820218Y-87204120D01*
X125822839Y-87192150D01*
X125824781Y-87174604D01*
X125826142Y-87149674D01*
X125827020Y-87115554D01*
X125827515Y-87070435D01*
X125827725Y-87012511D01*
X125827748Y-86939975D01*
X125827748Y-86939811D01*
X125827520Y-86860564D01*
X125826884Y-86796442D01*
X125825793Y-86746152D01*
X125824198Y-86708397D01*
X125822051Y-86681883D01*
X125819303Y-86665316D01*
X125817269Y-86659457D01*
X125810673Y-86649027D01*
X125801213Y-86642646D01*
X125784910Y-86639090D01*
X125757785Y-86637134D01*
X125742702Y-86636514D01*
X125704423Y-86636462D01*
X125677916Y-86639406D01*
X125666955Y-86643679D01*
X125663800Y-86648794D01*
X125661253Y-86659380D01*
X125659255Y-86676957D01*
X125657746Y-86703047D01*
X125656667Y-86739171D01*
X125655959Y-86786850D01*
X125655563Y-86847606D01*
X125655419Y-86922958D01*
X125655415Y-86939938D01*
X125655415Y-87226621D01*
X125495019Y-87226621D01*
X125493622Y-87191681D01*
X125492646Y-87140212D01*
X125492221Y-87075033D01*
X125492328Y-86995184D01*
X125492798Y-86918138D01*
X125493464Y-86836894D01*
X125494142Y-86770415D01*
X125494921Y-86717041D01*
X125495893Y-86675112D01*
X125497148Y-86642968D01*
X125498778Y-86618950D01*
X125500872Y-86601398D01*
X125503523Y-86588653D01*
X125506820Y-86579055D01*
X125510855Y-86570944D01*
X125511891Y-86569124D01*
X125535236Y-86540135D01*
X125567600Y-86520042D01*
X125610896Y-86508090D01*
X125667036Y-86503523D01*
X125678093Y-86503427D01*
X125727412Y-86505168D01*
X125763696Y-86511033D01*
X125790028Y-86521986D01*
X125809491Y-86538992D01*
X125815052Y-86546268D01*
X125823430Y-86557278D01*
X125827022Y-86556331D01*
X125827854Y-86541485D01*
X125827869Y-86533997D01*
X125827869Y-86503427D01*
X125992256Y-86503427D01*
X125990130Y-86936615D01*
G37*
G36*
X125425815Y-87558838D02*
G01*
X125465897Y-87559486D01*
X125495130Y-87560888D01*
X125516302Y-87563311D01*
X125532199Y-87567018D01*
X125545609Y-87572273D01*
X125552764Y-87575831D01*
X125580690Y-87594146D01*
X125600467Y-87617143D01*
X125613247Y-87647629D01*
X125620181Y-87688409D01*
X125622422Y-87742288D01*
X125622432Y-87745506D01*
X125622567Y-87833786D01*
X125466537Y-87833786D01*
X125466411Y-87774248D01*
X125465319Y-87743119D01*
X125462566Y-87717539D01*
X125458735Y-87702793D01*
X125458499Y-87702393D01*
X125450434Y-87696150D01*
X125433911Y-87692310D01*
X125406043Y-87690442D01*
X125376204Y-87690074D01*
X125338013Y-87690755D01*
X125313316Y-87693086D01*
X125299226Y-87697498D01*
X125293909Y-87702393D01*
X125291515Y-87714229D01*
X125289538Y-87739945D01*
X125287971Y-87777213D01*
X125286806Y-87823704D01*
X125286036Y-87877092D01*
X125285654Y-87935047D01*
X125285652Y-87995241D01*
X125286024Y-88055348D01*
X125286761Y-88113038D01*
X125287858Y-88165984D01*
X125289305Y-88211858D01*
X125291097Y-88248331D01*
X125293226Y-88273076D01*
X125295684Y-88283765D01*
X125295725Y-88283809D01*
X125309693Y-88289108D01*
X125337758Y-88292483D01*
X125377557Y-88293663D01*
X125416670Y-88292866D01*
X125442242Y-88288633D01*
X125457142Y-88278201D01*
X125464241Y-88258806D01*
X125466407Y-88227685D01*
X125466537Y-88207976D01*
X125466537Y-88154058D01*
X125623980Y-88154058D01*
X125621220Y-88247925D01*
X125618775Y-88297206D01*
X125613796Y-88333345D01*
X125604792Y-88359590D01*
X125590274Y-88379191D01*
X125568753Y-88395397D01*
X125548490Y-88406579D01*
X125533829Y-88413475D01*
X125519109Y-88418385D01*
X125501304Y-88421623D01*
X125477390Y-88423499D01*
X125444338Y-88424327D01*
X125399124Y-88424418D01*
X125376517Y-88424316D01*
X125328871Y-88423613D01*
X125285177Y-88422152D01*
X125248877Y-88420109D01*
X125223414Y-88417660D01*
X125214551Y-88416008D01*
X125182740Y-88399580D01*
X125154188Y-88372251D01*
X125134094Y-88339430D01*
X125130179Y-88328225D01*
X125127938Y-88311644D01*
X125126008Y-88279974D01*
X125124422Y-88234549D01*
X125123212Y-88176699D01*
X125122409Y-88107760D01*
X125122046Y-88029062D01*
X125122035Y-87989816D01*
X125122218Y-87904760D01*
X125122684Y-87834483D01*
X125123593Y-87777341D01*
X125125105Y-87731690D01*
X125127381Y-87695885D01*
X125130583Y-87668282D01*
X125134869Y-87647237D01*
X125140400Y-87631105D01*
X125147338Y-87618242D01*
X125155842Y-87607003D01*
X125159836Y-87602463D01*
X125174520Y-87587672D01*
X125189823Y-87576619D01*
X125208343Y-87568768D01*
X125232674Y-87563585D01*
X125265414Y-87560533D01*
X125309157Y-87559077D01*
X125366501Y-87558683D01*
X125372098Y-87558681D01*
X125425815Y-87558838D01*
G37*
G36*
X122495743Y-87556894D02*
G01*
X122539696Y-87562273D01*
X122573651Y-87571707D01*
X122599703Y-87585820D01*
X122619944Y-87605239D01*
X122636469Y-87630589D01*
X122639524Y-87636449D01*
X122648579Y-87657201D01*
X122654167Y-87678958D01*
X122657048Y-87706542D01*
X122657982Y-87744774D01*
X122658002Y-87753703D01*
X122658002Y-87834381D01*
X122577934Y-87832030D01*
X122497866Y-87829680D01*
X122495554Y-87768089D01*
X122492996Y-87731203D01*
X122486634Y-87707370D01*
X122473444Y-87693770D01*
X122450403Y-87687583D01*
X122414487Y-87685986D01*
X122407533Y-87685968D01*
X122384242Y-87685682D01*
X122365322Y-87685850D01*
X122350321Y-87688009D01*
X122338787Y-87693699D01*
X122330268Y-87704457D01*
X122324313Y-87721822D01*
X122320470Y-87747332D01*
X122318287Y-87782526D01*
X122317312Y-87828941D01*
X122317094Y-87888117D01*
X122317181Y-87961591D01*
X122317200Y-87993559D01*
X122317282Y-88070710D01*
X122317574Y-88133019D01*
X122318142Y-88182065D01*
X122319052Y-88219429D01*
X122320372Y-88246693D01*
X122322168Y-88265437D01*
X122324506Y-88277242D01*
X122327454Y-88283688D01*
X122329518Y-88285625D01*
X122344901Y-88290060D01*
X122370769Y-88292670D01*
X122402175Y-88293513D01*
X122434172Y-88292647D01*
X122461811Y-88290130D01*
X122480144Y-88286021D01*
X122483905Y-88283809D01*
X122489271Y-88270122D01*
X122492726Y-88243888D01*
X122493760Y-88214006D01*
X122493760Y-88154058D01*
X122659818Y-88154058D01*
X122656774Y-88242338D01*
X122653276Y-88294951D01*
X122646092Y-88334430D01*
X122633959Y-88363882D01*
X122615610Y-88386418D01*
X122590819Y-88404526D01*
X122579261Y-88410518D01*
X122565577Y-88414964D01*
X122547091Y-88418153D01*
X122521128Y-88420372D01*
X122485012Y-88421912D01*
X122436070Y-88423061D01*
X122415745Y-88423418D01*
X122362670Y-88424196D01*
X122323186Y-88424331D01*
X122294462Y-88423572D01*
X122273671Y-88421666D01*
X122257981Y-88418362D01*
X122244565Y-88413406D01*
X122231454Y-88406994D01*
X122214913Y-88398541D01*
X122201194Y-88390850D01*
X122190023Y-88382386D01*
X122181128Y-88371615D01*
X122174237Y-88357003D01*
X122169077Y-88337014D01*
X122165375Y-88310116D01*
X122162861Y-88274774D01*
X122161260Y-88229453D01*
X122160301Y-88172619D01*
X122159711Y-88102738D01*
X122159219Y-88018276D01*
X122159108Y-87999488D01*
X122158616Y-87915601D01*
X122158296Y-87846531D01*
X122158216Y-87790671D01*
X122158448Y-87746414D01*
X122159062Y-87712153D01*
X122160128Y-87686281D01*
X122161718Y-87667192D01*
X122163902Y-87653278D01*
X122166749Y-87642932D01*
X122170331Y-87634548D01*
X122174718Y-87626519D01*
X122175532Y-87625104D01*
X122192098Y-87601139D01*
X122212045Y-87583396D01*
X122238043Y-87570921D01*
X122272760Y-87562761D01*
X122318868Y-87557962D01*
X122369468Y-87555800D01*
X122439698Y-87554945D01*
X122495743Y-87556894D01*
G37*
G36*
X122649789Y-87374504D02*
G01*
X122569785Y-87372153D01*
X122489781Y-87369803D01*
X122485611Y-87346313D01*
X122481442Y-87322824D01*
X122465839Y-87340108D01*
X122447139Y-87354155D01*
X122422696Y-87365014D01*
X122420673Y-87365605D01*
X122389258Y-87370814D01*
X122348903Y-87372832D01*
X122306772Y-87371709D01*
X122270026Y-87367495D01*
X122256591Y-87364444D01*
X122216246Y-87347499D01*
X122187441Y-87321894D01*
X122172754Y-87298561D01*
X122168761Y-87290075D01*
X122165501Y-87280705D01*
X122162911Y-87268834D01*
X122160932Y-87252844D01*
X122159504Y-87231121D01*
X122158566Y-87202046D01*
X122158057Y-87164003D01*
X122157918Y-87115376D01*
X122158087Y-87054547D01*
X122158181Y-87037760D01*
X122314136Y-87037760D01*
X122314333Y-87092248D01*
X122314830Y-87138060D01*
X122315606Y-87172966D01*
X122316643Y-87194738D01*
X122317220Y-87199834D01*
X122327289Y-87224152D01*
X122340236Y-87234653D01*
X122360806Y-87239096D01*
X122389859Y-87240371D01*
X122421559Y-87238826D01*
X122450071Y-87234806D01*
X122469561Y-87228659D01*
X122472370Y-87226804D01*
X122475964Y-87222277D01*
X122478849Y-87214188D01*
X122481101Y-87200882D01*
X122482795Y-87180705D01*
X122484007Y-87152001D01*
X122484812Y-87113117D01*
X122485287Y-87062398D01*
X122485506Y-86998189D01*
X122485548Y-86938249D01*
X122485468Y-86862195D01*
X122485178Y-86800910D01*
X122484606Y-86752738D01*
X122483678Y-86716024D01*
X122482320Y-86689113D01*
X122480458Y-86670350D01*
X122478020Y-86658079D01*
X122474931Y-86650645D01*
X122472643Y-86647725D01*
X122457837Y-86641178D01*
X122432114Y-86636760D01*
X122400866Y-86634655D01*
X122369487Y-86635047D01*
X122343367Y-86638118D01*
X122329518Y-86642852D01*
X122326016Y-86647129D01*
X122323170Y-86656179D01*
X122320888Y-86671638D01*
X122319082Y-86695146D01*
X122317661Y-86728338D01*
X122316534Y-86772854D01*
X122315612Y-86830330D01*
X122314803Y-86902406D01*
X122314714Y-86911672D01*
X122314256Y-86976825D01*
X122314136Y-87037760D01*
X122158181Y-87037760D01*
X122158504Y-86979899D01*
X122158856Y-86926758D01*
X122159452Y-86843019D01*
X122160050Y-86774130D01*
X122160731Y-86718516D01*
X122161580Y-86674603D01*
X122162681Y-86640815D01*
X122164116Y-86615578D01*
X122165970Y-86597318D01*
X122168325Y-86584460D01*
X122171267Y-86575430D01*
X122174877Y-86568653D01*
X122178102Y-86564064D01*
X122197791Y-86540288D01*
X122217521Y-86524057D01*
X122241180Y-86513819D01*
X122272654Y-86508018D01*
X122315832Y-86505102D01*
X122326549Y-86504717D01*
X122378282Y-86504380D01*
X122416563Y-86507669D01*
X122444088Y-86515218D01*
X122463552Y-86527661D01*
X122473557Y-86539235D01*
X122481747Y-86549781D01*
X122484976Y-86547560D01*
X122485547Y-86530776D01*
X122485548Y-86529891D01*
X122485548Y-86503427D01*
X122649789Y-86503427D01*
X122649789Y-87374504D01*
G37*
G36*
X121837944Y-87558883D02*
G01*
X121878789Y-87559646D01*
X121908685Y-87561206D01*
X121930369Y-87563798D01*
X121946575Y-87567657D01*
X121960041Y-87573020D01*
X121962189Y-87574065D01*
X121984575Y-87587291D01*
X122002465Y-87603565D01*
X122016333Y-87624741D01*
X122026656Y-87652673D01*
X122033911Y-87689216D01*
X122038572Y-87736225D01*
X122041117Y-87795554D01*
X122042021Y-87869058D01*
X122042047Y-87885112D01*
X122042095Y-88039088D01*
X121688975Y-88039088D01*
X121688975Y-88156521D01*
X121689617Y-88211265D01*
X121691580Y-88250358D01*
X121694921Y-88274521D01*
X121698829Y-88283809D01*
X121711366Y-88288494D01*
X121735162Y-88291723D01*
X121765717Y-88293476D01*
X121798528Y-88293730D01*
X121829093Y-88292465D01*
X121852912Y-88289659D01*
X121865482Y-88285292D01*
X121866065Y-88284594D01*
X121869610Y-88272106D01*
X121873260Y-88248614D01*
X121875886Y-88223003D01*
X121880102Y-88170482D01*
X122035793Y-88170482D01*
X122032570Y-88250711D01*
X122028389Y-88302578D01*
X122019715Y-88341485D01*
X122005193Y-88370598D01*
X121983468Y-88393079D01*
X121966700Y-88404526D01*
X121955142Y-88410518D01*
X121941458Y-88414964D01*
X121922972Y-88418153D01*
X121897009Y-88420372D01*
X121860893Y-88421912D01*
X121811951Y-88423061D01*
X121791626Y-88423418D01*
X121738551Y-88424196D01*
X121699067Y-88424331D01*
X121670343Y-88423572D01*
X121649552Y-88421666D01*
X121633862Y-88418362D01*
X121620446Y-88413406D01*
X121607335Y-88406994D01*
X121581707Y-88390739D01*
X121559962Y-88371967D01*
X121553956Y-88364917D01*
X121549853Y-88358807D01*
X121546474Y-88351756D01*
X121543748Y-88342213D01*
X121541605Y-88328628D01*
X121539976Y-88309452D01*
X121538790Y-88283133D01*
X121537977Y-88248122D01*
X121537466Y-88202869D01*
X121537189Y-88145824D01*
X121537074Y-88075437D01*
X121537051Y-87991267D01*
X121537062Y-87924119D01*
X121688975Y-87924119D01*
X121877853Y-87924119D01*
X121877853Y-87820928D01*
X121877197Y-87780075D01*
X121875410Y-87744154D01*
X121872761Y-87716933D01*
X121869518Y-87702182D01*
X121869352Y-87701853D01*
X121863440Y-87694283D01*
X121853275Y-87689558D01*
X121835425Y-87687035D01*
X121806461Y-87686069D01*
X121784767Y-87685968D01*
X121742959Y-87687103D01*
X121713807Y-87690367D01*
X121699113Y-87695557D01*
X121698829Y-87695823D01*
X121694083Y-87708736D01*
X121690904Y-87736720D01*
X121689251Y-87780266D01*
X121688975Y-87814898D01*
X121688975Y-87924119D01*
X121537062Y-87924119D01*
X121537065Y-87906288D01*
X121537158Y-87836175D01*
X121537405Y-87779369D01*
X121537882Y-87734313D01*
X121538665Y-87699446D01*
X121539831Y-87673213D01*
X121541455Y-87654053D01*
X121543612Y-87640408D01*
X121546379Y-87630721D01*
X121549832Y-87623432D01*
X121554046Y-87616983D01*
X121555367Y-87615125D01*
X121570274Y-87596589D01*
X121586685Y-87582552D01*
X121607045Y-87572410D01*
X121633798Y-87565557D01*
X121669388Y-87561389D01*
X121716262Y-87559300D01*
X121776862Y-87558685D01*
X121783414Y-87558681D01*
X121837944Y-87558883D01*
G37*
G36*
X126039647Y-87559958D02*
G01*
X126084857Y-87570532D01*
X126118754Y-87588222D01*
X126142872Y-87614037D01*
X126158742Y-87648990D01*
X126167896Y-87694089D01*
X126170943Y-87728811D01*
X126175055Y-87800938D01*
X126008535Y-87800938D01*
X126008535Y-87747356D01*
X126008035Y-87718213D01*
X126005553Y-87701184D01*
X125999617Y-87691967D01*
X125988758Y-87686261D01*
X125987470Y-87685765D01*
X125951943Y-87678563D01*
X125912908Y-87679985D01*
X125889994Y-87685765D01*
X125868929Y-87693774D01*
X125868929Y-87803198D01*
X125869664Y-87856571D01*
X125871894Y-87894084D01*
X125875662Y-87916239D01*
X125878784Y-87922477D01*
X125892898Y-87927654D01*
X125922525Y-87930957D01*
X125966851Y-87932303D01*
X125975589Y-87932331D01*
X126032553Y-87934440D01*
X126076151Y-87941480D01*
X126108982Y-87954520D01*
X126133644Y-87974632D01*
X126152734Y-88002885D01*
X126154300Y-88005927D01*
X126161209Y-88020866D01*
X126166152Y-88035976D01*
X126169454Y-88054292D01*
X126171440Y-88078850D01*
X126172434Y-88112686D01*
X126172760Y-88158834D01*
X126172777Y-88178694D01*
X126172609Y-88229929D01*
X126171889Y-88267776D01*
X126170291Y-88295272D01*
X126167492Y-88315451D01*
X126163167Y-88331349D01*
X126156991Y-88346001D01*
X126154300Y-88351461D01*
X126132873Y-88382820D01*
X126102680Y-88404771D01*
X126099181Y-88406579D01*
X126083124Y-88413926D01*
X126066810Y-88419036D01*
X126046878Y-88422306D01*
X126019962Y-88424133D01*
X125982701Y-88424916D01*
X125942838Y-88425057D01*
X125894829Y-88424830D01*
X125859891Y-88423884D01*
X125834675Y-88421822D01*
X125815831Y-88418248D01*
X125800010Y-88412763D01*
X125786976Y-88406579D01*
X125758020Y-88389541D01*
X125738049Y-88370862D01*
X125725313Y-88347023D01*
X125718064Y-88314510D01*
X125714552Y-88269805D01*
X125714183Y-88260237D01*
X125711361Y-88178694D01*
X125868929Y-88178694D01*
X125868929Y-88231784D01*
X125870465Y-88264600D01*
X125877070Y-88285278D01*
X125891746Y-88296551D01*
X125917491Y-88301155D01*
X125945818Y-88301875D01*
X125973085Y-88300990D01*
X125992303Y-88296713D01*
X126004872Y-88286609D01*
X126012194Y-88268244D01*
X126015670Y-88239184D01*
X126016703Y-88196995D01*
X126016747Y-88178694D01*
X126016472Y-88131407D01*
X126014239Y-88098096D01*
X126007941Y-88076313D01*
X125995468Y-88063610D01*
X125974712Y-88057540D01*
X125943564Y-88055653D01*
X125910629Y-88055513D01*
X125872446Y-88054557D01*
X125837375Y-88051999D01*
X125810757Y-88048296D01*
X125802405Y-88046199D01*
X125764551Y-88025870D01*
X125733955Y-87994637D01*
X125714924Y-87957050D01*
X125713653Y-87952450D01*
X125709469Y-87926102D01*
X125706671Y-87888538D01*
X125705220Y-87843727D01*
X125705078Y-87795639D01*
X125706205Y-87748241D01*
X125708564Y-87705502D01*
X125712116Y-87671392D01*
X125716585Y-87650523D01*
X125730773Y-87618501D01*
X125748957Y-87594606D01*
X125773610Y-87577625D01*
X125807206Y-87566345D01*
X125852218Y-87559555D01*
X125909164Y-87556110D01*
X125981594Y-87555487D01*
X126039647Y-87559958D01*
G37*
G36*
X123837776Y-87555917D02*
G01*
X123839806Y-87555957D01*
X123901334Y-87557887D01*
X123948903Y-87561416D01*
X123984958Y-87567311D01*
X124011943Y-87576339D01*
X124032303Y-87589267D01*
X124048482Y-87606861D01*
X124060225Y-87625104D01*
X124064754Y-87633230D01*
X124068465Y-87641444D01*
X124071430Y-87651351D01*
X124073719Y-87664560D01*
X124075403Y-87682676D01*
X124076551Y-87707307D01*
X124077236Y-87740059D01*
X124077527Y-87782540D01*
X124077494Y-87836357D01*
X124077208Y-87903116D01*
X124076740Y-87984425D01*
X124076650Y-87999488D01*
X124076142Y-88087086D01*
X124075590Y-88159793D01*
X124074723Y-88219141D01*
X124073269Y-88266662D01*
X124070958Y-88303887D01*
X124067518Y-88332348D01*
X124062679Y-88353578D01*
X124056169Y-88369107D01*
X124047717Y-88380469D01*
X124037053Y-88389193D01*
X124023905Y-88396813D01*
X124008002Y-88404860D01*
X124004617Y-88406579D01*
X123990552Y-88413212D01*
X123976329Y-88418040D01*
X123959116Y-88421349D01*
X123936080Y-88423421D01*
X123904389Y-88424540D01*
X123861211Y-88424989D01*
X123820013Y-88425057D01*
X123766440Y-88424920D01*
X123726450Y-88424322D01*
X123697200Y-88422977D01*
X123675851Y-88420604D01*
X123659559Y-88416917D01*
X123645486Y-88411634D01*
X123634928Y-88406579D01*
X123603568Y-88385153D01*
X123581618Y-88354960D01*
X123579809Y-88351461D01*
X123575114Y-88341773D01*
X123571291Y-88332038D01*
X123568250Y-88320547D01*
X123565902Y-88305592D01*
X123564157Y-88285464D01*
X123562928Y-88258456D01*
X123562125Y-88222860D01*
X123561657Y-88176966D01*
X123561438Y-88119068D01*
X123561432Y-88112300D01*
X123726974Y-88112300D01*
X123727050Y-88168197D01*
X123727344Y-88215201D01*
X123727844Y-88251379D01*
X123728538Y-88274797D01*
X123729315Y-88283355D01*
X123737164Y-88288473D01*
X123757116Y-88291757D01*
X123790797Y-88293394D01*
X123819466Y-88293663D01*
X123858532Y-88293361D01*
X123884374Y-88292095D01*
X123900184Y-88289332D01*
X123909156Y-88284535D01*
X123914163Y-88277779D01*
X123916809Y-88264681D01*
X123918988Y-88237742D01*
X123920708Y-88199336D01*
X123921976Y-88151836D01*
X123922801Y-88097617D01*
X123923190Y-88039055D01*
X123923150Y-87978522D01*
X123922690Y-87918393D01*
X123921817Y-87861043D01*
X123920539Y-87808846D01*
X123918864Y-87764176D01*
X123916798Y-87729407D01*
X123914351Y-87706914D01*
X123912283Y-87699547D01*
X123905396Y-87693125D01*
X123893981Y-87689170D01*
X123874822Y-87687286D01*
X123844707Y-87687081D01*
X123815791Y-87687713D01*
X123729680Y-87690074D01*
X123727519Y-87981561D01*
X123727126Y-88049444D01*
X123726974Y-88112300D01*
X123561432Y-88112300D01*
X123561376Y-88047457D01*
X123561377Y-87998341D01*
X123561611Y-87916492D01*
X123562264Y-87842935D01*
X123563302Y-87779110D01*
X123564688Y-87726455D01*
X123566390Y-87686410D01*
X123568371Y-87660414D01*
X123569789Y-87651743D01*
X123586190Y-87619725D01*
X123614452Y-87590887D01*
X123650037Y-87569301D01*
X123669298Y-87562462D01*
X123692793Y-87558836D01*
X123730292Y-87556476D01*
X123779412Y-87555473D01*
X123837776Y-87555917D01*
G37*
G36*
X123996573Y-86533997D02*
G01*
X123996971Y-86553410D01*
X123999518Y-86558340D01*
X124006241Y-86550728D01*
X124009389Y-86546268D01*
X124027272Y-86526952D01*
X124050966Y-86514070D01*
X124083562Y-86506656D01*
X124128152Y-86503745D01*
X124146035Y-86503608D01*
X124205959Y-86507188D01*
X124252442Y-86517479D01*
X124284842Y-86534282D01*
X124300046Y-86552002D01*
X124311017Y-86566635D01*
X124321361Y-86565619D01*
X124333069Y-86548965D01*
X124348086Y-86529330D01*
X124370183Y-86515807D01*
X124401719Y-86507729D01*
X124445052Y-86504430D01*
X124489406Y-86504772D01*
X124535941Y-86507142D01*
X124569871Y-86511890D01*
X124594989Y-86520503D01*
X124615092Y-86534468D01*
X124633974Y-86555272D01*
X124640714Y-86564067D01*
X124644614Y-86569750D01*
X124647876Y-86576410D01*
X124650567Y-86585497D01*
X124652754Y-86598461D01*
X124654503Y-86616752D01*
X124655883Y-86641822D01*
X124656959Y-86675121D01*
X124657799Y-86718098D01*
X124658469Y-86772205D01*
X124659037Y-86838892D01*
X124659570Y-86919609D01*
X124659929Y-86980323D01*
X124662212Y-87373909D01*
X124505722Y-87373909D01*
X124505722Y-87025430D01*
X124505533Y-86941731D01*
X124504986Y-86866075D01*
X124504110Y-86799834D01*
X124502935Y-86744383D01*
X124501491Y-86701095D01*
X124499808Y-86671343D01*
X124497915Y-86656502D01*
X124497713Y-86655885D01*
X124492781Y-86645389D01*
X124485321Y-86639122D01*
X124471545Y-86635998D01*
X124447661Y-86634928D01*
X124424270Y-86634821D01*
X124390799Y-86635306D01*
X124369670Y-86637397D01*
X124356815Y-86642041D01*
X124348167Y-86650188D01*
X124346052Y-86653072D01*
X124342903Y-86659300D01*
X124340307Y-86669142D01*
X124338211Y-86684077D01*
X124336565Y-86705583D01*
X124335318Y-86735139D01*
X124334419Y-86774224D01*
X124333816Y-86824316D01*
X124333458Y-86886894D01*
X124333295Y-86963437D01*
X124333268Y-87022616D01*
X124333268Y-87373909D01*
X124169026Y-87373909D01*
X124169026Y-87013582D01*
X124168952Y-86925015D01*
X124168700Y-86851513D01*
X124168228Y-86791715D01*
X124167494Y-86744265D01*
X124166455Y-86707802D01*
X124165069Y-86680967D01*
X124163294Y-86662402D01*
X124161086Y-86650747D01*
X124158405Y-86644643D01*
X124157487Y-86643679D01*
X124142003Y-86638542D01*
X124112786Y-86636215D01*
X124081739Y-86636514D01*
X124049059Y-86638168D01*
X124028824Y-86640924D01*
X124017054Y-86646005D01*
X124009771Y-86654637D01*
X124007173Y-86659457D01*
X124004463Y-86669001D01*
X124002220Y-86686709D01*
X124000411Y-86713766D01*
X123999003Y-86751360D01*
X123997960Y-86800677D01*
X123997250Y-86862903D01*
X123996839Y-86939225D01*
X123996694Y-87026948D01*
X123996573Y-87373909D01*
X123919926Y-87373909D01*
X123885931Y-87373357D01*
X123858401Y-87371876D01*
X123841284Y-87369730D01*
X123837805Y-87368434D01*
X123836756Y-87359404D01*
X123835772Y-87335494D01*
X123834874Y-87298253D01*
X123834081Y-87249224D01*
X123833412Y-87189954D01*
X123832887Y-87121988D01*
X123832526Y-87046872D01*
X123832347Y-86966152D01*
X123832331Y-86933193D01*
X123832331Y-86503427D01*
X123996573Y-86503427D01*
X123996573Y-86533997D01*
G37*
G36*
X120908746Y-87236330D02*
G01*
X120952368Y-87239684D01*
X120986252Y-87245636D01*
X121012607Y-87254607D01*
X121033644Y-87267018D01*
X121051573Y-87283290D01*
X121055426Y-87287550D01*
X121073514Y-87312334D01*
X121085856Y-87340574D01*
X121093178Y-87375556D01*
X121096211Y-87420564D01*
X121095930Y-87470262D01*
X121093598Y-87558681D01*
X120918970Y-87563323D01*
X120915699Y-87481893D01*
X120912751Y-87437486D01*
X120908112Y-87405590D01*
X120902061Y-87388054D01*
X120901410Y-87387186D01*
X120893235Y-87381065D01*
X120878868Y-87377089D01*
X120855300Y-87374858D01*
X120819523Y-87373975D01*
X120801352Y-87373909D01*
X120761575Y-87374193D01*
X120735082Y-87375385D01*
X120718739Y-87377996D01*
X120709411Y-87382537D01*
X120703961Y-87389518D01*
X120703813Y-87389793D01*
X120700812Y-87403588D01*
X120698335Y-87431254D01*
X120696516Y-87470241D01*
X120695490Y-87518000D01*
X120695312Y-87549929D01*
X120695312Y-87694180D01*
X121007371Y-87694180D01*
X121007371Y-87833786D01*
X120695312Y-87833786D01*
X120695312Y-88043734D01*
X120695651Y-88111870D01*
X120696633Y-88169680D01*
X120698205Y-88215751D01*
X120700314Y-88248671D01*
X120702906Y-88267028D01*
X120703813Y-88269567D01*
X120709163Y-88276611D01*
X120718267Y-88281217D01*
X120734248Y-88283890D01*
X120760225Y-88285132D01*
X120799319Y-88285450D01*
X120802069Y-88285451D01*
X120842024Y-88285172D01*
X120868680Y-88283996D01*
X120885157Y-88281421D01*
X120894578Y-88276942D01*
X120900061Y-88270053D01*
X120900325Y-88269567D01*
X120903794Y-88255127D01*
X120906580Y-88228386D01*
X120908355Y-88193464D01*
X120908826Y-88162810D01*
X120908826Y-88071937D01*
X121089492Y-88071937D01*
X121089312Y-88188959D01*
X121088862Y-88238562D01*
X121087464Y-88275054D01*
X121084779Y-88301735D01*
X121080468Y-88321908D01*
X121074191Y-88338873D01*
X121073844Y-88339642D01*
X121048813Y-88376889D01*
X121012040Y-88403326D01*
X120978629Y-88415867D01*
X120957973Y-88419088D01*
X120924499Y-88421512D01*
X120881721Y-88423143D01*
X120833153Y-88423985D01*
X120782312Y-88424044D01*
X120732712Y-88423323D01*
X120687867Y-88421827D01*
X120651293Y-88419560D01*
X120626504Y-88416527D01*
X120621703Y-88415415D01*
X120577238Y-88395128D01*
X120544114Y-88363399D01*
X120530293Y-88339642D01*
X120527056Y-88331722D01*
X120524309Y-88322465D01*
X120522010Y-88310537D01*
X120520120Y-88294603D01*
X120518598Y-88273328D01*
X120517403Y-88245379D01*
X120516495Y-88209421D01*
X120515834Y-88164119D01*
X120515378Y-88108140D01*
X120515087Y-88040149D01*
X120514922Y-87958811D01*
X120514840Y-87862792D01*
X120514826Y-87830220D01*
X120514802Y-87729840D01*
X120514840Y-87644544D01*
X120514986Y-87572990D01*
X120515285Y-87513836D01*
X120515781Y-87465742D01*
X120516519Y-87427366D01*
X120517543Y-87397367D01*
X120518898Y-87374404D01*
X120520629Y-87357136D01*
X120522780Y-87344222D01*
X120525397Y-87334320D01*
X120528523Y-87326089D01*
X120531859Y-87318901D01*
X120555615Y-87284926D01*
X120587290Y-87260877D01*
X120601032Y-87253095D01*
X120613796Y-87247308D01*
X120628285Y-87243170D01*
X120647201Y-87240335D01*
X120673246Y-87238455D01*
X120709122Y-87237185D01*
X120757533Y-87236178D01*
X120783443Y-87235730D01*
X120853174Y-87235152D01*
X120908746Y-87236330D01*
G37*
G36*
X120692627Y-86820704D02*
G01*
X120726780Y-86837369D01*
X120753063Y-86868262D01*
X120762342Y-86886391D01*
X120772332Y-86912901D01*
X120774609Y-86934148D01*
X120770364Y-86957963D01*
X120765842Y-86980629D01*
X120768282Y-86995499D01*
X120779486Y-87010374D01*
X120783444Y-87014565D01*
X120792892Y-87023871D01*
X120802325Y-87030199D01*
X120814955Y-87034123D01*
X120833993Y-87036217D01*
X120862651Y-87037055D01*
X120904140Y-87037213D01*
X120910074Y-87037213D01*
X120953735Y-87036997D01*
X120983818Y-87036088D01*
X121003169Y-87034096D01*
X121014629Y-87030629D01*
X121021044Y-87025298D01*
X121023333Y-87021653D01*
X121033788Y-87009327D01*
X121051451Y-87000195D01*
X121078324Y-86993884D01*
X121116410Y-86990018D01*
X121167709Y-86988225D01*
X121203634Y-86987986D01*
X121263438Y-86988587D01*
X121309052Y-86990687D01*
X121342680Y-86994812D01*
X121366527Y-87001486D01*
X121382797Y-87011234D01*
X121393694Y-87024581D01*
X121398506Y-87034378D01*
X121405992Y-87059771D01*
X121403741Y-87083229D01*
X121401272Y-87091439D01*
X121393941Y-87108999D01*
X121383630Y-87122192D01*
X121368115Y-87131612D01*
X121345174Y-87137854D01*
X121312584Y-87141512D01*
X121268122Y-87143182D01*
X121209565Y-87143459D01*
X121206922Y-87143450D01*
X121159842Y-87142884D01*
X121117602Y-87141652D01*
X121083333Y-87139901D01*
X121060170Y-87137779D01*
X121052253Y-87136156D01*
X121033080Y-87124315D01*
X121024558Y-87116147D01*
X121017735Y-87110856D01*
X121005792Y-87107149D01*
X120986150Y-87104768D01*
X120956234Y-87103454D01*
X120913467Y-87102945D01*
X120893063Y-87102910D01*
X120772554Y-87102910D01*
X120741074Y-87070672D01*
X120727510Y-87057691D01*
X121074693Y-87057691D01*
X121075734Y-87074403D01*
X121081569Y-87087026D01*
X121086140Y-87093270D01*
X121093819Y-87097631D01*
X121107273Y-87100442D01*
X121129170Y-87102036D01*
X121162174Y-87102748D01*
X121208567Y-87102910D01*
X121255240Y-87102745D01*
X121288156Y-87102029D01*
X121309983Y-87100427D01*
X121323387Y-87097606D01*
X121331035Y-87093233D01*
X121335566Y-87087026D01*
X121343315Y-87066642D01*
X121339135Y-87051191D01*
X121331162Y-87041906D01*
X121316814Y-87035895D01*
X121290055Y-87031528D01*
X121254813Y-87028803D01*
X121215020Y-87027722D01*
X121174606Y-87028284D01*
X121137499Y-87030488D01*
X121107631Y-87034336D01*
X121088931Y-87039826D01*
X121085973Y-87041906D01*
X121074693Y-87057691D01*
X120727510Y-87057691D01*
X120721760Y-87052188D01*
X120708266Y-87044055D01*
X120695818Y-87044075D01*
X120688450Y-87046473D01*
X120665935Y-87050527D01*
X120639151Y-87049711D01*
X120636384Y-87049288D01*
X120596020Y-87034880D01*
X120565147Y-87008211D01*
X120545624Y-86971562D01*
X120539282Y-86930078D01*
X120539516Y-86928693D01*
X120605430Y-86928693D01*
X120609415Y-86953781D01*
X120621403Y-86971516D01*
X120643144Y-86985921D01*
X120666595Y-86985029D01*
X120679820Y-86979229D01*
X120698395Y-86961330D01*
X120706766Y-86936710D01*
X120702674Y-86912180D01*
X120702296Y-86911441D01*
X120687056Y-86890582D01*
X120667059Y-86882124D01*
X120654898Y-86881309D01*
X120629843Y-86887955D01*
X120612796Y-86905250D01*
X120605430Y-86928693D01*
X120539516Y-86928693D01*
X120546437Y-86887716D01*
X120566919Y-86853977D01*
X120599258Y-86830360D01*
X120641980Y-86818367D01*
X120649573Y-86817635D01*
X120692627Y-86820704D01*
G37*
G36*
X120796095Y-86187851D02*
G01*
X120826446Y-86211508D01*
X120841557Y-86232548D01*
X120855447Y-86256961D01*
X121401865Y-86257012D01*
X121948282Y-86257064D01*
X121984442Y-86275542D01*
X122003001Y-86285126D01*
X122017951Y-86294133D01*
X122029680Y-86304360D01*
X122038580Y-86317605D01*
X122045041Y-86335666D01*
X122049453Y-86360340D01*
X122052206Y-86393424D01*
X122053691Y-86436716D01*
X122054297Y-86492014D01*
X122054415Y-86561115D01*
X122054413Y-86597866D01*
X122054388Y-86673890D01*
X122054054Y-86735287D01*
X122053020Y-86783855D01*
X122050897Y-86821391D01*
X122047293Y-86849694D01*
X122041819Y-86870561D01*
X122034085Y-86885788D01*
X122023699Y-86897175D01*
X122010273Y-86906518D01*
X121993416Y-86915615D01*
X121984442Y-86920191D01*
X121969301Y-86927258D01*
X121953936Y-86932262D01*
X121935203Y-86935555D01*
X121909963Y-86937487D01*
X121875072Y-86938407D01*
X121827390Y-86938665D01*
X121818628Y-86938668D01*
X121688975Y-86938668D01*
X121688975Y-87373909D01*
X121533227Y-87373909D01*
X121531033Y-87166554D01*
X121528839Y-86959198D01*
X120961729Y-86954884D01*
X120867662Y-86860549D01*
X120773594Y-86766214D01*
X120621537Y-86766316D01*
X120469479Y-86766417D01*
X120451783Y-86793752D01*
X120423786Y-86823161D01*
X120387364Y-86841565D01*
X120347614Y-86846571D01*
X120340735Y-86845896D01*
X120299692Y-86833733D01*
X120268813Y-86811511D01*
X120248098Y-86782074D01*
X120237548Y-86748264D01*
X120237464Y-86740572D01*
X120303795Y-86740572D01*
X120314527Y-86763180D01*
X120334472Y-86778590D01*
X120354510Y-86782638D01*
X120375752Y-86776927D01*
X120391464Y-86766214D01*
X120405849Y-86742350D01*
X120404241Y-86716811D01*
X120390033Y-86694888D01*
X120365928Y-86678857D01*
X120340349Y-86678319D01*
X120317555Y-86692305D01*
X120304173Y-86715403D01*
X120303795Y-86740572D01*
X120237464Y-86740572D01*
X120237161Y-86712925D01*
X120246939Y-86678899D01*
X120266881Y-86649029D01*
X120296987Y-86626159D01*
X120337258Y-86613131D01*
X120340735Y-86612623D01*
X120379888Y-86614900D01*
X120416509Y-86630402D01*
X120445261Y-86656592D01*
X120450911Y-86665045D01*
X120466995Y-86692305D01*
X120806443Y-86692305D01*
X120994785Y-86881183D01*
X121532945Y-86881183D01*
X121532945Y-86659457D01*
X120936541Y-86659457D01*
X120874155Y-86601972D01*
X120811769Y-86544488D01*
X120650145Y-86545120D01*
X120633721Y-86570807D01*
X120605404Y-86604728D01*
X120572201Y-86623883D01*
X120532535Y-86629767D01*
X120491209Y-86622894D01*
X120457995Y-86604232D01*
X120433729Y-86576714D01*
X120419246Y-86543274D01*
X120415379Y-86506848D01*
X120415718Y-86505218D01*
X120482776Y-86505218D01*
X120484705Y-86528240D01*
X120495635Y-86549115D01*
X120515494Y-86563917D01*
X120533663Y-86568476D01*
X120545589Y-86565484D01*
X120556639Y-86560413D01*
X120575214Y-86542513D01*
X120583584Y-86517893D01*
X120579493Y-86493363D01*
X120579114Y-86492624D01*
X120563874Y-86471766D01*
X120543878Y-86463307D01*
X120531716Y-86462492D01*
X120506210Y-86468420D01*
X120489921Y-86483970D01*
X120482776Y-86505218D01*
X120415718Y-86505218D01*
X120422965Y-86470369D01*
X120442839Y-86436771D01*
X120470639Y-86412256D01*
X120505287Y-86398431D01*
X120543772Y-86397259D01*
X120581412Y-86407547D01*
X120613528Y-86428101D01*
X120633533Y-86453791D01*
X120646461Y-86478791D01*
X120840051Y-86478791D01*
X120902555Y-86536384D01*
X120965058Y-86593977D01*
X121246949Y-86591816D01*
X121528839Y-86589654D01*
X121528839Y-86515745D01*
X121468185Y-86513310D01*
X121435696Y-86512606D01*
X121414740Y-86514351D01*
X121400490Y-86519525D01*
X121388121Y-86529112D01*
X121387455Y-86529734D01*
X121379915Y-86536247D01*
X121371527Y-86541057D01*
X121359850Y-86544422D01*
X121342443Y-86546600D01*
X121316863Y-86547849D01*
X121280671Y-86548425D01*
X121231424Y-86548587D01*
X121208768Y-86548594D01*
X121148524Y-86548340D01*
X121102600Y-86547169D01*
X121068895Y-86544471D01*
X121045308Y-86539633D01*
X121029737Y-86532043D01*
X121020083Y-86521089D01*
X121014242Y-86506160D01*
X121010911Y-86490979D01*
X121011100Y-86477735D01*
X121073068Y-86477735D01*
X121074726Y-86490290D01*
X121081191Y-86499345D01*
X121094704Y-86505454D01*
X121117502Y-86509169D01*
X121151824Y-86511043D01*
X121199909Y-86511628D01*
X121210386Y-86511639D01*
X121256456Y-86511564D01*
X121288807Y-86511048D01*
X121310144Y-86509654D01*
X121323173Y-86506945D01*
X121330597Y-86502485D01*
X121335124Y-86495837D01*
X121337334Y-86491142D01*
X121342238Y-86473120D01*
X121335251Y-86458215D01*
X121331779Y-86454188D01*
X121324268Y-86447451D01*
X121314108Y-86442840D01*
X121298327Y-86439958D01*
X121273952Y-86438412D01*
X121238013Y-86437807D01*
X121207881Y-86437730D01*
X121157215Y-86438362D01*
X121120750Y-86440690D01*
X121096296Y-86445364D01*
X121081662Y-86453034D01*
X121074658Y-86464350D01*
X121073068Y-86477735D01*
X121011100Y-86477735D01*
X121011298Y-86463822D01*
X121020142Y-86436839D01*
X121034815Y-86416330D01*
X121044693Y-86409983D01*
X121056833Y-86408371D01*
X121082558Y-86406968D01*
X121119030Y-86405861D01*
X121163411Y-86405137D01*
X121212072Y-86404882D01*
X121266270Y-86404990D01*
X121306451Y-86405470D01*
X121335021Y-86406556D01*
X121354387Y-86408482D01*
X121366954Y-86411482D01*
X121375130Y-86415789D01*
X121381021Y-86421306D01*
X121390982Y-86429624D01*
X121404990Y-86434606D01*
X121427062Y-86437044D01*
X121461212Y-86437728D01*
X121464415Y-86437730D01*
X121532945Y-86437730D01*
X121532945Y-86388458D01*
X121688975Y-86388458D01*
X121688975Y-86807780D01*
X121789064Y-86805474D01*
X121889153Y-86803169D01*
X121896401Y-86775147D01*
X121898473Y-86758561D01*
X121900055Y-86728513D01*
X121901078Y-86687962D01*
X121901475Y-86639867D01*
X121901176Y-86587184D01*
X121901016Y-86575693D01*
X121899927Y-86516661D01*
X121898606Y-86472050D01*
X121896883Y-86439857D01*
X121894594Y-86418078D01*
X121891569Y-86404711D01*
X121887643Y-86397752D01*
X121886065Y-86396485D01*
X121873208Y-86393339D01*
X121847814Y-86390779D01*
X121813771Y-86389100D01*
X121781361Y-86388584D01*
X121688975Y-86388458D01*
X121532945Y-86388458D01*
X121532945Y-86339185D01*
X120852460Y-86339185D01*
X120835638Y-86362809D01*
X120806845Y-86391338D01*
X120772885Y-86406776D01*
X120736659Y-86410253D01*
X120701068Y-86402901D01*
X120669012Y-86385851D01*
X120643392Y-86360232D01*
X120627108Y-86327175D01*
X120623111Y-86288305D01*
X120688933Y-86288305D01*
X120692653Y-86313089D01*
X120705072Y-86330653D01*
X120730487Y-86345185D01*
X120756709Y-86344247D01*
X120777433Y-86330973D01*
X120790815Y-86307876D01*
X120791193Y-86282706D01*
X120780461Y-86260099D01*
X120760516Y-86244688D01*
X120740478Y-86240640D01*
X120714658Y-86247472D01*
X120696872Y-86264896D01*
X120688933Y-86288305D01*
X120623111Y-86288305D01*
X120623060Y-86287812D01*
X120623841Y-86280244D01*
X120636110Y-86240293D01*
X120659026Y-86209271D01*
X120689536Y-86187847D01*
X120724586Y-86176690D01*
X120761123Y-86176468D01*
X120796095Y-86187851D01*
G37*
%TO.C,C107*%
X175665000Y-101961252D02*
X175665000Y-101438748D01*
X177135000Y-101961252D02*
X177135000Y-101438748D01*
%TO.C,R119*%
X168902500Y-85547258D02*
X168902500Y-85072742D01*
X169947500Y-85547258D02*
X169947500Y-85072742D01*
%TO.C,C109*%
X160238748Y-83765000D02*
X160761252Y-83765000D01*
X160238748Y-85235000D02*
X160761252Y-85235000D01*
%TO.C,J202*%
X119370000Y-94750000D02*
X112110000Y-94750000D01*
X119370000Y-94750000D02*
X119370000Y-96250000D01*
X119370000Y-102750000D02*
X119370000Y-104250000D01*
X119370000Y-104250000D02*
X112110000Y-104250000D01*
%TO.C,R113*%
X156777500Y-91754724D02*
X156777500Y-91245276D01*
X157822500Y-91754724D02*
X157822500Y-91245276D01*
%TO.C,R106*%
X176272936Y-104390000D02*
X177727064Y-104390000D01*
X176272936Y-106210000D02*
X177727064Y-106210000D01*
%TO.C,R118*%
X169987742Y-87077500D02*
X170462258Y-87077500D01*
X169987742Y-88122500D02*
X170462258Y-88122500D01*
%TO.C,C106*%
X177235000Y-86238748D02*
X177235000Y-86761252D01*
X175765000Y-86238748D02*
X175765000Y-86761252D01*
%TO.C,L104*%
X178950000Y-86800000D02*
X179650000Y-86800000D01*
X178950000Y-89000000D02*
X179650000Y-89000000D01*
%TO.C,R104*%
X152822500Y-88545276D02*
X152822500Y-89054724D01*
X151777500Y-88545276D02*
X151777500Y-89054724D01*
%TO.C,J102*%
X131940000Y-94440000D02*
X133000000Y-94440000D01*
X131940000Y-95500000D02*
X131940000Y-94440000D01*
X131940000Y-96500000D02*
X131940000Y-104560000D01*
X131940000Y-96500000D02*
X134000000Y-96500000D01*
X131940000Y-104560000D02*
X136060000Y-104560000D01*
X134000000Y-94440000D02*
X136060000Y-94440000D01*
X134000000Y-96500000D02*
X134000000Y-94440000D01*
X136060000Y-94440000D02*
X136060000Y-104560000D01*
%TO.C,R103*%
X179562742Y-90377500D02*
X180037258Y-90377500D01*
X179562742Y-91422500D02*
X180037258Y-91422500D01*
%TO.C,R109*%
X171377500Y-90137258D02*
X171377500Y-89662742D01*
X172422500Y-90137258D02*
X172422500Y-89662742D01*
%TO.C,U103*%
X162975000Y-88440000D02*
X159525000Y-88440000D01*
X162975000Y-88440000D02*
X164925000Y-88440000D01*
X162975000Y-93560000D02*
X161025000Y-93560000D01*
X162975000Y-93560000D02*
X164925000Y-93560000D01*
%TO.C,R101*%
X120227500Y-97237258D02*
X120227500Y-96762742D01*
X121272500Y-97237258D02*
X121272500Y-96762742D01*
%TO.C,C118*%
X174310000Y-87653733D02*
X174310000Y-87946267D01*
X173290000Y-87653733D02*
X173290000Y-87946267D01*
%TO.C,C114*%
X163238748Y-101765000D02*
X163761252Y-101765000D01*
X163238748Y-103235000D02*
X163761252Y-103235000D01*
%TO.C,C116*%
X167665000Y-99523752D02*
X167665000Y-99001248D01*
X169135000Y-99523752D02*
X169135000Y-99001248D01*
%TO.C,L102*%
X121772936Y-93265000D02*
X122227064Y-93265000D01*
X121772936Y-94735000D02*
X122227064Y-94735000D01*
%TO.C,R115*%
X158657776Y-85977500D02*
X159167224Y-85977500D01*
X158657776Y-87022500D02*
X159167224Y-87022500D01*
%TO.C,U106*%
X173635000Y-111995000D02*
X177085000Y-111995000D01*
X173635000Y-111995000D02*
X171685000Y-111995000D01*
X173635000Y-106875000D02*
X175585000Y-106875000D01*
X173635000Y-106875000D02*
X171685000Y-106875000D01*
%TO.C,R108*%
X167677500Y-90737258D02*
X167677500Y-90262742D01*
X168722500Y-90737258D02*
X168722500Y-90262742D01*
%TO.C,C101*%
X183765000Y-94223752D02*
X183765000Y-93701248D01*
X185235000Y-94223752D02*
X185235000Y-93701248D01*
%TO.C,U1*%
X169615000Y-97947500D02*
X169890000Y-97947500D01*
X169890000Y-97947500D02*
X169890000Y-99237500D01*
X179535000Y-97947500D02*
X179260000Y-97947500D01*
X169615000Y-95637500D02*
X169615000Y-97947500D01*
X169615000Y-95637500D02*
X169615000Y-93327500D01*
X179535000Y-95637500D02*
X179535000Y-97947500D01*
X179535000Y-95637500D02*
X179535000Y-93327500D01*
X169615000Y-93327500D02*
X169890000Y-93327500D01*
X179535000Y-93327500D02*
X179260000Y-93327500D01*
%TO.C,C111*%
X160988748Y-94015000D02*
X161511252Y-94015000D01*
X160988748Y-95485000D02*
X161511252Y-95485000D01*
%TO.C,FL101*%
X126600000Y-101570000D02*
X127400000Y-101570000D01*
X126600000Y-99730000D02*
X127400000Y-99730000D01*
%TO.C,R117*%
X154522500Y-106082776D02*
X154522500Y-106592224D01*
X153477500Y-106082776D02*
X153477500Y-106592224D01*
%TO.C,R107*%
X169877500Y-90137258D02*
X169877500Y-89662742D01*
X170922500Y-90137258D02*
X170922500Y-89662742D01*
%TO.C,R114*%
X154777500Y-91754724D02*
X154777500Y-91245276D01*
X155822500Y-91754724D02*
X155822500Y-91245276D01*
%TO.C,L103*%
X178850000Y-100800000D02*
X179550000Y-100800000D01*
X178850000Y-103000000D02*
X179550000Y-103000000D01*
%TO.C,J201*%
X181440000Y-97190000D02*
X182500000Y-97190000D01*
X181440000Y-98250000D02*
X181440000Y-97190000D01*
X181440000Y-99250000D02*
X181440000Y-101310000D01*
X181440000Y-99250000D02*
X183560000Y-99250000D01*
X181440000Y-101310000D02*
X183560000Y-101310000D01*
X183560000Y-99250000D02*
X183560000Y-101310000D01*
%TO.C,L101*%
X128727064Y-104235000D02*
X128272936Y-104235000D01*
X128727064Y-102765000D02*
X128272936Y-102765000D01*
%TO.C,R116*%
X153002500Y-105645276D02*
X153002500Y-106154724D01*
X151957500Y-105645276D02*
X151957500Y-106154724D01*
%TO.C,C112*%
X167353733Y-110990000D02*
X167646267Y-110990000D01*
X167353733Y-112010000D02*
X167646267Y-112010000D01*
%TO.C,C117*%
X165990000Y-99246267D02*
X165990000Y-98953733D01*
X167010000Y-99246267D02*
X167010000Y-98953733D01*
%TO.C,C103*%
X156038748Y-87865000D02*
X156561252Y-87865000D01*
X156038748Y-89335000D02*
X156561252Y-89335000D01*
%TO.C,C102*%
X181465000Y-87161252D02*
X181465000Y-86638748D01*
X182935000Y-87161252D02*
X182935000Y-86638748D01*
%TO.C,R102*%
X115512742Y-91477500D02*
X115987258Y-91477500D01*
X115512742Y-92522500D02*
X115987258Y-92522500D01*
%TO.C,C113*%
X166396267Y-88010000D02*
X166103733Y-88010000D01*
X166396267Y-86990000D02*
X166103733Y-86990000D01*
%TO.C,U102*%
X161240000Y-103655000D02*
X161240000Y-104400000D01*
X161240000Y-104400000D02*
X159550000Y-104400000D01*
X161240000Y-110075000D02*
X161240000Y-109330000D01*
X164000000Y-103655000D02*
X161240000Y-103655000D01*
X164000000Y-103655000D02*
X166760000Y-103655000D01*
X164000000Y-110075000D02*
X161240000Y-110075000D01*
X164000000Y-110075000D02*
X166760000Y-110075000D01*
X166760000Y-103655000D02*
X166760000Y-104400000D01*
X166760000Y-110075000D02*
X166760000Y-109330000D01*
%TO.C,R112*%
X178857500Y-110480276D02*
X178857500Y-110989724D01*
X177812500Y-110480276D02*
X177812500Y-110989724D01*
%TD*%
M02*
