%TF.GenerationSoftware,KiCad,Pcbnew,7.0.6-7.0.6~ubuntu22.04.1*%
%TF.CreationDate,2023-09-01T17:27:27+01:00*%
%TF.ProjectId,tec-controller,7465632d-636f-46e7-9472-6f6c6c65722e,rev?*%
%TF.SameCoordinates,Original*%
%TF.FileFunction,Legend,Bot*%
%TF.FilePolarity,Positive*%
%FSLAX46Y46*%
G04 Gerber Fmt 4.6, Leading zero omitted, Abs format (unit mm)*
G04 Created by KiCad (PCBNEW 7.0.6-7.0.6~ubuntu22.04.1) date 2023-09-01 17:27:27*
%MOMM*%
%LPD*%
G01*
G04 APERTURE LIST*
%ADD10C,0.150000*%
%ADD11C,0.120000*%
G04 APERTURE END LIST*
D10*
X189190475Y-99954819D02*
X189190475Y-98954819D01*
X189190475Y-98954819D02*
X188809523Y-98954819D01*
X188809523Y-98954819D02*
X188714285Y-99002438D01*
X188714285Y-99002438D02*
X188666666Y-99050057D01*
X188666666Y-99050057D02*
X188619047Y-99145295D01*
X188619047Y-99145295D02*
X188619047Y-99288152D01*
X188619047Y-99288152D02*
X188666666Y-99383390D01*
X188666666Y-99383390D02*
X188714285Y-99431009D01*
X188714285Y-99431009D02*
X188809523Y-99478628D01*
X188809523Y-99478628D02*
X189190475Y-99478628D01*
X188190475Y-99431009D02*
X187857142Y-99431009D01*
X187714285Y-99954819D02*
X188190475Y-99954819D01*
X188190475Y-99954819D02*
X188190475Y-98954819D01*
X188190475Y-98954819D02*
X187714285Y-98954819D01*
X186761904Y-99954819D02*
X187333332Y-99954819D01*
X187047618Y-99954819D02*
X187047618Y-98954819D01*
X187047618Y-98954819D02*
X187142856Y-99097676D01*
X187142856Y-99097676D02*
X187238094Y-99192914D01*
X187238094Y-99192914D02*
X187333332Y-99240533D01*
X158285713Y-113907200D02*
X158142856Y-113954819D01*
X158142856Y-113954819D02*
X157904761Y-113954819D01*
X157904761Y-113954819D02*
X157809523Y-113907200D01*
X157809523Y-113907200D02*
X157761904Y-113859580D01*
X157761904Y-113859580D02*
X157714285Y-113764342D01*
X157714285Y-113764342D02*
X157714285Y-113669104D01*
X157714285Y-113669104D02*
X157761904Y-113573866D01*
X157761904Y-113573866D02*
X157809523Y-113526247D01*
X157809523Y-113526247D02*
X157904761Y-113478628D01*
X157904761Y-113478628D02*
X158095237Y-113431009D01*
X158095237Y-113431009D02*
X158190475Y-113383390D01*
X158190475Y-113383390D02*
X158238094Y-113335771D01*
X158238094Y-113335771D02*
X158285713Y-113240533D01*
X158285713Y-113240533D02*
X158285713Y-113145295D01*
X158285713Y-113145295D02*
X158238094Y-113050057D01*
X158238094Y-113050057D02*
X158190475Y-113002438D01*
X158190475Y-113002438D02*
X158095237Y-112954819D01*
X158095237Y-112954819D02*
X157857142Y-112954819D01*
X157857142Y-112954819D02*
X157714285Y-113002438D01*
X157380951Y-112954819D02*
X157142856Y-113954819D01*
X157142856Y-113954819D02*
X156952380Y-113240533D01*
X156952380Y-113240533D02*
X156761904Y-113954819D01*
X156761904Y-113954819D02*
X156523809Y-112954819D01*
X155619047Y-113954819D02*
X156190475Y-113954819D01*
X155904761Y-113954819D02*
X155904761Y-112954819D01*
X155904761Y-112954819D02*
X155999999Y-113097676D01*
X155999999Y-113097676D02*
X156095237Y-113192914D01*
X156095237Y-113192914D02*
X156190475Y-113240533D01*
X154999999Y-112954819D02*
X154904761Y-112954819D01*
X154904761Y-112954819D02*
X154809523Y-113002438D01*
X154809523Y-113002438D02*
X154761904Y-113050057D01*
X154761904Y-113050057D02*
X154714285Y-113145295D01*
X154714285Y-113145295D02*
X154666666Y-113335771D01*
X154666666Y-113335771D02*
X154666666Y-113573866D01*
X154666666Y-113573866D02*
X154714285Y-113764342D01*
X154714285Y-113764342D02*
X154761904Y-113859580D01*
X154761904Y-113859580D02*
X154809523Y-113907200D01*
X154809523Y-113907200D02*
X154904761Y-113954819D01*
X154904761Y-113954819D02*
X154999999Y-113954819D01*
X154999999Y-113954819D02*
X155095237Y-113907200D01*
X155095237Y-113907200D02*
X155142856Y-113859580D01*
X155142856Y-113859580D02*
X155190475Y-113764342D01*
X155190475Y-113764342D02*
X155238094Y-113573866D01*
X155238094Y-113573866D02*
X155238094Y-113335771D01*
X155238094Y-113335771D02*
X155190475Y-113145295D01*
X155190475Y-113145295D02*
X155142856Y-113050057D01*
X155142856Y-113050057D02*
X155095237Y-113002438D01*
X155095237Y-113002438D02*
X154999999Y-112954819D01*
X154333332Y-112954819D02*
X153714285Y-112954819D01*
X153714285Y-112954819D02*
X154047618Y-113335771D01*
X154047618Y-113335771D02*
X153904761Y-113335771D01*
X153904761Y-113335771D02*
X153809523Y-113383390D01*
X153809523Y-113383390D02*
X153761904Y-113431009D01*
X153761904Y-113431009D02*
X153714285Y-113526247D01*
X153714285Y-113526247D02*
X153714285Y-113764342D01*
X153714285Y-113764342D02*
X153761904Y-113859580D01*
X153761904Y-113859580D02*
X153809523Y-113907200D01*
X153809523Y-113907200D02*
X153904761Y-113954819D01*
X153904761Y-113954819D02*
X154190475Y-113954819D01*
X154190475Y-113954819D02*
X154285713Y-113907200D01*
X154285713Y-113907200D02*
X154333332Y-113859580D01*
X175644523Y-112489819D02*
X175073095Y-112489819D01*
X175358809Y-113489819D02*
X175358809Y-112489819D01*
X174739761Y-112966009D02*
X174406428Y-112966009D01*
X174263571Y-113489819D02*
X174739761Y-113489819D01*
X174739761Y-113489819D02*
X174739761Y-112489819D01*
X174739761Y-112489819D02*
X174263571Y-112489819D01*
X173834999Y-113489819D02*
X173834999Y-112489819D01*
X173834999Y-112489819D02*
X173501666Y-113204104D01*
X173501666Y-113204104D02*
X173168333Y-112489819D01*
X173168333Y-112489819D02*
X173168333Y-113489819D01*
X172692142Y-113489819D02*
X172692142Y-112489819D01*
X172692142Y-112489819D02*
X172311190Y-112489819D01*
X172311190Y-112489819D02*
X172215952Y-112537438D01*
X172215952Y-112537438D02*
X172168333Y-112585057D01*
X172168333Y-112585057D02*
X172120714Y-112680295D01*
X172120714Y-112680295D02*
X172120714Y-112823152D01*
X172120714Y-112823152D02*
X172168333Y-112918390D01*
X172168333Y-112918390D02*
X172215952Y-112966009D01*
X172215952Y-112966009D02*
X172311190Y-113013628D01*
X172311190Y-113013628D02*
X172692142Y-113013628D01*
X171930238Y-113585057D02*
X171168333Y-113585057D01*
X170930237Y-113489819D02*
X170930237Y-112489819D01*
X170930237Y-112489819D02*
X170692142Y-112489819D01*
X170692142Y-112489819D02*
X170549285Y-112537438D01*
X170549285Y-112537438D02*
X170454047Y-112632676D01*
X170454047Y-112632676D02*
X170406428Y-112727914D01*
X170406428Y-112727914D02*
X170358809Y-112918390D01*
X170358809Y-112918390D02*
X170358809Y-113061247D01*
X170358809Y-113061247D02*
X170406428Y-113251723D01*
X170406428Y-113251723D02*
X170454047Y-113346961D01*
X170454047Y-113346961D02*
X170549285Y-113442200D01*
X170549285Y-113442200D02*
X170692142Y-113489819D01*
X170692142Y-113489819D02*
X170930237Y-113489819D01*
X169739761Y-112489819D02*
X169549285Y-112489819D01*
X169549285Y-112489819D02*
X169454047Y-112537438D01*
X169454047Y-112537438D02*
X169358809Y-112632676D01*
X169358809Y-112632676D02*
X169311190Y-112823152D01*
X169311190Y-112823152D02*
X169311190Y-113156485D01*
X169311190Y-113156485D02*
X169358809Y-113346961D01*
X169358809Y-113346961D02*
X169454047Y-113442200D01*
X169454047Y-113442200D02*
X169549285Y-113489819D01*
X169549285Y-113489819D02*
X169739761Y-113489819D01*
X169739761Y-113489819D02*
X169834999Y-113442200D01*
X169834999Y-113442200D02*
X169930237Y-113346961D01*
X169930237Y-113346961D02*
X169977856Y-113156485D01*
X169977856Y-113156485D02*
X169977856Y-112823152D01*
X169977856Y-112823152D02*
X169930237Y-112632676D01*
X169930237Y-112632676D02*
X169834999Y-112537438D01*
X169834999Y-112537438D02*
X169739761Y-112489819D01*
X168977856Y-112489819D02*
X168739761Y-113489819D01*
X168739761Y-113489819D02*
X168549285Y-112775533D01*
X168549285Y-112775533D02*
X168358809Y-113489819D01*
X168358809Y-113489819D02*
X168120714Y-112489819D01*
X167739761Y-113489819D02*
X167739761Y-112489819D01*
X167739761Y-112489819D02*
X167168333Y-113489819D01*
X167168333Y-113489819D02*
X167168333Y-112489819D01*
X158285713Y-108907200D02*
X158142856Y-108954819D01*
X158142856Y-108954819D02*
X157904761Y-108954819D01*
X157904761Y-108954819D02*
X157809523Y-108907200D01*
X157809523Y-108907200D02*
X157761904Y-108859580D01*
X157761904Y-108859580D02*
X157714285Y-108764342D01*
X157714285Y-108764342D02*
X157714285Y-108669104D01*
X157714285Y-108669104D02*
X157761904Y-108573866D01*
X157761904Y-108573866D02*
X157809523Y-108526247D01*
X157809523Y-108526247D02*
X157904761Y-108478628D01*
X157904761Y-108478628D02*
X158095237Y-108431009D01*
X158095237Y-108431009D02*
X158190475Y-108383390D01*
X158190475Y-108383390D02*
X158238094Y-108335771D01*
X158238094Y-108335771D02*
X158285713Y-108240533D01*
X158285713Y-108240533D02*
X158285713Y-108145295D01*
X158285713Y-108145295D02*
X158238094Y-108050057D01*
X158238094Y-108050057D02*
X158190475Y-108002438D01*
X158190475Y-108002438D02*
X158095237Y-107954819D01*
X158095237Y-107954819D02*
X157857142Y-107954819D01*
X157857142Y-107954819D02*
X157714285Y-108002438D01*
X157380951Y-107954819D02*
X157142856Y-108954819D01*
X157142856Y-108954819D02*
X156952380Y-108240533D01*
X156952380Y-108240533D02*
X156761904Y-108954819D01*
X156761904Y-108954819D02*
X156523809Y-107954819D01*
X155619047Y-108954819D02*
X156190475Y-108954819D01*
X155904761Y-108954819D02*
X155904761Y-107954819D01*
X155904761Y-107954819D02*
X155999999Y-108097676D01*
X155999999Y-108097676D02*
X156095237Y-108192914D01*
X156095237Y-108192914D02*
X156190475Y-108240533D01*
X154999999Y-107954819D02*
X154904761Y-107954819D01*
X154904761Y-107954819D02*
X154809523Y-108002438D01*
X154809523Y-108002438D02*
X154761904Y-108050057D01*
X154761904Y-108050057D02*
X154714285Y-108145295D01*
X154714285Y-108145295D02*
X154666666Y-108335771D01*
X154666666Y-108335771D02*
X154666666Y-108573866D01*
X154666666Y-108573866D02*
X154714285Y-108764342D01*
X154714285Y-108764342D02*
X154761904Y-108859580D01*
X154761904Y-108859580D02*
X154809523Y-108907200D01*
X154809523Y-108907200D02*
X154904761Y-108954819D01*
X154904761Y-108954819D02*
X154999999Y-108954819D01*
X154999999Y-108954819D02*
X155095237Y-108907200D01*
X155095237Y-108907200D02*
X155142856Y-108859580D01*
X155142856Y-108859580D02*
X155190475Y-108764342D01*
X155190475Y-108764342D02*
X155238094Y-108573866D01*
X155238094Y-108573866D02*
X155238094Y-108335771D01*
X155238094Y-108335771D02*
X155190475Y-108145295D01*
X155190475Y-108145295D02*
X155142856Y-108050057D01*
X155142856Y-108050057D02*
X155095237Y-108002438D01*
X155095237Y-108002438D02*
X154999999Y-107954819D01*
X154285713Y-108050057D02*
X154238094Y-108002438D01*
X154238094Y-108002438D02*
X154142856Y-107954819D01*
X154142856Y-107954819D02*
X153904761Y-107954819D01*
X153904761Y-107954819D02*
X153809523Y-108002438D01*
X153809523Y-108002438D02*
X153761904Y-108050057D01*
X153761904Y-108050057D02*
X153714285Y-108145295D01*
X153714285Y-108145295D02*
X153714285Y-108240533D01*
X153714285Y-108240533D02*
X153761904Y-108383390D01*
X153761904Y-108383390D02*
X154333332Y-108954819D01*
X154333332Y-108954819D02*
X153714285Y-108954819D01*
X173549285Y-107489819D02*
X172977857Y-107489819D01*
X173263571Y-108489819D02*
X173263571Y-107489819D01*
X172644523Y-107966009D02*
X172311190Y-107966009D01*
X172168333Y-108489819D02*
X172644523Y-108489819D01*
X172644523Y-108489819D02*
X172644523Y-107489819D01*
X172644523Y-107489819D02*
X172168333Y-107489819D01*
X171739761Y-108489819D02*
X171739761Y-107489819D01*
X171739761Y-107489819D02*
X171406428Y-108204104D01*
X171406428Y-108204104D02*
X171073095Y-107489819D01*
X171073095Y-107489819D02*
X171073095Y-108489819D01*
X170596904Y-108489819D02*
X170596904Y-107489819D01*
X170596904Y-107489819D02*
X170215952Y-107489819D01*
X170215952Y-107489819D02*
X170120714Y-107537438D01*
X170120714Y-107537438D02*
X170073095Y-107585057D01*
X170073095Y-107585057D02*
X170025476Y-107680295D01*
X170025476Y-107680295D02*
X170025476Y-107823152D01*
X170025476Y-107823152D02*
X170073095Y-107918390D01*
X170073095Y-107918390D02*
X170120714Y-107966009D01*
X170120714Y-107966009D02*
X170215952Y-108013628D01*
X170215952Y-108013628D02*
X170596904Y-108013628D01*
X169835000Y-108585057D02*
X169073095Y-108585057D01*
X168834999Y-107489819D02*
X168834999Y-108299342D01*
X168834999Y-108299342D02*
X168787380Y-108394580D01*
X168787380Y-108394580D02*
X168739761Y-108442200D01*
X168739761Y-108442200D02*
X168644523Y-108489819D01*
X168644523Y-108489819D02*
X168454047Y-108489819D01*
X168454047Y-108489819D02*
X168358809Y-108442200D01*
X168358809Y-108442200D02*
X168311190Y-108394580D01*
X168311190Y-108394580D02*
X168263571Y-108299342D01*
X168263571Y-108299342D02*
X168263571Y-107489819D01*
X167787380Y-108489819D02*
X167787380Y-107489819D01*
X167787380Y-107489819D02*
X167406428Y-107489819D01*
X167406428Y-107489819D02*
X167311190Y-107537438D01*
X167311190Y-107537438D02*
X167263571Y-107585057D01*
X167263571Y-107585057D02*
X167215952Y-107680295D01*
X167215952Y-107680295D02*
X167215952Y-107823152D01*
X167215952Y-107823152D02*
X167263571Y-107918390D01*
X167263571Y-107918390D02*
X167311190Y-107966009D01*
X167311190Y-107966009D02*
X167406428Y-108013628D01*
X167406428Y-108013628D02*
X167787380Y-108013628D01*
X158285713Y-104907200D02*
X158142856Y-104954819D01*
X158142856Y-104954819D02*
X157904761Y-104954819D01*
X157904761Y-104954819D02*
X157809523Y-104907200D01*
X157809523Y-104907200D02*
X157761904Y-104859580D01*
X157761904Y-104859580D02*
X157714285Y-104764342D01*
X157714285Y-104764342D02*
X157714285Y-104669104D01*
X157714285Y-104669104D02*
X157761904Y-104573866D01*
X157761904Y-104573866D02*
X157809523Y-104526247D01*
X157809523Y-104526247D02*
X157904761Y-104478628D01*
X157904761Y-104478628D02*
X158095237Y-104431009D01*
X158095237Y-104431009D02*
X158190475Y-104383390D01*
X158190475Y-104383390D02*
X158238094Y-104335771D01*
X158238094Y-104335771D02*
X158285713Y-104240533D01*
X158285713Y-104240533D02*
X158285713Y-104145295D01*
X158285713Y-104145295D02*
X158238094Y-104050057D01*
X158238094Y-104050057D02*
X158190475Y-104002438D01*
X158190475Y-104002438D02*
X158095237Y-103954819D01*
X158095237Y-103954819D02*
X157857142Y-103954819D01*
X157857142Y-103954819D02*
X157714285Y-104002438D01*
X157380951Y-103954819D02*
X157142856Y-104954819D01*
X157142856Y-104954819D02*
X156952380Y-104240533D01*
X156952380Y-104240533D02*
X156761904Y-104954819D01*
X156761904Y-104954819D02*
X156523809Y-103954819D01*
X155619047Y-104954819D02*
X156190475Y-104954819D01*
X155904761Y-104954819D02*
X155904761Y-103954819D01*
X155904761Y-103954819D02*
X155999999Y-104097676D01*
X155999999Y-104097676D02*
X156095237Y-104192914D01*
X156095237Y-104192914D02*
X156190475Y-104240533D01*
X154999999Y-103954819D02*
X154904761Y-103954819D01*
X154904761Y-103954819D02*
X154809523Y-104002438D01*
X154809523Y-104002438D02*
X154761904Y-104050057D01*
X154761904Y-104050057D02*
X154714285Y-104145295D01*
X154714285Y-104145295D02*
X154666666Y-104335771D01*
X154666666Y-104335771D02*
X154666666Y-104573866D01*
X154666666Y-104573866D02*
X154714285Y-104764342D01*
X154714285Y-104764342D02*
X154761904Y-104859580D01*
X154761904Y-104859580D02*
X154809523Y-104907200D01*
X154809523Y-104907200D02*
X154904761Y-104954819D01*
X154904761Y-104954819D02*
X154999999Y-104954819D01*
X154999999Y-104954819D02*
X155095237Y-104907200D01*
X155095237Y-104907200D02*
X155142856Y-104859580D01*
X155142856Y-104859580D02*
X155190475Y-104764342D01*
X155190475Y-104764342D02*
X155238094Y-104573866D01*
X155238094Y-104573866D02*
X155238094Y-104335771D01*
X155238094Y-104335771D02*
X155190475Y-104145295D01*
X155190475Y-104145295D02*
X155142856Y-104050057D01*
X155142856Y-104050057D02*
X155095237Y-104002438D01*
X155095237Y-104002438D02*
X154999999Y-103954819D01*
X153714285Y-104954819D02*
X154285713Y-104954819D01*
X153999999Y-104954819D02*
X153999999Y-103954819D01*
X153999999Y-103954819D02*
X154095237Y-104097676D01*
X154095237Y-104097676D02*
X154190475Y-104192914D01*
X154190475Y-104192914D02*
X154285713Y-104240533D01*
X171642856Y-103907200D02*
X171499999Y-103954819D01*
X171499999Y-103954819D02*
X171261904Y-103954819D01*
X171261904Y-103954819D02*
X171166666Y-103907200D01*
X171166666Y-103907200D02*
X171119047Y-103859580D01*
X171119047Y-103859580D02*
X171071428Y-103764342D01*
X171071428Y-103764342D02*
X171071428Y-103669104D01*
X171071428Y-103669104D02*
X171119047Y-103573866D01*
X171119047Y-103573866D02*
X171166666Y-103526247D01*
X171166666Y-103526247D02*
X171261904Y-103478628D01*
X171261904Y-103478628D02*
X171452380Y-103431009D01*
X171452380Y-103431009D02*
X171547618Y-103383390D01*
X171547618Y-103383390D02*
X171595237Y-103335771D01*
X171595237Y-103335771D02*
X171642856Y-103240533D01*
X171642856Y-103240533D02*
X171642856Y-103145295D01*
X171642856Y-103145295D02*
X171595237Y-103050057D01*
X171595237Y-103050057D02*
X171547618Y-103002438D01*
X171547618Y-103002438D02*
X171452380Y-102954819D01*
X171452380Y-102954819D02*
X171214285Y-102954819D01*
X171214285Y-102954819D02*
X171071428Y-103002438D01*
X170785713Y-102954819D02*
X170214285Y-102954819D01*
X170499999Y-103954819D02*
X170499999Y-102954819D01*
X169690475Y-102954819D02*
X169499999Y-102954819D01*
X169499999Y-102954819D02*
X169404761Y-103002438D01*
X169404761Y-103002438D02*
X169309523Y-103097676D01*
X169309523Y-103097676D02*
X169261904Y-103288152D01*
X169261904Y-103288152D02*
X169261904Y-103621485D01*
X169261904Y-103621485D02*
X169309523Y-103811961D01*
X169309523Y-103811961D02*
X169404761Y-103907200D01*
X169404761Y-103907200D02*
X169499999Y-103954819D01*
X169499999Y-103954819D02*
X169690475Y-103954819D01*
X169690475Y-103954819D02*
X169785713Y-103907200D01*
X169785713Y-103907200D02*
X169880951Y-103811961D01*
X169880951Y-103811961D02*
X169928570Y-103621485D01*
X169928570Y-103621485D02*
X169928570Y-103288152D01*
X169928570Y-103288152D02*
X169880951Y-103097676D01*
X169880951Y-103097676D02*
X169785713Y-103002438D01*
X169785713Y-103002438D02*
X169690475Y-102954819D01*
X168261904Y-103954819D02*
X168595237Y-103478628D01*
X168833332Y-103954819D02*
X168833332Y-102954819D01*
X168833332Y-102954819D02*
X168452380Y-102954819D01*
X168452380Y-102954819D02*
X168357142Y-103002438D01*
X168357142Y-103002438D02*
X168309523Y-103050057D01*
X168309523Y-103050057D02*
X168261904Y-103145295D01*
X168261904Y-103145295D02*
X168261904Y-103288152D01*
X168261904Y-103288152D02*
X168309523Y-103383390D01*
X168309523Y-103383390D02*
X168357142Y-103431009D01*
X168357142Y-103431009D02*
X168452380Y-103478628D01*
X168452380Y-103478628D02*
X168833332Y-103478628D01*
X167833332Y-103431009D02*
X167499999Y-103431009D01*
X167357142Y-103954819D02*
X167833332Y-103954819D01*
X167833332Y-103954819D02*
X167833332Y-102954819D01*
X167833332Y-102954819D02*
X167357142Y-102954819D01*
D11*
%TO.C,SW103*%
X165825596Y-115500000D02*
X165825596Y-114770000D01*
X165825596Y-112230000D02*
X165825596Y-111500000D01*
X165825596Y-111500000D02*
X159825596Y-111500000D01*
X159825596Y-115500000D02*
X165825596Y-115500000D01*
X159825596Y-114770000D02*
X159825596Y-115500000D01*
X159825596Y-111500000D02*
X159825596Y-112230000D01*
%TO.C,SW102*%
X165825596Y-110380000D02*
X165825596Y-109650000D01*
X165825596Y-107110000D02*
X165825596Y-106380000D01*
X165825596Y-106380000D02*
X159825596Y-106380000D01*
X159825596Y-110380000D02*
X165825596Y-110380000D01*
X159825596Y-109650000D02*
X159825596Y-110380000D01*
X159825596Y-106380000D02*
X159825596Y-107110000D01*
%TO.C,G2*%
G36*
X125379114Y-85925057D02*
G01*
X125214873Y-85925057D01*
X125214873Y-84734303D01*
X125379114Y-84734303D01*
X125379114Y-85925057D01*
G37*
G36*
X121782218Y-85925057D02*
G01*
X121617976Y-85925057D01*
X121617976Y-85054575D01*
X121782218Y-85054575D01*
X121782218Y-85925057D01*
G37*
G36*
X121782218Y-84874504D02*
G01*
X121702150Y-84872153D01*
X121622082Y-84869803D01*
X121619957Y-84436615D01*
X121617831Y-84003427D01*
X121782218Y-84003427D01*
X121782218Y-84874504D01*
G37*
G36*
X121702150Y-83676709D02*
G01*
X121786324Y-83679050D01*
X121788732Y-83748166D01*
X121789050Y-83758863D01*
X121789340Y-83790683D01*
X121788601Y-83815348D01*
X121786936Y-83828234D01*
X121782488Y-83832549D01*
X121767850Y-83836420D01*
X121741201Y-83838540D01*
X121700355Y-83839185D01*
X121617976Y-83839185D01*
X121617976Y-83674370D01*
X121702150Y-83676709D01*
G37*
G36*
X123162522Y-85062112D02*
G01*
X123204150Y-85082925D01*
X123236596Y-85114518D01*
X123260395Y-85147372D01*
X123260395Y-85054575D01*
X123424637Y-85054575D01*
X123424637Y-85925057D01*
X123260395Y-85925057D01*
X123259931Y-85606838D01*
X123259745Y-85541787D01*
X123259151Y-85459922D01*
X123258155Y-85393129D01*
X123256732Y-85340606D01*
X123254859Y-85301551D01*
X123252511Y-85275165D01*
X123249666Y-85260646D01*
X123241559Y-85242682D01*
X123219661Y-85218006D01*
X123186879Y-85202728D01*
X123141231Y-85195660D01*
X123087941Y-85192267D01*
X123087941Y-85054575D01*
X123116711Y-85054575D01*
X123162522Y-85062112D01*
G37*
G36*
X121478371Y-84003427D02*
G01*
X121560492Y-84003427D01*
X121560492Y-84134821D01*
X121478371Y-84134821D01*
X121478325Y-84436615D01*
X121478302Y-84461019D01*
X121477908Y-84542734D01*
X121477051Y-84613905D01*
X121475762Y-84673357D01*
X121474071Y-84719914D01*
X121472008Y-84752401D01*
X121469606Y-84769642D01*
X121469541Y-84769876D01*
X121449954Y-84811419D01*
X121418061Y-84842645D01*
X121375444Y-84862004D01*
X121372241Y-84862820D01*
X121342024Y-84867777D01*
X121303787Y-84870863D01*
X121264856Y-84871451D01*
X121195054Y-84869803D01*
X121192669Y-84802053D01*
X121190283Y-84734303D01*
X121239302Y-84734303D01*
X121245198Y-84734333D01*
X121263275Y-84734470D01*
X121277890Y-84733495D01*
X121289409Y-84729875D01*
X121298198Y-84722081D01*
X121304626Y-84708581D01*
X121309058Y-84687843D01*
X121311862Y-84658338D01*
X121313404Y-84618533D01*
X121314051Y-84566899D01*
X121314171Y-84501904D01*
X121314129Y-84422017D01*
X121314129Y-84135540D01*
X121254591Y-84133127D01*
X121195054Y-84130715D01*
X121192655Y-84067071D01*
X121190257Y-84003427D01*
X121314129Y-84003427D01*
X121314129Y-83855610D01*
X121478371Y-83855610D01*
X121478371Y-84003427D01*
G37*
G36*
X122430974Y-85925057D02*
G01*
X122266732Y-85925057D01*
X122266732Y-85211536D01*
X122248480Y-85198752D01*
X122244796Y-85196510D01*
X122218248Y-85188673D01*
X122178677Y-85185968D01*
X122165396Y-85185821D01*
X122147972Y-85185661D01*
X122133641Y-85186796D01*
X122122103Y-85190601D01*
X122113055Y-85198452D01*
X122106198Y-85211725D01*
X122101231Y-85231793D01*
X122097854Y-85260033D01*
X122095764Y-85297820D01*
X122094663Y-85346528D01*
X122094248Y-85407533D01*
X122094220Y-85482211D01*
X122094278Y-85571937D01*
X122094278Y-85925057D01*
X121938248Y-85925057D01*
X121938248Y-85542382D01*
X121938249Y-85482462D01*
X121938332Y-85397963D01*
X121938675Y-85327559D01*
X121939460Y-85269808D01*
X121940870Y-85223270D01*
X121943087Y-85186506D01*
X121946293Y-85158075D01*
X121950669Y-85136537D01*
X121956398Y-85120453D01*
X121963662Y-85108381D01*
X121972643Y-85098883D01*
X121983524Y-85090517D01*
X121996486Y-85081844D01*
X122003058Y-85077717D01*
X122025694Y-85067281D01*
X122053760Y-85060796D01*
X122092734Y-85056837D01*
X122102781Y-85056197D01*
X122151809Y-85055173D01*
X122189025Y-85059103D01*
X122217886Y-85068623D01*
X122241854Y-85084374D01*
X122266732Y-85105307D01*
X122266732Y-85054575D01*
X122430974Y-85054575D01*
X122430974Y-85925057D01*
G37*
G36*
X123502804Y-84003435D02*
G01*
X123548773Y-84010696D01*
X123587181Y-84032113D01*
X123619478Y-84068481D01*
X123638151Y-84096189D01*
X123638151Y-84003427D01*
X123802393Y-84003427D01*
X123802393Y-85053675D01*
X123841400Y-85056178D01*
X123880408Y-85058681D01*
X123882806Y-85122325D01*
X123885205Y-85185968D01*
X123802393Y-85185968D01*
X123802197Y-85483657D01*
X123801986Y-85547341D01*
X123801398Y-85613531D01*
X123800482Y-85673791D01*
X123799289Y-85726022D01*
X123797867Y-85768127D01*
X123796264Y-85798005D01*
X123794530Y-85813558D01*
X123782551Y-85847935D01*
X123757986Y-85880863D01*
X123720104Y-85906579D01*
X123712118Y-85910482D01*
X123692540Y-85917910D01*
X123670287Y-85922347D01*
X123640784Y-85924496D01*
X123599457Y-85925057D01*
X123514970Y-85925057D01*
X123514970Y-85785451D01*
X123568059Y-85785451D01*
X123585262Y-85785256D01*
X123608696Y-85783332D01*
X123622095Y-85778463D01*
X123629650Y-85769567D01*
X123629741Y-85769388D01*
X123632216Y-85755763D01*
X123634292Y-85726547D01*
X123635946Y-85682543D01*
X123637156Y-85624553D01*
X123637898Y-85553380D01*
X123638151Y-85469825D01*
X123638151Y-85185968D01*
X123514970Y-85185968D01*
X123514970Y-85054575D01*
X123638151Y-85054575D01*
X123638105Y-84650129D01*
X123638047Y-84597829D01*
X123637688Y-84509924D01*
X123637023Y-84431120D01*
X123636075Y-84362638D01*
X123634865Y-84305698D01*
X123633419Y-84261520D01*
X123631758Y-84231324D01*
X123629906Y-84216332D01*
X123617342Y-84185846D01*
X123596284Y-84163313D01*
X123564860Y-84149617D01*
X123520496Y-84143033D01*
X123461591Y-84138927D01*
X123456821Y-84003427D01*
X123501105Y-84003427D01*
X123502804Y-84003435D01*
G37*
G36*
X125590111Y-84265897D02*
G01*
X125586156Y-84297805D01*
X125570050Y-84324813D01*
X125543356Y-84342509D01*
X125539249Y-84343490D01*
X125519003Y-84345462D01*
X125487240Y-84346787D01*
X125447449Y-84347491D01*
X125403121Y-84347602D01*
X125357743Y-84347146D01*
X125314807Y-84346148D01*
X125277801Y-84344636D01*
X125250216Y-84342637D01*
X125235540Y-84340175D01*
X125222600Y-84332593D01*
X125205030Y-84310062D01*
X125196215Y-84280629D01*
X125197071Y-84268755D01*
X125257762Y-84268755D01*
X125262666Y-84286778D01*
X125265032Y-84291781D01*
X125269594Y-84298304D01*
X125277144Y-84302678D01*
X125290369Y-84305333D01*
X125311956Y-84306698D01*
X125344593Y-84307202D01*
X125390968Y-84307275D01*
X125391339Y-84307275D01*
X125438011Y-84307108D01*
X125470940Y-84306392D01*
X125492785Y-84304793D01*
X125506208Y-84301981D01*
X125513870Y-84297624D01*
X125518431Y-84291390D01*
X125524266Y-84278768D01*
X125525307Y-84262056D01*
X125514027Y-84246270D01*
X125506923Y-84241418D01*
X125493387Y-84237466D01*
X125471542Y-84234998D01*
X125438686Y-84233726D01*
X125392119Y-84233366D01*
X125361987Y-84233442D01*
X125326048Y-84234047D01*
X125301673Y-84235593D01*
X125285892Y-84238475D01*
X125275732Y-84243087D01*
X125268221Y-84249823D01*
X125264749Y-84253850D01*
X125257762Y-84268755D01*
X125197071Y-84268755D01*
X125198435Y-84249838D01*
X125201831Y-84238906D01*
X125208040Y-84225462D01*
X125217388Y-84215635D01*
X125232090Y-84208855D01*
X125254359Y-84204549D01*
X125286409Y-84202149D01*
X125330454Y-84201082D01*
X125388708Y-84200779D01*
X125436639Y-84200948D01*
X125480977Y-84201597D01*
X125517432Y-84202648D01*
X125543157Y-84204016D01*
X125555307Y-84205619D01*
X125555805Y-84205823D01*
X125568755Y-84216824D01*
X125581341Y-84235359D01*
X125589008Y-84262056D01*
X125590111Y-84265897D01*
G37*
G36*
X123371368Y-84730399D02*
G01*
X123369230Y-84757327D01*
X123366481Y-84773425D01*
X123359477Y-84791459D01*
X123337961Y-84823047D01*
X123309423Y-84848262D01*
X123278721Y-84862190D01*
X123261730Y-84866171D01*
X123248077Y-84869873D01*
X123246746Y-84870272D01*
X123226878Y-84872744D01*
X123197302Y-84873242D01*
X123163937Y-84871977D01*
X123132702Y-84869155D01*
X123109516Y-84864987D01*
X123106091Y-84863950D01*
X123079544Y-84851511D01*
X123058191Y-84835091D01*
X123038668Y-84814026D01*
X123038668Y-84874504D01*
X122958600Y-84872153D01*
X122878533Y-84869803D01*
X122876423Y-84439975D01*
X123038789Y-84439975D01*
X123038812Y-84512511D01*
X123039022Y-84570435D01*
X123039517Y-84615554D01*
X123040395Y-84649674D01*
X123041756Y-84674604D01*
X123043698Y-84692150D01*
X123046320Y-84704120D01*
X123049719Y-84712322D01*
X123053995Y-84718563D01*
X123058201Y-84723312D01*
X123071239Y-84732395D01*
X123090769Y-84737411D01*
X123121745Y-84739920D01*
X123147143Y-84740171D01*
X123174768Y-84738289D01*
X123192645Y-84734485D01*
X123211122Y-84726621D01*
X123211122Y-84439938D01*
X123211119Y-84422958D01*
X123210975Y-84347606D01*
X123210578Y-84286850D01*
X123209870Y-84239171D01*
X123208792Y-84203047D01*
X123207283Y-84176957D01*
X123205284Y-84159380D01*
X123202737Y-84148794D01*
X123199583Y-84143679D01*
X123188621Y-84139406D01*
X123162114Y-84136462D01*
X123123835Y-84136514D01*
X123108753Y-84137134D01*
X123081627Y-84139090D01*
X123065324Y-84142646D01*
X123055864Y-84149027D01*
X123049269Y-84159457D01*
X123047235Y-84165316D01*
X123044486Y-84181883D01*
X123042339Y-84208397D01*
X123040744Y-84246152D01*
X123039653Y-84296442D01*
X123039018Y-84360564D01*
X123038789Y-84439811D01*
X123038789Y-84439975D01*
X122876423Y-84439975D01*
X122874281Y-84003427D01*
X123038668Y-84003427D01*
X123038668Y-84033997D01*
X123038683Y-84041485D01*
X123039516Y-84056331D01*
X123043107Y-84057278D01*
X123051485Y-84046268D01*
X123057046Y-84038992D01*
X123076510Y-84021986D01*
X123102842Y-84011033D01*
X123139126Y-84005168D01*
X123188444Y-84003427D01*
X123199501Y-84003523D01*
X123255641Y-84008090D01*
X123298937Y-84020042D01*
X123331302Y-84040135D01*
X123354646Y-84069124D01*
X123355683Y-84070944D01*
X123359717Y-84079055D01*
X123363014Y-84088653D01*
X123365665Y-84101398D01*
X123367760Y-84118950D01*
X123369389Y-84142968D01*
X123370645Y-84175112D01*
X123371617Y-84217041D01*
X123372396Y-84270415D01*
X123373073Y-84336894D01*
X123373739Y-84418138D01*
X123374210Y-84495184D01*
X123374317Y-84575033D01*
X123373892Y-84640212D01*
X123372915Y-84691681D01*
X123371519Y-84726621D01*
X123371368Y-84730399D01*
G37*
G36*
X121104830Y-84730399D02*
G01*
X121102692Y-84757327D01*
X121099944Y-84773425D01*
X121092940Y-84791459D01*
X121071424Y-84823047D01*
X121042886Y-84848262D01*
X121012184Y-84862190D01*
X120995193Y-84866171D01*
X120981539Y-84869873D01*
X120980208Y-84870272D01*
X120960341Y-84872744D01*
X120930765Y-84873242D01*
X120897400Y-84871977D01*
X120866165Y-84869155D01*
X120842979Y-84864987D01*
X120839554Y-84863950D01*
X120813007Y-84851511D01*
X120791653Y-84835091D01*
X120772131Y-84814026D01*
X120772131Y-84874504D01*
X120692063Y-84872153D01*
X120611995Y-84869803D01*
X120609886Y-84439975D01*
X120772252Y-84439975D01*
X120772275Y-84512511D01*
X120772485Y-84570435D01*
X120772980Y-84615554D01*
X120773858Y-84649674D01*
X120775219Y-84674604D01*
X120777161Y-84692150D01*
X120779782Y-84704120D01*
X120783182Y-84712322D01*
X120787458Y-84718563D01*
X120791664Y-84723312D01*
X120804701Y-84732395D01*
X120824232Y-84737411D01*
X120855208Y-84739920D01*
X120880605Y-84740171D01*
X120908231Y-84738289D01*
X120926108Y-84734485D01*
X120944585Y-84726621D01*
X120944585Y-84439938D01*
X120944581Y-84422958D01*
X120944437Y-84347606D01*
X120944041Y-84286850D01*
X120943333Y-84239171D01*
X120942254Y-84203047D01*
X120940745Y-84176957D01*
X120938747Y-84159380D01*
X120936200Y-84148794D01*
X120933045Y-84143679D01*
X120922084Y-84139406D01*
X120895577Y-84136462D01*
X120857298Y-84136514D01*
X120842215Y-84137134D01*
X120815090Y-84139090D01*
X120798787Y-84142646D01*
X120789327Y-84149027D01*
X120782731Y-84159457D01*
X120780697Y-84165316D01*
X120777949Y-84181883D01*
X120775802Y-84208397D01*
X120774207Y-84246152D01*
X120773116Y-84296442D01*
X120772480Y-84360564D01*
X120772252Y-84439811D01*
X120772252Y-84439975D01*
X120609886Y-84439975D01*
X120609870Y-84436615D01*
X120607744Y-84003427D01*
X120772131Y-84003427D01*
X120772131Y-84033997D01*
X120772146Y-84041485D01*
X120772978Y-84056331D01*
X120776570Y-84057278D01*
X120784948Y-84046268D01*
X120790509Y-84038992D01*
X120809972Y-84021986D01*
X120836304Y-84011033D01*
X120872588Y-84005168D01*
X120921907Y-84003427D01*
X120932964Y-84003523D01*
X120989104Y-84008090D01*
X121032400Y-84020042D01*
X121064764Y-84040135D01*
X121088109Y-84069124D01*
X121089145Y-84070944D01*
X121093180Y-84079055D01*
X121096477Y-84088653D01*
X121099128Y-84101398D01*
X121101222Y-84118950D01*
X121102852Y-84142968D01*
X121104107Y-84175112D01*
X121105079Y-84217041D01*
X121105858Y-84270415D01*
X121106536Y-84336894D01*
X121107202Y-84418138D01*
X121107672Y-84495184D01*
X121107779Y-84575033D01*
X121107354Y-84640212D01*
X121106378Y-84691681D01*
X121104981Y-84726621D01*
X121104830Y-84730399D01*
G37*
G36*
X121233499Y-85058683D02*
G01*
X121290843Y-85059077D01*
X121334586Y-85060533D01*
X121367326Y-85063585D01*
X121391657Y-85068768D01*
X121410177Y-85076619D01*
X121425480Y-85087672D01*
X121440164Y-85102463D01*
X121444158Y-85107003D01*
X121452662Y-85118242D01*
X121459600Y-85131105D01*
X121465131Y-85147237D01*
X121469417Y-85168282D01*
X121472619Y-85195885D01*
X121474895Y-85231690D01*
X121476407Y-85277341D01*
X121477316Y-85334483D01*
X121477782Y-85404760D01*
X121477965Y-85489816D01*
X121477954Y-85529062D01*
X121477591Y-85607760D01*
X121476788Y-85676699D01*
X121475578Y-85734549D01*
X121473992Y-85779974D01*
X121472062Y-85811644D01*
X121469821Y-85828225D01*
X121465906Y-85839430D01*
X121445812Y-85872251D01*
X121417260Y-85899580D01*
X121385449Y-85916008D01*
X121376586Y-85917660D01*
X121351123Y-85920109D01*
X121314823Y-85922152D01*
X121271129Y-85923613D01*
X121223483Y-85924316D01*
X121200876Y-85924418D01*
X121155662Y-85924327D01*
X121122610Y-85923499D01*
X121098696Y-85921623D01*
X121080891Y-85918385D01*
X121066171Y-85913475D01*
X121051510Y-85906579D01*
X121031247Y-85895397D01*
X121009726Y-85879191D01*
X120995208Y-85859590D01*
X120986204Y-85833345D01*
X120981225Y-85797206D01*
X120978780Y-85747925D01*
X120976020Y-85654058D01*
X121133463Y-85654058D01*
X121133463Y-85707976D01*
X121133593Y-85727685D01*
X121135759Y-85758806D01*
X121142858Y-85778201D01*
X121157758Y-85788633D01*
X121183330Y-85792866D01*
X121222443Y-85793663D01*
X121262242Y-85792483D01*
X121290307Y-85789108D01*
X121304275Y-85783809D01*
X121304316Y-85783765D01*
X121306774Y-85773076D01*
X121308903Y-85748331D01*
X121310695Y-85711858D01*
X121312142Y-85665984D01*
X121313239Y-85613038D01*
X121313976Y-85555348D01*
X121314348Y-85495241D01*
X121314346Y-85435047D01*
X121313964Y-85377092D01*
X121313194Y-85323704D01*
X121312029Y-85277213D01*
X121310462Y-85239945D01*
X121308485Y-85214229D01*
X121306091Y-85202393D01*
X121300774Y-85197498D01*
X121286684Y-85193086D01*
X121261987Y-85190755D01*
X121223796Y-85190074D01*
X121193957Y-85190442D01*
X121166089Y-85192310D01*
X121149566Y-85196150D01*
X121141501Y-85202393D01*
X121141265Y-85202793D01*
X121137434Y-85217539D01*
X121134681Y-85243119D01*
X121133589Y-85274248D01*
X121133463Y-85333786D01*
X120977433Y-85333786D01*
X120977568Y-85245506D01*
X120977578Y-85242288D01*
X120979819Y-85188409D01*
X120986753Y-85147629D01*
X120999533Y-85117143D01*
X121019310Y-85094146D01*
X121047236Y-85075831D01*
X121054391Y-85072273D01*
X121067801Y-85067018D01*
X121083698Y-85063311D01*
X121104870Y-85060888D01*
X121134103Y-85059486D01*
X121174185Y-85058838D01*
X121227902Y-85058681D01*
X121233499Y-85058683D01*
G37*
G36*
X124230532Y-85055800D02*
G01*
X124281132Y-85057962D01*
X124327240Y-85062761D01*
X124361957Y-85070921D01*
X124387955Y-85083396D01*
X124407902Y-85101139D01*
X124424468Y-85125104D01*
X124425282Y-85126519D01*
X124429669Y-85134548D01*
X124433251Y-85142932D01*
X124436098Y-85153278D01*
X124438282Y-85167192D01*
X124439872Y-85186281D01*
X124440938Y-85212153D01*
X124441552Y-85246414D01*
X124441784Y-85290671D01*
X124441704Y-85346531D01*
X124441384Y-85415601D01*
X124440892Y-85499488D01*
X124440781Y-85518276D01*
X124440289Y-85602738D01*
X124439699Y-85672619D01*
X124438740Y-85729453D01*
X124437139Y-85774774D01*
X124434625Y-85810116D01*
X124430923Y-85837014D01*
X124425763Y-85857003D01*
X124418872Y-85871615D01*
X124409977Y-85882386D01*
X124398806Y-85890850D01*
X124385087Y-85898541D01*
X124368546Y-85906994D01*
X124355435Y-85913406D01*
X124342019Y-85918362D01*
X124326329Y-85921666D01*
X124305538Y-85923572D01*
X124276814Y-85924331D01*
X124237330Y-85924196D01*
X124184255Y-85923418D01*
X124163930Y-85923061D01*
X124114988Y-85921912D01*
X124078872Y-85920372D01*
X124052909Y-85918153D01*
X124034423Y-85914964D01*
X124020739Y-85910518D01*
X124009181Y-85904526D01*
X123984390Y-85886418D01*
X123966041Y-85863882D01*
X123953908Y-85834430D01*
X123946724Y-85794951D01*
X123943226Y-85742338D01*
X123940182Y-85654058D01*
X124106240Y-85654058D01*
X124106240Y-85714006D01*
X124107274Y-85743888D01*
X124110729Y-85770122D01*
X124116095Y-85783809D01*
X124119856Y-85786021D01*
X124138189Y-85790130D01*
X124165828Y-85792647D01*
X124197825Y-85793513D01*
X124229231Y-85792670D01*
X124255099Y-85790060D01*
X124270482Y-85785625D01*
X124272546Y-85783688D01*
X124275494Y-85777242D01*
X124277832Y-85765437D01*
X124279628Y-85746693D01*
X124280948Y-85719429D01*
X124281858Y-85682065D01*
X124282426Y-85633019D01*
X124282718Y-85570710D01*
X124282800Y-85493559D01*
X124282819Y-85461591D01*
X124282906Y-85388117D01*
X124282688Y-85328941D01*
X124281713Y-85282526D01*
X124279530Y-85247332D01*
X124275687Y-85221822D01*
X124269732Y-85204457D01*
X124261213Y-85193699D01*
X124249679Y-85188009D01*
X124234678Y-85185850D01*
X124215758Y-85185682D01*
X124192467Y-85185968D01*
X124185513Y-85185986D01*
X124149597Y-85187583D01*
X124126556Y-85193770D01*
X124113366Y-85207370D01*
X124107004Y-85231203D01*
X124104446Y-85268089D01*
X124102134Y-85329680D01*
X124022066Y-85332030D01*
X123941998Y-85334381D01*
X123941998Y-85253703D01*
X123942018Y-85244774D01*
X123942952Y-85206542D01*
X123945833Y-85178958D01*
X123951421Y-85157201D01*
X123960476Y-85136449D01*
X123963531Y-85130589D01*
X123980056Y-85105239D01*
X124000297Y-85085820D01*
X124026349Y-85071707D01*
X124060304Y-85062273D01*
X124104257Y-85056894D01*
X124160302Y-85054945D01*
X124230532Y-85055800D01*
G37*
G36*
X124441913Y-84554547D02*
G01*
X124442082Y-84615376D01*
X124441943Y-84664003D01*
X124441434Y-84702046D01*
X124440496Y-84731121D01*
X124439068Y-84752844D01*
X124437089Y-84768834D01*
X124434499Y-84780705D01*
X124431239Y-84790075D01*
X124427246Y-84798561D01*
X124412559Y-84821894D01*
X124383754Y-84847499D01*
X124343409Y-84864444D01*
X124329974Y-84867495D01*
X124293228Y-84871709D01*
X124251097Y-84872832D01*
X124210742Y-84870814D01*
X124179327Y-84865605D01*
X124177304Y-84865014D01*
X124152861Y-84854155D01*
X124134161Y-84840108D01*
X124118558Y-84822824D01*
X124114389Y-84846313D01*
X124110219Y-84869803D01*
X124030215Y-84872153D01*
X123950211Y-84874504D01*
X123950211Y-84438249D01*
X124114452Y-84438249D01*
X124114494Y-84498189D01*
X124114713Y-84562398D01*
X124115188Y-84613117D01*
X124115993Y-84652001D01*
X124117205Y-84680705D01*
X124118899Y-84700882D01*
X124121151Y-84714188D01*
X124124036Y-84722277D01*
X124127630Y-84726804D01*
X124130439Y-84728659D01*
X124149929Y-84734806D01*
X124178441Y-84738826D01*
X124210141Y-84740371D01*
X124239194Y-84739096D01*
X124259764Y-84734653D01*
X124272711Y-84724152D01*
X124282780Y-84699834D01*
X124283357Y-84694738D01*
X124284394Y-84672966D01*
X124285170Y-84638060D01*
X124285667Y-84592248D01*
X124285864Y-84537760D01*
X124285744Y-84476825D01*
X124285286Y-84411672D01*
X124285197Y-84402406D01*
X124284388Y-84330330D01*
X124283466Y-84272854D01*
X124282339Y-84228338D01*
X124280918Y-84195146D01*
X124279112Y-84171638D01*
X124276830Y-84156179D01*
X124273984Y-84147129D01*
X124270482Y-84142852D01*
X124256633Y-84138118D01*
X124230513Y-84135047D01*
X124199134Y-84134655D01*
X124167886Y-84136760D01*
X124142163Y-84141178D01*
X124127357Y-84147725D01*
X124125069Y-84150645D01*
X124121980Y-84158079D01*
X124119542Y-84170350D01*
X124117680Y-84189113D01*
X124116322Y-84216024D01*
X124115394Y-84252738D01*
X124114822Y-84300910D01*
X124114532Y-84362195D01*
X124114452Y-84438249D01*
X123950211Y-84438249D01*
X123950211Y-84003427D01*
X124114452Y-84003427D01*
X124114452Y-84029891D01*
X124114453Y-84030776D01*
X124115024Y-84047560D01*
X124118253Y-84049781D01*
X124126443Y-84039235D01*
X124136448Y-84027661D01*
X124155912Y-84015218D01*
X124183437Y-84007669D01*
X124221718Y-84004380D01*
X124273451Y-84004717D01*
X124284168Y-84005102D01*
X124327346Y-84008018D01*
X124358820Y-84013819D01*
X124382479Y-84024057D01*
X124402209Y-84040288D01*
X124421898Y-84064064D01*
X124425123Y-84068653D01*
X124428733Y-84075430D01*
X124431675Y-84084460D01*
X124434030Y-84097318D01*
X124435884Y-84115578D01*
X124437319Y-84140815D01*
X124438420Y-84174603D01*
X124439269Y-84218516D01*
X124439950Y-84274130D01*
X124440548Y-84343019D01*
X124441144Y-84426758D01*
X124441496Y-84479899D01*
X124441819Y-84537760D01*
X124441913Y-84554547D01*
G37*
G36*
X125062949Y-85491267D02*
G01*
X125062926Y-85575437D01*
X125062811Y-85645824D01*
X125062534Y-85702869D01*
X125062023Y-85748122D01*
X125061210Y-85783133D01*
X125060024Y-85809452D01*
X125058395Y-85828628D01*
X125056252Y-85842213D01*
X125053526Y-85851756D01*
X125050147Y-85858807D01*
X125046044Y-85864917D01*
X125040038Y-85871967D01*
X125018293Y-85890739D01*
X124992665Y-85906994D01*
X124979554Y-85913406D01*
X124966138Y-85918362D01*
X124950448Y-85921666D01*
X124929657Y-85923572D01*
X124900933Y-85924331D01*
X124861449Y-85924196D01*
X124808374Y-85923418D01*
X124788049Y-85923061D01*
X124739107Y-85921912D01*
X124702991Y-85920372D01*
X124677028Y-85918153D01*
X124658542Y-85914964D01*
X124644858Y-85910518D01*
X124633300Y-85904526D01*
X124616532Y-85893079D01*
X124594807Y-85870598D01*
X124580285Y-85841485D01*
X124571611Y-85802578D01*
X124567430Y-85750711D01*
X124564207Y-85670482D01*
X124719898Y-85670482D01*
X124724114Y-85723003D01*
X124726740Y-85748614D01*
X124730390Y-85772106D01*
X124733935Y-85784594D01*
X124734518Y-85785292D01*
X124747088Y-85789659D01*
X124770907Y-85792465D01*
X124801472Y-85793730D01*
X124834283Y-85793476D01*
X124864838Y-85791723D01*
X124888634Y-85788494D01*
X124901171Y-85783809D01*
X124905079Y-85774521D01*
X124908420Y-85750358D01*
X124910383Y-85711265D01*
X124911025Y-85656521D01*
X124911025Y-85539088D01*
X124557905Y-85539088D01*
X124557941Y-85424119D01*
X124722147Y-85424119D01*
X124911025Y-85424119D01*
X124911025Y-85314898D01*
X124910749Y-85280266D01*
X124909096Y-85236720D01*
X124905917Y-85208736D01*
X124901171Y-85195823D01*
X124900887Y-85195557D01*
X124886193Y-85190367D01*
X124857041Y-85187103D01*
X124815233Y-85185968D01*
X124793539Y-85186069D01*
X124764575Y-85187035D01*
X124746725Y-85189558D01*
X124736560Y-85194283D01*
X124730648Y-85201853D01*
X124730482Y-85202182D01*
X124727239Y-85216933D01*
X124724590Y-85244154D01*
X124722803Y-85280075D01*
X124722147Y-85320928D01*
X124722147Y-85424119D01*
X124557941Y-85424119D01*
X124557953Y-85385112D01*
X124557979Y-85369058D01*
X124558883Y-85295554D01*
X124561428Y-85236225D01*
X124566089Y-85189216D01*
X124573344Y-85152673D01*
X124583667Y-85124741D01*
X124597535Y-85103565D01*
X124615425Y-85087291D01*
X124637811Y-85074065D01*
X124639959Y-85073020D01*
X124653425Y-85067657D01*
X124669631Y-85063798D01*
X124691315Y-85061206D01*
X124721211Y-85059646D01*
X124762056Y-85058883D01*
X124816586Y-85058681D01*
X124823138Y-85058685D01*
X124883738Y-85059300D01*
X124930612Y-85061389D01*
X124966202Y-85065557D01*
X124992955Y-85072410D01*
X125013315Y-85082552D01*
X125029726Y-85096589D01*
X125044633Y-85115125D01*
X125045954Y-85116983D01*
X125050168Y-85123432D01*
X125053621Y-85130721D01*
X125056388Y-85140408D01*
X125058545Y-85154053D01*
X125060169Y-85173213D01*
X125061335Y-85199446D01*
X125062118Y-85234313D01*
X125062595Y-85279369D01*
X125062842Y-85336175D01*
X125062935Y-85406288D01*
X125062938Y-85424119D01*
X125062949Y-85491267D01*
G37*
G36*
X120690836Y-85056110D02*
G01*
X120747782Y-85059555D01*
X120792794Y-85066345D01*
X120826390Y-85077625D01*
X120851043Y-85094606D01*
X120869227Y-85118501D01*
X120883415Y-85150523D01*
X120887884Y-85171392D01*
X120891436Y-85205502D01*
X120893795Y-85248241D01*
X120894922Y-85295639D01*
X120894780Y-85343727D01*
X120893329Y-85388538D01*
X120890531Y-85426102D01*
X120886347Y-85452450D01*
X120885076Y-85457050D01*
X120866045Y-85494637D01*
X120835449Y-85525870D01*
X120797595Y-85546199D01*
X120789243Y-85548296D01*
X120762625Y-85551999D01*
X120727554Y-85554557D01*
X120689371Y-85555513D01*
X120656436Y-85555653D01*
X120625288Y-85557540D01*
X120604532Y-85563610D01*
X120592059Y-85576313D01*
X120585761Y-85598096D01*
X120583528Y-85631407D01*
X120583253Y-85678694D01*
X120583297Y-85696995D01*
X120584330Y-85739184D01*
X120587806Y-85768244D01*
X120595128Y-85786609D01*
X120607697Y-85796713D01*
X120626915Y-85800990D01*
X120654182Y-85801875D01*
X120682509Y-85801155D01*
X120708254Y-85796551D01*
X120722930Y-85785278D01*
X120729535Y-85764600D01*
X120731071Y-85731784D01*
X120731071Y-85678694D01*
X120888639Y-85678694D01*
X120885817Y-85760237D01*
X120885448Y-85769805D01*
X120881936Y-85814510D01*
X120874687Y-85847023D01*
X120861951Y-85870862D01*
X120841980Y-85889541D01*
X120813024Y-85906579D01*
X120799990Y-85912763D01*
X120784169Y-85918248D01*
X120765325Y-85921822D01*
X120740109Y-85923884D01*
X120705171Y-85924830D01*
X120657162Y-85925057D01*
X120617299Y-85924916D01*
X120580038Y-85924133D01*
X120553122Y-85922306D01*
X120533190Y-85919036D01*
X120516876Y-85913926D01*
X120500819Y-85906579D01*
X120497320Y-85904771D01*
X120467127Y-85882820D01*
X120445700Y-85851461D01*
X120443009Y-85846001D01*
X120436833Y-85831349D01*
X120432508Y-85815451D01*
X120429709Y-85795272D01*
X120428111Y-85767776D01*
X120427391Y-85729929D01*
X120427223Y-85678694D01*
X120427240Y-85658834D01*
X120427566Y-85612686D01*
X120428560Y-85578850D01*
X120430546Y-85554292D01*
X120433848Y-85535976D01*
X120438791Y-85520866D01*
X120445700Y-85505927D01*
X120447266Y-85502885D01*
X120466356Y-85474632D01*
X120491018Y-85454520D01*
X120523849Y-85441480D01*
X120567447Y-85434440D01*
X120624411Y-85432331D01*
X120633149Y-85432303D01*
X120677475Y-85430957D01*
X120707102Y-85427654D01*
X120721216Y-85422477D01*
X120724338Y-85416239D01*
X120728106Y-85394084D01*
X120730336Y-85356571D01*
X120731071Y-85303198D01*
X120731071Y-85193774D01*
X120710006Y-85185765D01*
X120687092Y-85179985D01*
X120648057Y-85178563D01*
X120612530Y-85185765D01*
X120611242Y-85186261D01*
X120600383Y-85191967D01*
X120594447Y-85201184D01*
X120591965Y-85218213D01*
X120591465Y-85247356D01*
X120591465Y-85300938D01*
X120424945Y-85300938D01*
X120429057Y-85228811D01*
X120432104Y-85194089D01*
X120441258Y-85148990D01*
X120457128Y-85114037D01*
X120481246Y-85088222D01*
X120515143Y-85070532D01*
X120560353Y-85059958D01*
X120618406Y-85055487D01*
X120690836Y-85056110D01*
G37*
G36*
X123038562Y-85619068D02*
G01*
X123038343Y-85676966D01*
X123037875Y-85722860D01*
X123037072Y-85758456D01*
X123035843Y-85785464D01*
X123034098Y-85805592D01*
X123031750Y-85820547D01*
X123028709Y-85832038D01*
X123024886Y-85841773D01*
X123020191Y-85851461D01*
X123018382Y-85854960D01*
X122996432Y-85885153D01*
X122965072Y-85906579D01*
X122954514Y-85911634D01*
X122940441Y-85916917D01*
X122924149Y-85920604D01*
X122902800Y-85922977D01*
X122873550Y-85924322D01*
X122833560Y-85924920D01*
X122779987Y-85925057D01*
X122738789Y-85924989D01*
X122695611Y-85924540D01*
X122663920Y-85923421D01*
X122640884Y-85921349D01*
X122623671Y-85918040D01*
X122609448Y-85913212D01*
X122595383Y-85906579D01*
X122591998Y-85904860D01*
X122576095Y-85896813D01*
X122562947Y-85889193D01*
X122552283Y-85880469D01*
X122543831Y-85869107D01*
X122537321Y-85853578D01*
X122532482Y-85832348D01*
X122529042Y-85803887D01*
X122526731Y-85766662D01*
X122525277Y-85719141D01*
X122524410Y-85659793D01*
X122523858Y-85587086D01*
X122523579Y-85539055D01*
X122676810Y-85539055D01*
X122677199Y-85597617D01*
X122678024Y-85651836D01*
X122679292Y-85699336D01*
X122681012Y-85737742D01*
X122683191Y-85764681D01*
X122685837Y-85777779D01*
X122690844Y-85784535D01*
X122699816Y-85789332D01*
X122715626Y-85792095D01*
X122741468Y-85793361D01*
X122780534Y-85793663D01*
X122809203Y-85793394D01*
X122842884Y-85791757D01*
X122862836Y-85788473D01*
X122870685Y-85783355D01*
X122871462Y-85774797D01*
X122872156Y-85751379D01*
X122872656Y-85715201D01*
X122872950Y-85668197D01*
X122873026Y-85612300D01*
X122872874Y-85549444D01*
X122872481Y-85481561D01*
X122870320Y-85190074D01*
X122784209Y-85187713D01*
X122755293Y-85187081D01*
X122725178Y-85187286D01*
X122706019Y-85189170D01*
X122694604Y-85193125D01*
X122687717Y-85199547D01*
X122685649Y-85206914D01*
X122683202Y-85229407D01*
X122681136Y-85264176D01*
X122679461Y-85308846D01*
X122678183Y-85361043D01*
X122677310Y-85418393D01*
X122676850Y-85478522D01*
X122676810Y-85539055D01*
X122523579Y-85539055D01*
X122523350Y-85499488D01*
X122523260Y-85484425D01*
X122522792Y-85403116D01*
X122522506Y-85336357D01*
X122522473Y-85282540D01*
X122522764Y-85240059D01*
X122523449Y-85207307D01*
X122524597Y-85182676D01*
X122526281Y-85164560D01*
X122528570Y-85151351D01*
X122531535Y-85141444D01*
X122535246Y-85133230D01*
X122539775Y-85125104D01*
X122551518Y-85106861D01*
X122567697Y-85089267D01*
X122588057Y-85076339D01*
X122615042Y-85067311D01*
X122651097Y-85061416D01*
X122698666Y-85057887D01*
X122760194Y-85055957D01*
X122762224Y-85055917D01*
X122820588Y-85055473D01*
X122869708Y-85056476D01*
X122907207Y-85058836D01*
X122930702Y-85062462D01*
X122949963Y-85069301D01*
X122985548Y-85090887D01*
X123013810Y-85119725D01*
X123030211Y-85151743D01*
X123031629Y-85160414D01*
X123033610Y-85186410D01*
X123035312Y-85226455D01*
X123036698Y-85279110D01*
X123037736Y-85342935D01*
X123038389Y-85416492D01*
X123038623Y-85498341D01*
X123038624Y-85547457D01*
X123038568Y-85612300D01*
X123038562Y-85619068D01*
G37*
G36*
X122767669Y-84433193D02*
G01*
X122767653Y-84466152D01*
X122767474Y-84546872D01*
X122767113Y-84621988D01*
X122766588Y-84689954D01*
X122765919Y-84749224D01*
X122765126Y-84798253D01*
X122764228Y-84835494D01*
X122763244Y-84859404D01*
X122762195Y-84868434D01*
X122758716Y-84869730D01*
X122741599Y-84871876D01*
X122714069Y-84873357D01*
X122680074Y-84873909D01*
X122603427Y-84873909D01*
X122603306Y-84526948D01*
X122603161Y-84439225D01*
X122602750Y-84362903D01*
X122602040Y-84300677D01*
X122600997Y-84251360D01*
X122599589Y-84213766D01*
X122597780Y-84186709D01*
X122595537Y-84169001D01*
X122592827Y-84159457D01*
X122590229Y-84154637D01*
X122582946Y-84146005D01*
X122571176Y-84140924D01*
X122550941Y-84138168D01*
X122518261Y-84136514D01*
X122487214Y-84136215D01*
X122457997Y-84138542D01*
X122442513Y-84143679D01*
X122441595Y-84144643D01*
X122438914Y-84150747D01*
X122436706Y-84162402D01*
X122434931Y-84180967D01*
X122433545Y-84207802D01*
X122432506Y-84244265D01*
X122431772Y-84291715D01*
X122431300Y-84351513D01*
X122431048Y-84425015D01*
X122430974Y-84513582D01*
X122430974Y-84873909D01*
X122266732Y-84873909D01*
X122266732Y-84522616D01*
X122266705Y-84463437D01*
X122266542Y-84386894D01*
X122266184Y-84324316D01*
X122265581Y-84274224D01*
X122264682Y-84235139D01*
X122263435Y-84205583D01*
X122261789Y-84184077D01*
X122259693Y-84169142D01*
X122257097Y-84159300D01*
X122253948Y-84153072D01*
X122251833Y-84150188D01*
X122243185Y-84142041D01*
X122230330Y-84137397D01*
X122209201Y-84135306D01*
X122175730Y-84134821D01*
X122152339Y-84134928D01*
X122128455Y-84135998D01*
X122114679Y-84139122D01*
X122107219Y-84145389D01*
X122102287Y-84155885D01*
X122102085Y-84156502D01*
X122100192Y-84171343D01*
X122098509Y-84201095D01*
X122097065Y-84244383D01*
X122095890Y-84299834D01*
X122095014Y-84366075D01*
X122094467Y-84441731D01*
X122094278Y-84525430D01*
X122094278Y-84873909D01*
X121937788Y-84873909D01*
X121940071Y-84480323D01*
X121940430Y-84419609D01*
X121940963Y-84338892D01*
X121941531Y-84272205D01*
X121942201Y-84218098D01*
X121943041Y-84175121D01*
X121944117Y-84141822D01*
X121945497Y-84116752D01*
X121947246Y-84098461D01*
X121949433Y-84085497D01*
X121952124Y-84076410D01*
X121955386Y-84069750D01*
X121959286Y-84064067D01*
X121966026Y-84055272D01*
X121984908Y-84034468D01*
X122005011Y-84020503D01*
X122030129Y-84011890D01*
X122064059Y-84007142D01*
X122110594Y-84004772D01*
X122154948Y-84004430D01*
X122198281Y-84007729D01*
X122229817Y-84015807D01*
X122251914Y-84029330D01*
X122266931Y-84048965D01*
X122278639Y-84065619D01*
X122288983Y-84066635D01*
X122299954Y-84052002D01*
X122315158Y-84034282D01*
X122347558Y-84017479D01*
X122394041Y-84007188D01*
X122453965Y-84003608D01*
X122471848Y-84003745D01*
X122516438Y-84006656D01*
X122549034Y-84014070D01*
X122572728Y-84026952D01*
X122590611Y-84046268D01*
X122593759Y-84050728D01*
X122600482Y-84058340D01*
X122603029Y-84053410D01*
X122603427Y-84033997D01*
X122603427Y-84003427D01*
X122767669Y-84003427D01*
X122767669Y-84433193D01*
G37*
G36*
X125816557Y-84735730D02*
G01*
X125842467Y-84736178D01*
X125890878Y-84737185D01*
X125926754Y-84738455D01*
X125952799Y-84740335D01*
X125971715Y-84743170D01*
X125986204Y-84747308D01*
X125998968Y-84753095D01*
X126012710Y-84760877D01*
X126044385Y-84784926D01*
X126068141Y-84818901D01*
X126071477Y-84826089D01*
X126074603Y-84834320D01*
X126077220Y-84844222D01*
X126079371Y-84857136D01*
X126081102Y-84874404D01*
X126082457Y-84897367D01*
X126083481Y-84927366D01*
X126084219Y-84965742D01*
X126084715Y-85013836D01*
X126085014Y-85072990D01*
X126085160Y-85144544D01*
X126085198Y-85229840D01*
X126085174Y-85330220D01*
X126085160Y-85362792D01*
X126085078Y-85458811D01*
X126084913Y-85540149D01*
X126084622Y-85608140D01*
X126084166Y-85664119D01*
X126083505Y-85709421D01*
X126082597Y-85745379D01*
X126081402Y-85773328D01*
X126079880Y-85794603D01*
X126077990Y-85810537D01*
X126075691Y-85822465D01*
X126072944Y-85831722D01*
X126069707Y-85839642D01*
X126055886Y-85863399D01*
X126022762Y-85895128D01*
X125978297Y-85915415D01*
X125973496Y-85916527D01*
X125948707Y-85919560D01*
X125912133Y-85921827D01*
X125867288Y-85923323D01*
X125817688Y-85924044D01*
X125766847Y-85923985D01*
X125718279Y-85923143D01*
X125675501Y-85921512D01*
X125642027Y-85919088D01*
X125621371Y-85915867D01*
X125587960Y-85903326D01*
X125551187Y-85876889D01*
X125526156Y-85839642D01*
X125525809Y-85838873D01*
X125519532Y-85821908D01*
X125515221Y-85801735D01*
X125512536Y-85775054D01*
X125511138Y-85738562D01*
X125510688Y-85688959D01*
X125510508Y-85571937D01*
X125691174Y-85571937D01*
X125691174Y-85662810D01*
X125691645Y-85693464D01*
X125693420Y-85728386D01*
X125696206Y-85755127D01*
X125699675Y-85769567D01*
X125699939Y-85770053D01*
X125705422Y-85776942D01*
X125714843Y-85781421D01*
X125731320Y-85783996D01*
X125757976Y-85785172D01*
X125797931Y-85785451D01*
X125800681Y-85785450D01*
X125839775Y-85785132D01*
X125865752Y-85783890D01*
X125881733Y-85781217D01*
X125890837Y-85776611D01*
X125896187Y-85769567D01*
X125897094Y-85767028D01*
X125899686Y-85748671D01*
X125901795Y-85715751D01*
X125903367Y-85669680D01*
X125904349Y-85611870D01*
X125904688Y-85543734D01*
X125904688Y-85333786D01*
X125592629Y-85333786D01*
X125592629Y-85194180D01*
X125904688Y-85194180D01*
X125904688Y-85049929D01*
X125904510Y-85018000D01*
X125903484Y-84970241D01*
X125901665Y-84931254D01*
X125899188Y-84903588D01*
X125896187Y-84889793D01*
X125896039Y-84889518D01*
X125890589Y-84882537D01*
X125881261Y-84877996D01*
X125864918Y-84875385D01*
X125838425Y-84874193D01*
X125798648Y-84873909D01*
X125780477Y-84873975D01*
X125744700Y-84874858D01*
X125721132Y-84877089D01*
X125706765Y-84881065D01*
X125698590Y-84887186D01*
X125697939Y-84888054D01*
X125691888Y-84905590D01*
X125687249Y-84937486D01*
X125684301Y-84981893D01*
X125681030Y-85063323D01*
X125506402Y-85058681D01*
X125504070Y-84970262D01*
X125503789Y-84920564D01*
X125506822Y-84875556D01*
X125514144Y-84840574D01*
X125526486Y-84812334D01*
X125544574Y-84787550D01*
X125548427Y-84783290D01*
X125566356Y-84767018D01*
X125587393Y-84754607D01*
X125613748Y-84745636D01*
X125647632Y-84739684D01*
X125691254Y-84736330D01*
X125746826Y-84735152D01*
X125816557Y-84735730D01*
G37*
G36*
X126060718Y-84430078D02*
G01*
X126054376Y-84471562D01*
X126034853Y-84508211D01*
X126003980Y-84534880D01*
X125963616Y-84549288D01*
X125960849Y-84549711D01*
X125934065Y-84550527D01*
X125911550Y-84546473D01*
X125904182Y-84544075D01*
X125891734Y-84544055D01*
X125878240Y-84552188D01*
X125872490Y-84557691D01*
X125858926Y-84570672D01*
X125827446Y-84602910D01*
X125706937Y-84602910D01*
X125686533Y-84602945D01*
X125643766Y-84603454D01*
X125613850Y-84604768D01*
X125594208Y-84607149D01*
X125582265Y-84610856D01*
X125575442Y-84616147D01*
X125566920Y-84624315D01*
X125547747Y-84636156D01*
X125539830Y-84637779D01*
X125516667Y-84639901D01*
X125482398Y-84641652D01*
X125440158Y-84642884D01*
X125393078Y-84643450D01*
X125390435Y-84643459D01*
X125331878Y-84643182D01*
X125287416Y-84641512D01*
X125254826Y-84637854D01*
X125231885Y-84631612D01*
X125216370Y-84622192D01*
X125206059Y-84608999D01*
X125198728Y-84591439D01*
X125196259Y-84583229D01*
X125194667Y-84566642D01*
X125256685Y-84566642D01*
X125264434Y-84587026D01*
X125268965Y-84593233D01*
X125276613Y-84597606D01*
X125290017Y-84600427D01*
X125311844Y-84602029D01*
X125344760Y-84602745D01*
X125391433Y-84602910D01*
X125437826Y-84602748D01*
X125470830Y-84602036D01*
X125492727Y-84600442D01*
X125506181Y-84597631D01*
X125513860Y-84593270D01*
X125518431Y-84587026D01*
X125524266Y-84574403D01*
X125525307Y-84557691D01*
X125514027Y-84541906D01*
X125511069Y-84539826D01*
X125492369Y-84534336D01*
X125462501Y-84530488D01*
X125425394Y-84528284D01*
X125384980Y-84527722D01*
X125345187Y-84528803D01*
X125309945Y-84531528D01*
X125283186Y-84535895D01*
X125268838Y-84541906D01*
X125260865Y-84551191D01*
X125256685Y-84566642D01*
X125194667Y-84566642D01*
X125194008Y-84559771D01*
X125201494Y-84534378D01*
X125206306Y-84524581D01*
X125217203Y-84511234D01*
X125233473Y-84501486D01*
X125257320Y-84494812D01*
X125290948Y-84490687D01*
X125336562Y-84488587D01*
X125396366Y-84487986D01*
X125432291Y-84488225D01*
X125483590Y-84490018D01*
X125521676Y-84493884D01*
X125548549Y-84500195D01*
X125566212Y-84509327D01*
X125576667Y-84521653D01*
X125578956Y-84525298D01*
X125585371Y-84530629D01*
X125596831Y-84534096D01*
X125616182Y-84536088D01*
X125646265Y-84536997D01*
X125689926Y-84537213D01*
X125695860Y-84537213D01*
X125737349Y-84537055D01*
X125766007Y-84536217D01*
X125785045Y-84534123D01*
X125797675Y-84530199D01*
X125807108Y-84523871D01*
X125816556Y-84514565D01*
X125820514Y-84510374D01*
X125831718Y-84495499D01*
X125834158Y-84480629D01*
X125829636Y-84457963D01*
X125825848Y-84436710D01*
X125893234Y-84436710D01*
X125901605Y-84461330D01*
X125920180Y-84479229D01*
X125933405Y-84485029D01*
X125956856Y-84485921D01*
X125978597Y-84471516D01*
X125990585Y-84453781D01*
X125994570Y-84428693D01*
X125987204Y-84405250D01*
X125970157Y-84387955D01*
X125945102Y-84381309D01*
X125932941Y-84382124D01*
X125912944Y-84390582D01*
X125897704Y-84411441D01*
X125897326Y-84412180D01*
X125893234Y-84436710D01*
X125825848Y-84436710D01*
X125825391Y-84434148D01*
X125827668Y-84412901D01*
X125837658Y-84386391D01*
X125846937Y-84368262D01*
X125873220Y-84337369D01*
X125907373Y-84320704D01*
X125950427Y-84317635D01*
X125958020Y-84318367D01*
X126000742Y-84330360D01*
X126033081Y-84353977D01*
X126053563Y-84387716D01*
X126060484Y-84428693D01*
X126060718Y-84430078D01*
G37*
G36*
X125972892Y-83827175D02*
G01*
X125956608Y-83860232D01*
X125930988Y-83885851D01*
X125898932Y-83902901D01*
X125863341Y-83910253D01*
X125827115Y-83906776D01*
X125793155Y-83891338D01*
X125764362Y-83862809D01*
X125747540Y-83839185D01*
X125067055Y-83839185D01*
X125067055Y-83888458D01*
X125067055Y-83937730D01*
X125135585Y-83937730D01*
X125138788Y-83937728D01*
X125172938Y-83937044D01*
X125195010Y-83934606D01*
X125209018Y-83929624D01*
X125218979Y-83921306D01*
X125224870Y-83915789D01*
X125233046Y-83911482D01*
X125245613Y-83908482D01*
X125264979Y-83906556D01*
X125293549Y-83905470D01*
X125333730Y-83904990D01*
X125387928Y-83904882D01*
X125436589Y-83905137D01*
X125480970Y-83905861D01*
X125517442Y-83906968D01*
X125543167Y-83908371D01*
X125555307Y-83909983D01*
X125565185Y-83916330D01*
X125579858Y-83936839D01*
X125588702Y-83963822D01*
X125588900Y-83977735D01*
X125589089Y-83990979D01*
X125585758Y-84006160D01*
X125579917Y-84021089D01*
X125570263Y-84032043D01*
X125554692Y-84039633D01*
X125531105Y-84044471D01*
X125497400Y-84047169D01*
X125451476Y-84048340D01*
X125391232Y-84048594D01*
X125368576Y-84048587D01*
X125319329Y-84048425D01*
X125283137Y-84047849D01*
X125257557Y-84046600D01*
X125240150Y-84044422D01*
X125228473Y-84041057D01*
X125220085Y-84036247D01*
X125212545Y-84029734D01*
X125211879Y-84029112D01*
X125199510Y-84019525D01*
X125185260Y-84014351D01*
X125164304Y-84012606D01*
X125131815Y-84013310D01*
X125071161Y-84015745D01*
X125071161Y-84089654D01*
X125353051Y-84091816D01*
X125634942Y-84093977D01*
X125697445Y-84036384D01*
X125717513Y-84017893D01*
X126016416Y-84017893D01*
X126024786Y-84042513D01*
X126043361Y-84060413D01*
X126054411Y-84065484D01*
X126066337Y-84068476D01*
X126084506Y-84063917D01*
X126104365Y-84049115D01*
X126115295Y-84028240D01*
X126117224Y-84005218D01*
X126110079Y-83983970D01*
X126093790Y-83968420D01*
X126068284Y-83962492D01*
X126056122Y-83963307D01*
X126036126Y-83971766D01*
X126020886Y-83992624D01*
X126020507Y-83993363D01*
X126016416Y-84017893D01*
X125717513Y-84017893D01*
X125759949Y-83978791D01*
X125953539Y-83978791D01*
X125966467Y-83953791D01*
X125986472Y-83928101D01*
X126018588Y-83907547D01*
X126056228Y-83897259D01*
X126094713Y-83898431D01*
X126129361Y-83912256D01*
X126157161Y-83936771D01*
X126177035Y-83970369D01*
X126184282Y-84005218D01*
X126184621Y-84006848D01*
X126180754Y-84043274D01*
X126166271Y-84076714D01*
X126142005Y-84104232D01*
X126108791Y-84122894D01*
X126067465Y-84129767D01*
X126027799Y-84123883D01*
X125994596Y-84104728D01*
X125966279Y-84070807D01*
X125949855Y-84045120D01*
X125788231Y-84044488D01*
X125725845Y-84101972D01*
X125663459Y-84159457D01*
X125067055Y-84159457D01*
X125067055Y-84381183D01*
X125605215Y-84381183D01*
X125743654Y-84242350D01*
X126194151Y-84242350D01*
X126208536Y-84266214D01*
X126224248Y-84276927D01*
X126245490Y-84282638D01*
X126265528Y-84278590D01*
X126285473Y-84263180D01*
X126296205Y-84240572D01*
X126295827Y-84215403D01*
X126282445Y-84192305D01*
X126259651Y-84178319D01*
X126234072Y-84178857D01*
X126209967Y-84194888D01*
X126195759Y-84216811D01*
X126194151Y-84242350D01*
X125743654Y-84242350D01*
X125793557Y-84192305D01*
X126133005Y-84192305D01*
X126149089Y-84165045D01*
X126154739Y-84156592D01*
X126183491Y-84130402D01*
X126220112Y-84114900D01*
X126259265Y-84112623D01*
X126262742Y-84113131D01*
X126303013Y-84126159D01*
X126333119Y-84149029D01*
X126353061Y-84178899D01*
X126362839Y-84212925D01*
X126362536Y-84240572D01*
X126362452Y-84248264D01*
X126351902Y-84282074D01*
X126331187Y-84311511D01*
X126300308Y-84333733D01*
X126259265Y-84345896D01*
X126252386Y-84346571D01*
X126212636Y-84341565D01*
X126176214Y-84323161D01*
X126148217Y-84293752D01*
X126130521Y-84266417D01*
X125978463Y-84266316D01*
X125826406Y-84266214D01*
X125732338Y-84360549D01*
X125638271Y-84454884D01*
X125071161Y-84459198D01*
X125068967Y-84666554D01*
X125066773Y-84873909D01*
X124911025Y-84873909D01*
X124911025Y-84438668D01*
X124781372Y-84438668D01*
X124772610Y-84438665D01*
X124724928Y-84438407D01*
X124690037Y-84437487D01*
X124664797Y-84435555D01*
X124646064Y-84432262D01*
X124630699Y-84427258D01*
X124615558Y-84420191D01*
X124606584Y-84415615D01*
X124589727Y-84406518D01*
X124576301Y-84397175D01*
X124565915Y-84385788D01*
X124558181Y-84370561D01*
X124552707Y-84349694D01*
X124549103Y-84321391D01*
X124546980Y-84283855D01*
X124545946Y-84235287D01*
X124545612Y-84173890D01*
X124545601Y-84139867D01*
X124698525Y-84139867D01*
X124698922Y-84187962D01*
X124699945Y-84228513D01*
X124701527Y-84258561D01*
X124703599Y-84275147D01*
X124710847Y-84303169D01*
X124810936Y-84305474D01*
X124911025Y-84307780D01*
X124911025Y-83973120D01*
X125257762Y-83973120D01*
X125262666Y-83991142D01*
X125264876Y-83995837D01*
X125269403Y-84002485D01*
X125276827Y-84006945D01*
X125289856Y-84009654D01*
X125311193Y-84011048D01*
X125343544Y-84011564D01*
X125389614Y-84011639D01*
X125400091Y-84011628D01*
X125448176Y-84011043D01*
X125482498Y-84009169D01*
X125505296Y-84005454D01*
X125518809Y-83999345D01*
X125525274Y-83990290D01*
X125526932Y-83977735D01*
X125525342Y-83964350D01*
X125518338Y-83953034D01*
X125503704Y-83945364D01*
X125479250Y-83940690D01*
X125442785Y-83938362D01*
X125392119Y-83937730D01*
X125361987Y-83937807D01*
X125326048Y-83938412D01*
X125301673Y-83939958D01*
X125285892Y-83942840D01*
X125275732Y-83947451D01*
X125268221Y-83954188D01*
X125264749Y-83958215D01*
X125257762Y-83973120D01*
X124911025Y-83973120D01*
X124911025Y-83888458D01*
X124818639Y-83888584D01*
X124786229Y-83889100D01*
X124752186Y-83890779D01*
X124726792Y-83893339D01*
X124713935Y-83896485D01*
X124712357Y-83897752D01*
X124708431Y-83904711D01*
X124705406Y-83918078D01*
X124703117Y-83939857D01*
X124701394Y-83972050D01*
X124700073Y-84016661D01*
X124698984Y-84075693D01*
X124698824Y-84087184D01*
X124698525Y-84139867D01*
X124545601Y-84139867D01*
X124545587Y-84097866D01*
X124545585Y-84061115D01*
X124545703Y-83992014D01*
X124546309Y-83936716D01*
X124547794Y-83893424D01*
X124550547Y-83860340D01*
X124554959Y-83835666D01*
X124561420Y-83817605D01*
X124570320Y-83804360D01*
X124582049Y-83794133D01*
X124596999Y-83785126D01*
X124601685Y-83782706D01*
X125808807Y-83782706D01*
X125809185Y-83807876D01*
X125822567Y-83830973D01*
X125843291Y-83844247D01*
X125869513Y-83845185D01*
X125894928Y-83830653D01*
X125907347Y-83813089D01*
X125911067Y-83788305D01*
X125903128Y-83764896D01*
X125885342Y-83747472D01*
X125859522Y-83740640D01*
X125839484Y-83744688D01*
X125819539Y-83760099D01*
X125808807Y-83782706D01*
X124601685Y-83782706D01*
X124615558Y-83775542D01*
X124651718Y-83757064D01*
X125198135Y-83757012D01*
X125744553Y-83756961D01*
X125758443Y-83732548D01*
X125773554Y-83711508D01*
X125803905Y-83687851D01*
X125838877Y-83676468D01*
X125875414Y-83676690D01*
X125910464Y-83687847D01*
X125940974Y-83709271D01*
X125963890Y-83740293D01*
X125976159Y-83780244D01*
X125976940Y-83787812D01*
X125976889Y-83788305D01*
X125972892Y-83827175D01*
G37*
%TO.C,SW101*%
X165825596Y-105260000D02*
X165825596Y-104530000D01*
X165825596Y-101990000D02*
X165825596Y-101260000D01*
X165825596Y-101260000D02*
X159825596Y-101260000D01*
X159825596Y-105260000D02*
X165825596Y-105260000D01*
X159825596Y-104530000D02*
X159825596Y-105260000D01*
X159825596Y-101260000D02*
X159825596Y-101990000D01*
%TD*%
M02*
