%TF.GenerationSoftware,KiCad,Pcbnew,7.0.6-7.0.6~ubuntu22.04.1*%
%TF.CreationDate,2023-09-01T17:27:27+01:00*%
%TF.ProjectId,tec-controller,7465632d-636f-46e7-9472-6f6c6c65722e,rev?*%
%TF.SameCoordinates,Original*%
%TF.FileFunction,Paste,Top*%
%TF.FilePolarity,Positive*%
%FSLAX46Y46*%
G04 Gerber Fmt 4.6, Leading zero omitted, Abs format (unit mm)*
G04 Created by KiCad (PCBNEW 7.0.6-7.0.6~ubuntu22.04.1) date 2023-09-01 17:27:27*
%MOMM*%
%LPD*%
G01*
G04 APERTURE LIST*
G04 Aperture macros list*
%AMRoundRect*
0 Rectangle with rounded corners*
0 $1 Rounding radius*
0 $2 $3 $4 $5 $6 $7 $8 $9 X,Y pos of 4 corners*
0 Add a 4 corners polygon primitive as box body*
4,1,4,$2,$3,$4,$5,$6,$7,$8,$9,$2,$3,0*
0 Add four circle primitives for the rounded corners*
1,1,$1+$1,$2,$3*
1,1,$1+$1,$4,$5*
1,1,$1+$1,$6,$7*
1,1,$1+$1,$8,$9*
0 Add four rect primitives between the rounded corners*
20,1,$1+$1,$2,$3,$4,$5,0*
20,1,$1+$1,$4,$5,$6,$7,0*
20,1,$1+$1,$6,$7,$8,$9,0*
20,1,$1+$1,$8,$9,$2,$3,0*%
G04 Aperture macros list end*
%ADD10RoundRect,0.200000X0.200000X0.275000X-0.200000X0.275000X-0.200000X-0.275000X0.200000X-0.275000X0*%
%ADD11RoundRect,0.250000X0.337500X0.475000X-0.337500X0.475000X-0.337500X-0.475000X0.337500X-0.475000X0*%
%ADD12RoundRect,0.100000X-0.100000X0.712500X-0.100000X-0.712500X0.100000X-0.712500X0.100000X0.712500X0*%
%ADD13RoundRect,0.237500X-0.300000X-0.237500X0.300000X-0.237500X0.300000X0.237500X-0.300000X0.237500X0*%
%ADD14RoundRect,0.200000X-0.275000X0.200000X-0.275000X-0.200000X0.275000X-0.200000X0.275000X0.200000X0*%
%ADD15RoundRect,0.250000X-0.475000X0.337500X-0.475000X-0.337500X0.475000X-0.337500X0.475000X0.337500X0*%
%ADD16RoundRect,0.237500X-0.250000X-0.237500X0.250000X-0.237500X0.250000X0.237500X-0.250000X0.237500X0*%
%ADD17RoundRect,0.250000X-0.337500X-0.475000X0.337500X-0.475000X0.337500X0.475000X-0.337500X0.475000X0*%
%ADD18RoundRect,0.250000X0.475000X-0.337500X0.475000X0.337500X-0.475000X0.337500X-0.475000X-0.337500X0*%
%ADD19RoundRect,0.200000X0.275000X-0.200000X0.275000X0.200000X-0.275000X0.200000X-0.275000X-0.200000X0*%
%ADD20R,1.100000X0.300000*%
%ADD21RoundRect,0.237500X0.237500X-0.250000X0.237500X0.250000X-0.237500X0.250000X-0.237500X-0.250000X0*%
%ADD22RoundRect,0.250000X-0.400000X-0.625000X0.400000X-0.625000X0.400000X0.625000X-0.400000X0.625000X0*%
%ADD23RoundRect,0.200000X-0.200000X-0.275000X0.200000X-0.275000X0.200000X0.275000X-0.200000X0.275000X0*%
%ADD24R,0.850000X2.300000*%
%ADD25RoundRect,0.237500X-0.237500X0.250000X-0.237500X-0.250000X0.237500X-0.250000X0.237500X0.250000X0*%
%ADD26RoundRect,0.150000X-0.825000X-0.150000X0.825000X-0.150000X0.825000X0.150000X-0.825000X0.150000X0*%
%ADD27RoundRect,0.237500X-0.237500X0.300000X-0.237500X-0.300000X0.237500X-0.300000X0.237500X0.300000X0*%
%ADD28RoundRect,0.250000X-0.262500X-0.450000X0.262500X-0.450000X0.262500X0.450000X-0.262500X0.450000X0*%
%ADD29RoundRect,0.150000X0.825000X0.150000X-0.825000X0.150000X-0.825000X-0.150000X0.825000X-0.150000X0*%
%ADD30RoundRect,0.250001X1.924999X-0.899999X1.924999X0.899999X-1.924999X0.899999X-1.924999X-0.899999X0*%
%ADD31RoundRect,0.100000X0.100000X-0.637500X0.100000X0.637500X-0.100000X0.637500X-0.100000X-0.637500X0*%
%ADD32R,0.900000X0.400000*%
%ADD33RoundRect,0.250000X0.262500X0.450000X-0.262500X0.450000X-0.262500X-0.450000X0.262500X-0.450000X0*%
%ADD34RoundRect,0.237500X0.237500X-0.300000X0.237500X0.300000X-0.237500X0.300000X-0.237500X-0.300000X0*%
%ADD35RoundRect,0.237500X0.300000X0.237500X-0.300000X0.237500X-0.300000X-0.237500X0.300000X-0.237500X0*%
%ADD36RoundRect,0.150000X-0.800000X-0.150000X0.800000X-0.150000X0.800000X0.150000X-0.800000X0.150000X0*%
G04 APERTURE END LIST*
D10*
%TO.C,R105*%
X158225000Y-107500000D03*
X156575000Y-107500000D03*
%TD*%
D11*
%TO.C,C105*%
X173675000Y-105400000D03*
X171600000Y-105400000D03*
%TD*%
D12*
%TO.C,U101*%
X124475000Y-98137500D03*
X123825000Y-98137500D03*
X123175000Y-98137500D03*
X122525000Y-98137500D03*
X122525000Y-102362500D03*
X123175000Y-102362500D03*
X123825000Y-102362500D03*
X124475000Y-102362500D03*
%TD*%
D13*
%TO.C,C115*%
X162737500Y-100500000D03*
X164462500Y-100500000D03*
%TD*%
D14*
%TO.C,R110*%
X168600000Y-92750000D03*
X168600000Y-94400000D03*
%TD*%
D15*
%TO.C,C104*%
X182500000Y-92962500D03*
X182500000Y-95037500D03*
%TD*%
D16*
%TO.C,R111*%
X172710000Y-113035000D03*
X174535000Y-113035000D03*
%TD*%
D17*
%TO.C,C108*%
X161462500Y-86500000D03*
X163537500Y-86500000D03*
%TD*%
%TO.C,C110*%
X168962500Y-113500000D03*
X171037500Y-113500000D03*
%TD*%
D18*
%TO.C,C107*%
X176400000Y-102737500D03*
X176400000Y-100662500D03*
%TD*%
D19*
%TO.C,R119*%
X169425000Y-86135000D03*
X169425000Y-84485000D03*
%TD*%
D17*
%TO.C,C109*%
X159462500Y-84500000D03*
X161537500Y-84500000D03*
%TD*%
D20*
%TO.C,J202*%
X119020000Y-96750000D03*
X119020000Y-97250000D03*
X119020000Y-97750000D03*
X119020000Y-98250000D03*
X119020000Y-98750000D03*
X119020000Y-99250000D03*
X119020000Y-99750000D03*
X119020000Y-100250000D03*
X119020000Y-100750000D03*
X119020000Y-101250000D03*
X119020000Y-101750000D03*
X119020000Y-102250000D03*
%TD*%
D21*
%TO.C,R113*%
X157300000Y-92412500D03*
X157300000Y-90587500D03*
%TD*%
D22*
%TO.C,R106*%
X175450000Y-105300000D03*
X178550000Y-105300000D03*
%TD*%
D23*
%TO.C,R118*%
X169400000Y-87600000D03*
X171050000Y-87600000D03*
%TD*%
D15*
%TO.C,C106*%
X176500000Y-85462500D03*
X176500000Y-87537500D03*
%TD*%
D24*
%TO.C,L104*%
X178325000Y-87900000D03*
X180275000Y-87900000D03*
%TD*%
D25*
%TO.C,R104*%
X152300000Y-87887500D03*
X152300000Y-89712500D03*
%TD*%
D23*
%TO.C,R103*%
X178975000Y-90900000D03*
X180625000Y-90900000D03*
%TD*%
D19*
%TO.C,R109*%
X171900000Y-90725000D03*
X171900000Y-89075000D03*
%TD*%
D26*
%TO.C,U103*%
X160500000Y-89095000D03*
X160500000Y-90365000D03*
X160500000Y-91635000D03*
X160500000Y-92905000D03*
X165450000Y-92905000D03*
X165450000Y-91635000D03*
X165450000Y-90365000D03*
X165450000Y-89095000D03*
%TD*%
D19*
%TO.C,R101*%
X120750000Y-97825000D03*
X120750000Y-96175000D03*
%TD*%
D27*
%TO.C,C118*%
X173800000Y-86937500D03*
X173800000Y-88662500D03*
%TD*%
D17*
%TO.C,C114*%
X162462500Y-102500000D03*
X164537500Y-102500000D03*
%TD*%
D18*
%TO.C,C116*%
X168400000Y-100300000D03*
X168400000Y-98225000D03*
%TD*%
D28*
%TO.C,L102*%
X121087500Y-94000000D03*
X122912500Y-94000000D03*
%TD*%
D16*
%TO.C,R115*%
X158000000Y-86500000D03*
X159825000Y-86500000D03*
%TD*%
D29*
%TO.C,U106*%
X176110000Y-111340000D03*
X176110000Y-110070000D03*
X176110000Y-108800000D03*
X176110000Y-107530000D03*
X171160000Y-107530000D03*
X171160000Y-108800000D03*
X171160000Y-110070000D03*
X171160000Y-111340000D03*
%TD*%
D19*
%TO.C,R108*%
X168200000Y-91325000D03*
X168200000Y-89675000D03*
%TD*%
D18*
%TO.C,C101*%
X184500000Y-95000000D03*
X184500000Y-92925000D03*
%TD*%
D30*
%TO.C,U1*%
X174575000Y-95637500D03*
D31*
X170350000Y-98500000D03*
X171000000Y-98500000D03*
X171650000Y-98500000D03*
X172300000Y-98500000D03*
X172950000Y-98500000D03*
X173600000Y-98500000D03*
X174250000Y-98500000D03*
X174900000Y-98500000D03*
X175550000Y-98500000D03*
X176200000Y-98500000D03*
X176850000Y-98500000D03*
X177500000Y-98500000D03*
X178150000Y-98500000D03*
X178800000Y-98500000D03*
X178800000Y-92775000D03*
X178150000Y-92775000D03*
X177500000Y-92775000D03*
X176850000Y-92775000D03*
X176200000Y-92775000D03*
X175550000Y-92775000D03*
X174900000Y-92775000D03*
X174250000Y-92775000D03*
X173600000Y-92775000D03*
X172950000Y-92775000D03*
X172300000Y-92775000D03*
X171650000Y-92775000D03*
X171000000Y-92775000D03*
X170350000Y-92775000D03*
%TD*%
D17*
%TO.C,C111*%
X160212500Y-94750000D03*
X162287500Y-94750000D03*
%TD*%
D32*
%TO.C,FL101*%
X127850000Y-101050000D03*
X127850000Y-100250000D03*
X126150000Y-100250000D03*
X126150000Y-101050000D03*
%TD*%
D25*
%TO.C,R117*%
X154000000Y-105425000D03*
X154000000Y-107250000D03*
%TD*%
D19*
%TO.C,R107*%
X170400000Y-90725000D03*
X170400000Y-89075000D03*
%TD*%
D21*
%TO.C,R114*%
X155300000Y-92412500D03*
X155300000Y-90587500D03*
%TD*%
D24*
%TO.C,L103*%
X178225000Y-101900000D03*
X180175000Y-101900000D03*
%TD*%
D33*
%TO.C,L101*%
X129412500Y-103500000D03*
X127587500Y-103500000D03*
%TD*%
D25*
%TO.C,R116*%
X152480000Y-104987500D03*
X152480000Y-106812500D03*
%TD*%
D13*
%TO.C,C112*%
X166637500Y-111500000D03*
X168362500Y-111500000D03*
%TD*%
D34*
%TO.C,C117*%
X166500000Y-99962500D03*
X166500000Y-98237500D03*
%TD*%
D17*
%TO.C,C103*%
X155262500Y-88600000D03*
X157337500Y-88600000D03*
%TD*%
D18*
%TO.C,C102*%
X182200000Y-87937500D03*
X182200000Y-85862500D03*
%TD*%
D23*
%TO.C,R102*%
X114925000Y-92000000D03*
X116575000Y-92000000D03*
%TD*%
D35*
%TO.C,C113*%
X167112500Y-87500000D03*
X165387500Y-87500000D03*
%TD*%
D36*
%TO.C,U102*%
X160500000Y-104960000D03*
X160500000Y-106230000D03*
X160500000Y-107500000D03*
X160500000Y-108770000D03*
X167500000Y-108770000D03*
X167500000Y-107500000D03*
X167500000Y-106230000D03*
X167500000Y-104960000D03*
%TD*%
D25*
%TO.C,R112*%
X178335000Y-109822500D03*
X178335000Y-111647500D03*
%TD*%
M02*
